M48
; DRILL file {KiCad 5.1.5-52549c5~84~ubuntu18.04.1} date Sat 07 Mar 2020 09:10:47 AM EST
; FORMAT={-:-/ absolute / inch / decimal}
; #@! TF.CreationDate,2020-03-07T09:10:47-05:00
; #@! TF.GenerationSoftware,Kicad,Pcbnew,5.1.5-52549c5~84~ubuntu18.04.1
; #@! TF.FileFunction,Plated,1,2,PTH
FMAT,2
INCH
T1C0.0300
T2C0.0551
T3C0.1382
%
G90
G05
T1
X5.0Y-3.2
X5.3Y-3.2
X5.0Y-3.1
X5.3Y-3.1
X4.85Y-2.3
X4.85Y-2.4
X4.85Y-2.5
X4.85Y-2.6
X4.85Y-2.7
X4.85Y-2.8
X4.85Y-2.9
X4.85Y-3.0
X4.85Y-3.1
X4.85Y-3.2
X4.85Y-3.3
X4.85Y-3.4
X4.85Y-3.5
X4.85Y-3.6
X4.85Y-3.7
X4.85Y-3.8
X4.85Y-3.9
X5.45Y-2.3
X5.45Y-2.4
X5.45Y-2.5
X5.45Y-2.6
X5.45Y-2.7
X5.45Y-2.8
X5.45Y-2.9
X5.45Y-3.0
X5.45Y-3.1
X5.45Y-3.2
X5.45Y-3.3
X5.45Y-3.4
X5.45Y-3.5
X5.45Y-3.6
X5.45Y-3.7
X5.45Y-3.8
X5.45Y-3.9
X5.0Y-3.0
X5.3Y-3.0
T2
X6.1Y-3.0256
X6.1Y-3.4744
X6.35Y-3.0256
X6.35Y-3.4744
X6.6Y-3.0256
X6.6Y-3.4744
X6.1Y-2.3256
X6.1Y-2.7744
X6.35Y-2.3256
X6.35Y-2.7744
X6.6Y-2.3256
X6.6Y-2.7744
X6.1Y-3.7256
X6.1Y-4.1744
X6.35Y-3.7256
X6.35Y-4.1744
X6.6Y-3.7256
X6.6Y-4.1744
T3
X5.7Y-4.2
X5.7Y-2.35
T0
M30
