G04 #@! TF.GenerationSoftware,KiCad,Pcbnew,5.1.5-52549c5~84~ubuntu18.04.1*
G04 #@! TF.CreationDate,2019-11-30T13:56:51-05:00*
G04 #@! TF.ProjectId,pedal-controller,70656461-6c2d-4636-9f6e-74726f6c6c65,rev?*
G04 #@! TF.SameCoordinates,Original*
G04 #@! TF.FileFunction,Copper,L2,Bot*
G04 #@! TF.FilePolarity,Positive*
%FSLAX46Y46*%
G04 Gerber Fmt 4.6, Leading zero omitted, Abs format (unit mm)*
G04 Created by KiCad (PCBNEW 5.1.5-52549c5~84~ubuntu18.04.1) date 2019-11-30 13:56:51*
%MOMM*%
%LPD*%
G04 APERTURE LIST*
%ADD10C,1.524000*%
%ADD11C,2.000000*%
%ADD12C,0.800000*%
%ADD13C,0.500000*%
%ADD14C,0.250000*%
G04 APERTURE END LIST*
D10*
X245110000Y-35560000D03*
X237490000Y-35560000D03*
X245110000Y-40640000D03*
X237490000Y-40640000D03*
X245110000Y-38100000D03*
X237490000Y-38100000D03*
X248920000Y-55880000D03*
X248920000Y-58420000D03*
X248920000Y-53340000D03*
X248920000Y-50800000D03*
X248920000Y-48260000D03*
X248920000Y-45720000D03*
X248920000Y-43180000D03*
X248920000Y-40640000D03*
X248920000Y-38100000D03*
X248920000Y-35560000D03*
X248920000Y-33020000D03*
X248920000Y-30480000D03*
X248920000Y-27940000D03*
X248920000Y-25400000D03*
X248920000Y-22860000D03*
X248920000Y-20320000D03*
X248920000Y-17780000D03*
X233680000Y-58420000D03*
X233680000Y-55880000D03*
X233680000Y-53340000D03*
X233680000Y-50800000D03*
X233680000Y-48260000D03*
X233680000Y-45720000D03*
X233680000Y-43180000D03*
X233680000Y-40640000D03*
X233680000Y-38100000D03*
X233680000Y-35560000D03*
X233680000Y-33020000D03*
X233680000Y-30480000D03*
X233680000Y-27940000D03*
X233680000Y-25400000D03*
X233680000Y-22860000D03*
X233680000Y-20320000D03*
X233680000Y-17780000D03*
D11*
X281940000Y-84440000D03*
X281940000Y-73040000D03*
X275590000Y-84440000D03*
X275590000Y-73040000D03*
X269240000Y-84440000D03*
X269240000Y-73040000D03*
X281940000Y-62850000D03*
X281940000Y-51450000D03*
X275590000Y-62850000D03*
X275590000Y-51450000D03*
X269240000Y-62850000D03*
X269240000Y-51450000D03*
X281940000Y-39990000D03*
X281940000Y-28590000D03*
X275590000Y-39990000D03*
X275590000Y-28590000D03*
X269240000Y-39990000D03*
X269240000Y-28590000D03*
D12*
X269240000Y-40640000D03*
D13*
X269240000Y-62850000D02*
X269240000Y-73040000D01*
D14*
X269240000Y-40640000D02*
X269240000Y-39990000D01*
D13*
X269240000Y-73040000D02*
X269240000Y-84440000D01*
X269240000Y-62850000D02*
X269240000Y-28590000D01*
X241300000Y-45720000D02*
X243840000Y-48260000D01*
X233680000Y-45720000D02*
X241300000Y-45720000D01*
X243840000Y-48260000D02*
X243840000Y-59690000D01*
X243840000Y-59690000D02*
X247000000Y-62850000D01*
X247000000Y-62850000D02*
X260350000Y-62850000D01*
X259730000Y-62850000D02*
X269240000Y-62850000D01*
M02*
