G04 #@! TF.GenerationSoftware,KiCad,Pcbnew,5.1.5-52549c5~84~ubuntu18.04.1*
G04 #@! TF.CreationDate,2019-12-02T06:11:53-05:00*
G04 #@! TF.ProjectId,pedal-controller,70656461-6c2d-4636-9f6e-74726f6c6c65,rev?*
G04 #@! TF.SameCoordinates,Original*
G04 #@! TF.FileFunction,Copper,L2,Bot*
G04 #@! TF.FilePolarity,Positive*
%FSLAX46Y46*%
G04 Gerber Fmt 4.6, Leading zero omitted, Abs format (unit mm)*
G04 Created by KiCad (PCBNEW 5.1.5-52549c5~84~ubuntu18.04.1) date 2019-12-02 06:11:53*
%MOMM*%
%LPD*%
G04 APERTURE LIST*
%ADD10C,4.000000*%
%ADD11C,1.524000*%
%ADD12C,2.000000*%
%ADD13C,0.800000*%
%ADD14C,0.500000*%
%ADD15C,0.250000*%
G04 APERTURE END LIST*
D10*
X144780000Y-59690000D03*
X144780000Y-128270000D03*
D11*
X138430000Y-96520000D03*
X138430000Y-99060000D03*
X138430000Y-93980000D03*
X138430000Y-91440000D03*
X138430000Y-88900000D03*
X138430000Y-86360000D03*
X138430000Y-83820000D03*
X138430000Y-81280000D03*
X138430000Y-78740000D03*
X138430000Y-76200000D03*
X138430000Y-73660000D03*
X138430000Y-71120000D03*
X138430000Y-68580000D03*
X138430000Y-66040000D03*
X138430000Y-63500000D03*
X138430000Y-60960000D03*
X138430000Y-58420000D03*
X123190000Y-99060000D03*
X123190000Y-96520000D03*
X123190000Y-93980000D03*
X123190000Y-91440000D03*
X123190000Y-88900000D03*
X123190000Y-86360000D03*
X123190000Y-83820000D03*
X123190000Y-81280000D03*
X123190000Y-78740000D03*
X123190000Y-76200000D03*
X123190000Y-73660000D03*
X123190000Y-71120000D03*
X123190000Y-68580000D03*
X123190000Y-66040000D03*
X123190000Y-63500000D03*
X123190000Y-60960000D03*
X123190000Y-58420000D03*
X134620000Y-76200000D03*
X127000000Y-76200000D03*
X134620000Y-81280000D03*
X127000000Y-81280000D03*
X134620000Y-78740000D03*
X127000000Y-78740000D03*
D12*
X171450000Y-125080000D03*
X171450000Y-113680000D03*
X165100000Y-125080000D03*
X165100000Y-113680000D03*
X158750000Y-125080000D03*
X158750000Y-113680000D03*
X171450000Y-103490000D03*
X171450000Y-92090000D03*
X165100000Y-103490000D03*
X165100000Y-92090000D03*
X158750000Y-103490000D03*
X158750000Y-92090000D03*
X171450000Y-80630000D03*
X171450000Y-69230000D03*
X165100000Y-80630000D03*
X165100000Y-69230000D03*
X158750000Y-80630000D03*
X158750000Y-69230000D03*
D13*
X158750000Y-81280000D03*
D14*
X158750000Y-103490000D02*
X158750000Y-113680000D01*
D15*
X158750000Y-81280000D02*
X158750000Y-80630000D01*
D14*
X158750000Y-113680000D02*
X158750000Y-125080000D01*
X158750000Y-103490000D02*
X158750000Y-69230000D01*
X130810000Y-86360000D02*
X133350000Y-88900000D01*
X123190000Y-86360000D02*
X130810000Y-86360000D01*
X133350000Y-88900000D02*
X133350000Y-100330000D01*
X133350000Y-100330000D02*
X136510000Y-103490000D01*
X136510000Y-103490000D02*
X149860000Y-103490000D01*
X149240000Y-103490000D02*
X158750000Y-103490000D01*
M02*
