G04 #@! TF.GenerationSoftware,KiCad,Pcbnew,5.1.5-52549c5~84~ubuntu18.04.1*
G04 #@! TF.CreationDate,2019-11-30T13:56:51-05:00*
G04 #@! TF.ProjectId,pedal-controller,70656461-6c2d-4636-9f6e-74726f6c6c65,rev?*
G04 #@! TF.SameCoordinates,Original*
G04 #@! TF.FileFunction,Soldermask,Top*
G04 #@! TF.FilePolarity,Negative*
%FSLAX46Y46*%
G04 Gerber Fmt 4.6, Leading zero omitted, Abs format (unit mm)*
G04 Created by KiCad (PCBNEW 5.1.5-52549c5~84~ubuntu18.04.1) date 2019-11-30 13:56:51*
%MOMM*%
%LPD*%
G04 APERTURE LIST*
%ADD10C,0.100000*%
G04 APERTURE END LIST*
D10*
G36*
X269546564Y-83429389D02*
G01*
X269737833Y-83508615D01*
X269737835Y-83508616D01*
X269909973Y-83623635D01*
X270056365Y-83770027D01*
X270171385Y-83942167D01*
X270250611Y-84133436D01*
X270291000Y-84336484D01*
X270291000Y-84543516D01*
X270250611Y-84746564D01*
X270171385Y-84937833D01*
X270171384Y-84937835D01*
X270056365Y-85109973D01*
X269909973Y-85256365D01*
X269737835Y-85371384D01*
X269737834Y-85371385D01*
X269737833Y-85371385D01*
X269546564Y-85450611D01*
X269343516Y-85491000D01*
X269136484Y-85491000D01*
X268933436Y-85450611D01*
X268742167Y-85371385D01*
X268742166Y-85371385D01*
X268742165Y-85371384D01*
X268570027Y-85256365D01*
X268423635Y-85109973D01*
X268308616Y-84937835D01*
X268308615Y-84937833D01*
X268229389Y-84746564D01*
X268189000Y-84543516D01*
X268189000Y-84336484D01*
X268229389Y-84133436D01*
X268308615Y-83942167D01*
X268423635Y-83770027D01*
X268570027Y-83623635D01*
X268742165Y-83508616D01*
X268742167Y-83508615D01*
X268933436Y-83429389D01*
X269136484Y-83389000D01*
X269343516Y-83389000D01*
X269546564Y-83429389D01*
G37*
G36*
X282246564Y-83429389D02*
G01*
X282437833Y-83508615D01*
X282437835Y-83508616D01*
X282609973Y-83623635D01*
X282756365Y-83770027D01*
X282871385Y-83942167D01*
X282950611Y-84133436D01*
X282991000Y-84336484D01*
X282991000Y-84543516D01*
X282950611Y-84746564D01*
X282871385Y-84937833D01*
X282871384Y-84937835D01*
X282756365Y-85109973D01*
X282609973Y-85256365D01*
X282437835Y-85371384D01*
X282437834Y-85371385D01*
X282437833Y-85371385D01*
X282246564Y-85450611D01*
X282043516Y-85491000D01*
X281836484Y-85491000D01*
X281633436Y-85450611D01*
X281442167Y-85371385D01*
X281442166Y-85371385D01*
X281442165Y-85371384D01*
X281270027Y-85256365D01*
X281123635Y-85109973D01*
X281008616Y-84937835D01*
X281008615Y-84937833D01*
X280929389Y-84746564D01*
X280889000Y-84543516D01*
X280889000Y-84336484D01*
X280929389Y-84133436D01*
X281008615Y-83942167D01*
X281123635Y-83770027D01*
X281270027Y-83623635D01*
X281442165Y-83508616D01*
X281442167Y-83508615D01*
X281633436Y-83429389D01*
X281836484Y-83389000D01*
X282043516Y-83389000D01*
X282246564Y-83429389D01*
G37*
G36*
X275896564Y-83429389D02*
G01*
X276087833Y-83508615D01*
X276087835Y-83508616D01*
X276259973Y-83623635D01*
X276406365Y-83770027D01*
X276521385Y-83942167D01*
X276600611Y-84133436D01*
X276641000Y-84336484D01*
X276641000Y-84543516D01*
X276600611Y-84746564D01*
X276521385Y-84937833D01*
X276521384Y-84937835D01*
X276406365Y-85109973D01*
X276259973Y-85256365D01*
X276087835Y-85371384D01*
X276087834Y-85371385D01*
X276087833Y-85371385D01*
X275896564Y-85450611D01*
X275693516Y-85491000D01*
X275486484Y-85491000D01*
X275283436Y-85450611D01*
X275092167Y-85371385D01*
X275092166Y-85371385D01*
X275092165Y-85371384D01*
X274920027Y-85256365D01*
X274773635Y-85109973D01*
X274658616Y-84937835D01*
X274658615Y-84937833D01*
X274579389Y-84746564D01*
X274539000Y-84543516D01*
X274539000Y-84336484D01*
X274579389Y-84133436D01*
X274658615Y-83942167D01*
X274773635Y-83770027D01*
X274920027Y-83623635D01*
X275092165Y-83508616D01*
X275092167Y-83508615D01*
X275283436Y-83429389D01*
X275486484Y-83389000D01*
X275693516Y-83389000D01*
X275896564Y-83429389D01*
G37*
G36*
X269546564Y-72029389D02*
G01*
X269737833Y-72108615D01*
X269737835Y-72108616D01*
X269909973Y-72223635D01*
X270056365Y-72370027D01*
X270171385Y-72542167D01*
X270250611Y-72733436D01*
X270291000Y-72936484D01*
X270291000Y-73143516D01*
X270250611Y-73346564D01*
X270171385Y-73537833D01*
X270171384Y-73537835D01*
X270056365Y-73709973D01*
X269909973Y-73856365D01*
X269737835Y-73971384D01*
X269737834Y-73971385D01*
X269737833Y-73971385D01*
X269546564Y-74050611D01*
X269343516Y-74091000D01*
X269136484Y-74091000D01*
X268933436Y-74050611D01*
X268742167Y-73971385D01*
X268742166Y-73971385D01*
X268742165Y-73971384D01*
X268570027Y-73856365D01*
X268423635Y-73709973D01*
X268308616Y-73537835D01*
X268308615Y-73537833D01*
X268229389Y-73346564D01*
X268189000Y-73143516D01*
X268189000Y-72936484D01*
X268229389Y-72733436D01*
X268308615Y-72542167D01*
X268423635Y-72370027D01*
X268570027Y-72223635D01*
X268742165Y-72108616D01*
X268742167Y-72108615D01*
X268933436Y-72029389D01*
X269136484Y-71989000D01*
X269343516Y-71989000D01*
X269546564Y-72029389D01*
G37*
G36*
X275896564Y-72029389D02*
G01*
X276087833Y-72108615D01*
X276087835Y-72108616D01*
X276259973Y-72223635D01*
X276406365Y-72370027D01*
X276521385Y-72542167D01*
X276600611Y-72733436D01*
X276641000Y-72936484D01*
X276641000Y-73143516D01*
X276600611Y-73346564D01*
X276521385Y-73537833D01*
X276521384Y-73537835D01*
X276406365Y-73709973D01*
X276259973Y-73856365D01*
X276087835Y-73971384D01*
X276087834Y-73971385D01*
X276087833Y-73971385D01*
X275896564Y-74050611D01*
X275693516Y-74091000D01*
X275486484Y-74091000D01*
X275283436Y-74050611D01*
X275092167Y-73971385D01*
X275092166Y-73971385D01*
X275092165Y-73971384D01*
X274920027Y-73856365D01*
X274773635Y-73709973D01*
X274658616Y-73537835D01*
X274658615Y-73537833D01*
X274579389Y-73346564D01*
X274539000Y-73143516D01*
X274539000Y-72936484D01*
X274579389Y-72733436D01*
X274658615Y-72542167D01*
X274773635Y-72370027D01*
X274920027Y-72223635D01*
X275092165Y-72108616D01*
X275092167Y-72108615D01*
X275283436Y-72029389D01*
X275486484Y-71989000D01*
X275693516Y-71989000D01*
X275896564Y-72029389D01*
G37*
G36*
X282246564Y-72029389D02*
G01*
X282437833Y-72108615D01*
X282437835Y-72108616D01*
X282609973Y-72223635D01*
X282756365Y-72370027D01*
X282871385Y-72542167D01*
X282950611Y-72733436D01*
X282991000Y-72936484D01*
X282991000Y-73143516D01*
X282950611Y-73346564D01*
X282871385Y-73537833D01*
X282871384Y-73537835D01*
X282756365Y-73709973D01*
X282609973Y-73856365D01*
X282437835Y-73971384D01*
X282437834Y-73971385D01*
X282437833Y-73971385D01*
X282246564Y-74050611D01*
X282043516Y-74091000D01*
X281836484Y-74091000D01*
X281633436Y-74050611D01*
X281442167Y-73971385D01*
X281442166Y-73971385D01*
X281442165Y-73971384D01*
X281270027Y-73856365D01*
X281123635Y-73709973D01*
X281008616Y-73537835D01*
X281008615Y-73537833D01*
X280929389Y-73346564D01*
X280889000Y-73143516D01*
X280889000Y-72936484D01*
X280929389Y-72733436D01*
X281008615Y-72542167D01*
X281123635Y-72370027D01*
X281270027Y-72223635D01*
X281442165Y-72108616D01*
X281442167Y-72108615D01*
X281633436Y-72029389D01*
X281836484Y-71989000D01*
X282043516Y-71989000D01*
X282246564Y-72029389D01*
G37*
G36*
X282246564Y-61839389D02*
G01*
X282437833Y-61918615D01*
X282437835Y-61918616D01*
X282609973Y-62033635D01*
X282756365Y-62180027D01*
X282871385Y-62352167D01*
X282950611Y-62543436D01*
X282991000Y-62746484D01*
X282991000Y-62953516D01*
X282950611Y-63156564D01*
X282871385Y-63347833D01*
X282871384Y-63347835D01*
X282756365Y-63519973D01*
X282609973Y-63666365D01*
X282437835Y-63781384D01*
X282437834Y-63781385D01*
X282437833Y-63781385D01*
X282246564Y-63860611D01*
X282043516Y-63901000D01*
X281836484Y-63901000D01*
X281633436Y-63860611D01*
X281442167Y-63781385D01*
X281442166Y-63781385D01*
X281442165Y-63781384D01*
X281270027Y-63666365D01*
X281123635Y-63519973D01*
X281008616Y-63347835D01*
X281008615Y-63347833D01*
X280929389Y-63156564D01*
X280889000Y-62953516D01*
X280889000Y-62746484D01*
X280929389Y-62543436D01*
X281008615Y-62352167D01*
X281123635Y-62180027D01*
X281270027Y-62033635D01*
X281442165Y-61918616D01*
X281442167Y-61918615D01*
X281633436Y-61839389D01*
X281836484Y-61799000D01*
X282043516Y-61799000D01*
X282246564Y-61839389D01*
G37*
G36*
X275896564Y-61839389D02*
G01*
X276087833Y-61918615D01*
X276087835Y-61918616D01*
X276259973Y-62033635D01*
X276406365Y-62180027D01*
X276521385Y-62352167D01*
X276600611Y-62543436D01*
X276641000Y-62746484D01*
X276641000Y-62953516D01*
X276600611Y-63156564D01*
X276521385Y-63347833D01*
X276521384Y-63347835D01*
X276406365Y-63519973D01*
X276259973Y-63666365D01*
X276087835Y-63781384D01*
X276087834Y-63781385D01*
X276087833Y-63781385D01*
X275896564Y-63860611D01*
X275693516Y-63901000D01*
X275486484Y-63901000D01*
X275283436Y-63860611D01*
X275092167Y-63781385D01*
X275092166Y-63781385D01*
X275092165Y-63781384D01*
X274920027Y-63666365D01*
X274773635Y-63519973D01*
X274658616Y-63347835D01*
X274658615Y-63347833D01*
X274579389Y-63156564D01*
X274539000Y-62953516D01*
X274539000Y-62746484D01*
X274579389Y-62543436D01*
X274658615Y-62352167D01*
X274773635Y-62180027D01*
X274920027Y-62033635D01*
X275092165Y-61918616D01*
X275092167Y-61918615D01*
X275283436Y-61839389D01*
X275486484Y-61799000D01*
X275693516Y-61799000D01*
X275896564Y-61839389D01*
G37*
G36*
X269546564Y-61839389D02*
G01*
X269737833Y-61918615D01*
X269737835Y-61918616D01*
X269909973Y-62033635D01*
X270056365Y-62180027D01*
X270171385Y-62352167D01*
X270250611Y-62543436D01*
X270291000Y-62746484D01*
X270291000Y-62953516D01*
X270250611Y-63156564D01*
X270171385Y-63347833D01*
X270171384Y-63347835D01*
X270056365Y-63519973D01*
X269909973Y-63666365D01*
X269737835Y-63781384D01*
X269737834Y-63781385D01*
X269737833Y-63781385D01*
X269546564Y-63860611D01*
X269343516Y-63901000D01*
X269136484Y-63901000D01*
X268933436Y-63860611D01*
X268742167Y-63781385D01*
X268742166Y-63781385D01*
X268742165Y-63781384D01*
X268570027Y-63666365D01*
X268423635Y-63519973D01*
X268308616Y-63347835D01*
X268308615Y-63347833D01*
X268229389Y-63156564D01*
X268189000Y-62953516D01*
X268189000Y-62746484D01*
X268229389Y-62543436D01*
X268308615Y-62352167D01*
X268423635Y-62180027D01*
X268570027Y-62033635D01*
X268742165Y-61918616D01*
X268742167Y-61918615D01*
X268933436Y-61839389D01*
X269136484Y-61799000D01*
X269343516Y-61799000D01*
X269546564Y-61839389D01*
G37*
G36*
X249157142Y-57638242D02*
G01*
X249305101Y-57699529D01*
X249438255Y-57788499D01*
X249551501Y-57901745D01*
X249640471Y-58034899D01*
X249701758Y-58182858D01*
X249733000Y-58339925D01*
X249733000Y-58500075D01*
X249701758Y-58657142D01*
X249640471Y-58805101D01*
X249551501Y-58938255D01*
X249438255Y-59051501D01*
X249305101Y-59140471D01*
X249157142Y-59201758D01*
X249000075Y-59233000D01*
X248839925Y-59233000D01*
X248682858Y-59201758D01*
X248534899Y-59140471D01*
X248401745Y-59051501D01*
X248288499Y-58938255D01*
X248199529Y-58805101D01*
X248138242Y-58657142D01*
X248107000Y-58500075D01*
X248107000Y-58339925D01*
X248138242Y-58182858D01*
X248199529Y-58034899D01*
X248288499Y-57901745D01*
X248401745Y-57788499D01*
X248534899Y-57699529D01*
X248682858Y-57638242D01*
X248839925Y-57607000D01*
X249000075Y-57607000D01*
X249157142Y-57638242D01*
G37*
G36*
X233917142Y-57638242D02*
G01*
X234065101Y-57699529D01*
X234198255Y-57788499D01*
X234311501Y-57901745D01*
X234400471Y-58034899D01*
X234461758Y-58182858D01*
X234493000Y-58339925D01*
X234493000Y-58500075D01*
X234461758Y-58657142D01*
X234400471Y-58805101D01*
X234311501Y-58938255D01*
X234198255Y-59051501D01*
X234065101Y-59140471D01*
X233917142Y-59201758D01*
X233760075Y-59233000D01*
X233599925Y-59233000D01*
X233442858Y-59201758D01*
X233294899Y-59140471D01*
X233161745Y-59051501D01*
X233048499Y-58938255D01*
X232959529Y-58805101D01*
X232898242Y-58657142D01*
X232867000Y-58500075D01*
X232867000Y-58339925D01*
X232898242Y-58182858D01*
X232959529Y-58034899D01*
X233048499Y-57901745D01*
X233161745Y-57788499D01*
X233294899Y-57699529D01*
X233442858Y-57638242D01*
X233599925Y-57607000D01*
X233760075Y-57607000D01*
X233917142Y-57638242D01*
G37*
G36*
X233917142Y-55098242D02*
G01*
X234065101Y-55159529D01*
X234198255Y-55248499D01*
X234311501Y-55361745D01*
X234400471Y-55494899D01*
X234461758Y-55642858D01*
X234493000Y-55799925D01*
X234493000Y-55960075D01*
X234461758Y-56117142D01*
X234400471Y-56265101D01*
X234311501Y-56398255D01*
X234198255Y-56511501D01*
X234065101Y-56600471D01*
X233917142Y-56661758D01*
X233760075Y-56693000D01*
X233599925Y-56693000D01*
X233442858Y-56661758D01*
X233294899Y-56600471D01*
X233161745Y-56511501D01*
X233048499Y-56398255D01*
X232959529Y-56265101D01*
X232898242Y-56117142D01*
X232867000Y-55960075D01*
X232867000Y-55799925D01*
X232898242Y-55642858D01*
X232959529Y-55494899D01*
X233048499Y-55361745D01*
X233161745Y-55248499D01*
X233294899Y-55159529D01*
X233442858Y-55098242D01*
X233599925Y-55067000D01*
X233760075Y-55067000D01*
X233917142Y-55098242D01*
G37*
G36*
X249157142Y-55098242D02*
G01*
X249305101Y-55159529D01*
X249438255Y-55248499D01*
X249551501Y-55361745D01*
X249640471Y-55494899D01*
X249701758Y-55642858D01*
X249733000Y-55799925D01*
X249733000Y-55960075D01*
X249701758Y-56117142D01*
X249640471Y-56265101D01*
X249551501Y-56398255D01*
X249438255Y-56511501D01*
X249305101Y-56600471D01*
X249157142Y-56661758D01*
X249000075Y-56693000D01*
X248839925Y-56693000D01*
X248682858Y-56661758D01*
X248534899Y-56600471D01*
X248401745Y-56511501D01*
X248288499Y-56398255D01*
X248199529Y-56265101D01*
X248138242Y-56117142D01*
X248107000Y-55960075D01*
X248107000Y-55799925D01*
X248138242Y-55642858D01*
X248199529Y-55494899D01*
X248288499Y-55361745D01*
X248401745Y-55248499D01*
X248534899Y-55159529D01*
X248682858Y-55098242D01*
X248839925Y-55067000D01*
X249000075Y-55067000D01*
X249157142Y-55098242D01*
G37*
G36*
X233917142Y-52558242D02*
G01*
X234065101Y-52619529D01*
X234198255Y-52708499D01*
X234311501Y-52821745D01*
X234400471Y-52954899D01*
X234461758Y-53102858D01*
X234493000Y-53259925D01*
X234493000Y-53420075D01*
X234461758Y-53577142D01*
X234400471Y-53725101D01*
X234311501Y-53858255D01*
X234198255Y-53971501D01*
X234065101Y-54060471D01*
X233917142Y-54121758D01*
X233760075Y-54153000D01*
X233599925Y-54153000D01*
X233442858Y-54121758D01*
X233294899Y-54060471D01*
X233161745Y-53971501D01*
X233048499Y-53858255D01*
X232959529Y-53725101D01*
X232898242Y-53577142D01*
X232867000Y-53420075D01*
X232867000Y-53259925D01*
X232898242Y-53102858D01*
X232959529Y-52954899D01*
X233048499Y-52821745D01*
X233161745Y-52708499D01*
X233294899Y-52619529D01*
X233442858Y-52558242D01*
X233599925Y-52527000D01*
X233760075Y-52527000D01*
X233917142Y-52558242D01*
G37*
G36*
X249157142Y-52558242D02*
G01*
X249305101Y-52619529D01*
X249438255Y-52708499D01*
X249551501Y-52821745D01*
X249640471Y-52954899D01*
X249701758Y-53102858D01*
X249733000Y-53259925D01*
X249733000Y-53420075D01*
X249701758Y-53577142D01*
X249640471Y-53725101D01*
X249551501Y-53858255D01*
X249438255Y-53971501D01*
X249305101Y-54060471D01*
X249157142Y-54121758D01*
X249000075Y-54153000D01*
X248839925Y-54153000D01*
X248682858Y-54121758D01*
X248534899Y-54060471D01*
X248401745Y-53971501D01*
X248288499Y-53858255D01*
X248199529Y-53725101D01*
X248138242Y-53577142D01*
X248107000Y-53420075D01*
X248107000Y-53259925D01*
X248138242Y-53102858D01*
X248199529Y-52954899D01*
X248288499Y-52821745D01*
X248401745Y-52708499D01*
X248534899Y-52619529D01*
X248682858Y-52558242D01*
X248839925Y-52527000D01*
X249000075Y-52527000D01*
X249157142Y-52558242D01*
G37*
G36*
X275896564Y-50439389D02*
G01*
X276087833Y-50518615D01*
X276087835Y-50518616D01*
X276259973Y-50633635D01*
X276406365Y-50780027D01*
X276521385Y-50952167D01*
X276600611Y-51143436D01*
X276641000Y-51346484D01*
X276641000Y-51553516D01*
X276600611Y-51756564D01*
X276521385Y-51947833D01*
X276521384Y-51947835D01*
X276406365Y-52119973D01*
X276259973Y-52266365D01*
X276087835Y-52381384D01*
X276087834Y-52381385D01*
X276087833Y-52381385D01*
X275896564Y-52460611D01*
X275693516Y-52501000D01*
X275486484Y-52501000D01*
X275283436Y-52460611D01*
X275092167Y-52381385D01*
X275092166Y-52381385D01*
X275092165Y-52381384D01*
X274920027Y-52266365D01*
X274773635Y-52119973D01*
X274658616Y-51947835D01*
X274658615Y-51947833D01*
X274579389Y-51756564D01*
X274539000Y-51553516D01*
X274539000Y-51346484D01*
X274579389Y-51143436D01*
X274658615Y-50952167D01*
X274773635Y-50780027D01*
X274920027Y-50633635D01*
X275092165Y-50518616D01*
X275092167Y-50518615D01*
X275283436Y-50439389D01*
X275486484Y-50399000D01*
X275693516Y-50399000D01*
X275896564Y-50439389D01*
G37*
G36*
X269546564Y-50439389D02*
G01*
X269737833Y-50518615D01*
X269737835Y-50518616D01*
X269909973Y-50633635D01*
X270056365Y-50780027D01*
X270171385Y-50952167D01*
X270250611Y-51143436D01*
X270291000Y-51346484D01*
X270291000Y-51553516D01*
X270250611Y-51756564D01*
X270171385Y-51947833D01*
X270171384Y-51947835D01*
X270056365Y-52119973D01*
X269909973Y-52266365D01*
X269737835Y-52381384D01*
X269737834Y-52381385D01*
X269737833Y-52381385D01*
X269546564Y-52460611D01*
X269343516Y-52501000D01*
X269136484Y-52501000D01*
X268933436Y-52460611D01*
X268742167Y-52381385D01*
X268742166Y-52381385D01*
X268742165Y-52381384D01*
X268570027Y-52266365D01*
X268423635Y-52119973D01*
X268308616Y-51947835D01*
X268308615Y-51947833D01*
X268229389Y-51756564D01*
X268189000Y-51553516D01*
X268189000Y-51346484D01*
X268229389Y-51143436D01*
X268308615Y-50952167D01*
X268423635Y-50780027D01*
X268570027Y-50633635D01*
X268742165Y-50518616D01*
X268742167Y-50518615D01*
X268933436Y-50439389D01*
X269136484Y-50399000D01*
X269343516Y-50399000D01*
X269546564Y-50439389D01*
G37*
G36*
X282246564Y-50439389D02*
G01*
X282437833Y-50518615D01*
X282437835Y-50518616D01*
X282609973Y-50633635D01*
X282756365Y-50780027D01*
X282871385Y-50952167D01*
X282950611Y-51143436D01*
X282991000Y-51346484D01*
X282991000Y-51553516D01*
X282950611Y-51756564D01*
X282871385Y-51947833D01*
X282871384Y-51947835D01*
X282756365Y-52119973D01*
X282609973Y-52266365D01*
X282437835Y-52381384D01*
X282437834Y-52381385D01*
X282437833Y-52381385D01*
X282246564Y-52460611D01*
X282043516Y-52501000D01*
X281836484Y-52501000D01*
X281633436Y-52460611D01*
X281442167Y-52381385D01*
X281442166Y-52381385D01*
X281442165Y-52381384D01*
X281270027Y-52266365D01*
X281123635Y-52119973D01*
X281008616Y-51947835D01*
X281008615Y-51947833D01*
X280929389Y-51756564D01*
X280889000Y-51553516D01*
X280889000Y-51346484D01*
X280929389Y-51143436D01*
X281008615Y-50952167D01*
X281123635Y-50780027D01*
X281270027Y-50633635D01*
X281442165Y-50518616D01*
X281442167Y-50518615D01*
X281633436Y-50439389D01*
X281836484Y-50399000D01*
X282043516Y-50399000D01*
X282246564Y-50439389D01*
G37*
G36*
X249157142Y-50018242D02*
G01*
X249305101Y-50079529D01*
X249438255Y-50168499D01*
X249551501Y-50281745D01*
X249640471Y-50414899D01*
X249701758Y-50562858D01*
X249733000Y-50719925D01*
X249733000Y-50880075D01*
X249701758Y-51037142D01*
X249640471Y-51185101D01*
X249551501Y-51318255D01*
X249438255Y-51431501D01*
X249305101Y-51520471D01*
X249157142Y-51581758D01*
X249000075Y-51613000D01*
X248839925Y-51613000D01*
X248682858Y-51581758D01*
X248534899Y-51520471D01*
X248401745Y-51431501D01*
X248288499Y-51318255D01*
X248199529Y-51185101D01*
X248138242Y-51037142D01*
X248107000Y-50880075D01*
X248107000Y-50719925D01*
X248138242Y-50562858D01*
X248199529Y-50414899D01*
X248288499Y-50281745D01*
X248401745Y-50168499D01*
X248534899Y-50079529D01*
X248682858Y-50018242D01*
X248839925Y-49987000D01*
X249000075Y-49987000D01*
X249157142Y-50018242D01*
G37*
G36*
X233917142Y-50018242D02*
G01*
X234065101Y-50079529D01*
X234198255Y-50168499D01*
X234311501Y-50281745D01*
X234400471Y-50414899D01*
X234461758Y-50562858D01*
X234493000Y-50719925D01*
X234493000Y-50880075D01*
X234461758Y-51037142D01*
X234400471Y-51185101D01*
X234311501Y-51318255D01*
X234198255Y-51431501D01*
X234065101Y-51520471D01*
X233917142Y-51581758D01*
X233760075Y-51613000D01*
X233599925Y-51613000D01*
X233442858Y-51581758D01*
X233294899Y-51520471D01*
X233161745Y-51431501D01*
X233048499Y-51318255D01*
X232959529Y-51185101D01*
X232898242Y-51037142D01*
X232867000Y-50880075D01*
X232867000Y-50719925D01*
X232898242Y-50562858D01*
X232959529Y-50414899D01*
X233048499Y-50281745D01*
X233161745Y-50168499D01*
X233294899Y-50079529D01*
X233442858Y-50018242D01*
X233599925Y-49987000D01*
X233760075Y-49987000D01*
X233917142Y-50018242D01*
G37*
G36*
X233917142Y-47478242D02*
G01*
X234065101Y-47539529D01*
X234198255Y-47628499D01*
X234311501Y-47741745D01*
X234400471Y-47874899D01*
X234461758Y-48022858D01*
X234493000Y-48179925D01*
X234493000Y-48340075D01*
X234461758Y-48497142D01*
X234400471Y-48645101D01*
X234311501Y-48778255D01*
X234198255Y-48891501D01*
X234065101Y-48980471D01*
X233917142Y-49041758D01*
X233760075Y-49073000D01*
X233599925Y-49073000D01*
X233442858Y-49041758D01*
X233294899Y-48980471D01*
X233161745Y-48891501D01*
X233048499Y-48778255D01*
X232959529Y-48645101D01*
X232898242Y-48497142D01*
X232867000Y-48340075D01*
X232867000Y-48179925D01*
X232898242Y-48022858D01*
X232959529Y-47874899D01*
X233048499Y-47741745D01*
X233161745Y-47628499D01*
X233294899Y-47539529D01*
X233442858Y-47478242D01*
X233599925Y-47447000D01*
X233760075Y-47447000D01*
X233917142Y-47478242D01*
G37*
G36*
X249157142Y-47478242D02*
G01*
X249305101Y-47539529D01*
X249438255Y-47628499D01*
X249551501Y-47741745D01*
X249640471Y-47874899D01*
X249701758Y-48022858D01*
X249733000Y-48179925D01*
X249733000Y-48340075D01*
X249701758Y-48497142D01*
X249640471Y-48645101D01*
X249551501Y-48778255D01*
X249438255Y-48891501D01*
X249305101Y-48980471D01*
X249157142Y-49041758D01*
X249000075Y-49073000D01*
X248839925Y-49073000D01*
X248682858Y-49041758D01*
X248534899Y-48980471D01*
X248401745Y-48891501D01*
X248288499Y-48778255D01*
X248199529Y-48645101D01*
X248138242Y-48497142D01*
X248107000Y-48340075D01*
X248107000Y-48179925D01*
X248138242Y-48022858D01*
X248199529Y-47874899D01*
X248288499Y-47741745D01*
X248401745Y-47628499D01*
X248534899Y-47539529D01*
X248682858Y-47478242D01*
X248839925Y-47447000D01*
X249000075Y-47447000D01*
X249157142Y-47478242D01*
G37*
G36*
X249157142Y-44938242D02*
G01*
X249305101Y-44999529D01*
X249438255Y-45088499D01*
X249551501Y-45201745D01*
X249640471Y-45334899D01*
X249701758Y-45482858D01*
X249733000Y-45639925D01*
X249733000Y-45800075D01*
X249701758Y-45957142D01*
X249640471Y-46105101D01*
X249551501Y-46238255D01*
X249438255Y-46351501D01*
X249305101Y-46440471D01*
X249157142Y-46501758D01*
X249000075Y-46533000D01*
X248839925Y-46533000D01*
X248682858Y-46501758D01*
X248534899Y-46440471D01*
X248401745Y-46351501D01*
X248288499Y-46238255D01*
X248199529Y-46105101D01*
X248138242Y-45957142D01*
X248107000Y-45800075D01*
X248107000Y-45639925D01*
X248138242Y-45482858D01*
X248199529Y-45334899D01*
X248288499Y-45201745D01*
X248401745Y-45088499D01*
X248534899Y-44999529D01*
X248682858Y-44938242D01*
X248839925Y-44907000D01*
X249000075Y-44907000D01*
X249157142Y-44938242D01*
G37*
G36*
X233917142Y-44938242D02*
G01*
X234065101Y-44999529D01*
X234198255Y-45088499D01*
X234311501Y-45201745D01*
X234400471Y-45334899D01*
X234461758Y-45482858D01*
X234493000Y-45639925D01*
X234493000Y-45800075D01*
X234461758Y-45957142D01*
X234400471Y-46105101D01*
X234311501Y-46238255D01*
X234198255Y-46351501D01*
X234065101Y-46440471D01*
X233917142Y-46501758D01*
X233760075Y-46533000D01*
X233599925Y-46533000D01*
X233442858Y-46501758D01*
X233294899Y-46440471D01*
X233161745Y-46351501D01*
X233048499Y-46238255D01*
X232959529Y-46105101D01*
X232898242Y-45957142D01*
X232867000Y-45800075D01*
X232867000Y-45639925D01*
X232898242Y-45482858D01*
X232959529Y-45334899D01*
X233048499Y-45201745D01*
X233161745Y-45088499D01*
X233294899Y-44999529D01*
X233442858Y-44938242D01*
X233599925Y-44907000D01*
X233760075Y-44907000D01*
X233917142Y-44938242D01*
G37*
G36*
X249157142Y-42398242D02*
G01*
X249305101Y-42459529D01*
X249438255Y-42548499D01*
X249551501Y-42661745D01*
X249640471Y-42794899D01*
X249701758Y-42942858D01*
X249733000Y-43099925D01*
X249733000Y-43260075D01*
X249701758Y-43417142D01*
X249640471Y-43565101D01*
X249551501Y-43698255D01*
X249438255Y-43811501D01*
X249305101Y-43900471D01*
X249157142Y-43961758D01*
X249000075Y-43993000D01*
X248839925Y-43993000D01*
X248682858Y-43961758D01*
X248534899Y-43900471D01*
X248401745Y-43811501D01*
X248288499Y-43698255D01*
X248199529Y-43565101D01*
X248138242Y-43417142D01*
X248107000Y-43260075D01*
X248107000Y-43099925D01*
X248138242Y-42942858D01*
X248199529Y-42794899D01*
X248288499Y-42661745D01*
X248401745Y-42548499D01*
X248534899Y-42459529D01*
X248682858Y-42398242D01*
X248839925Y-42367000D01*
X249000075Y-42367000D01*
X249157142Y-42398242D01*
G37*
G36*
X233917142Y-42398242D02*
G01*
X234065101Y-42459529D01*
X234198255Y-42548499D01*
X234311501Y-42661745D01*
X234400471Y-42794899D01*
X234461758Y-42942858D01*
X234493000Y-43099925D01*
X234493000Y-43260075D01*
X234461758Y-43417142D01*
X234400471Y-43565101D01*
X234311501Y-43698255D01*
X234198255Y-43811501D01*
X234065101Y-43900471D01*
X233917142Y-43961758D01*
X233760075Y-43993000D01*
X233599925Y-43993000D01*
X233442858Y-43961758D01*
X233294899Y-43900471D01*
X233161745Y-43811501D01*
X233048499Y-43698255D01*
X232959529Y-43565101D01*
X232898242Y-43417142D01*
X232867000Y-43260075D01*
X232867000Y-43099925D01*
X232898242Y-42942858D01*
X232959529Y-42794899D01*
X233048499Y-42661745D01*
X233161745Y-42548499D01*
X233294899Y-42459529D01*
X233442858Y-42398242D01*
X233599925Y-42367000D01*
X233760075Y-42367000D01*
X233917142Y-42398242D01*
G37*
G36*
X249157142Y-39858242D02*
G01*
X249305101Y-39919529D01*
X249438255Y-40008499D01*
X249551501Y-40121745D01*
X249640471Y-40254899D01*
X249701758Y-40402858D01*
X249733000Y-40559925D01*
X249733000Y-40720075D01*
X249701758Y-40877142D01*
X249640471Y-41025101D01*
X249551501Y-41158255D01*
X249438255Y-41271501D01*
X249305101Y-41360471D01*
X249157142Y-41421758D01*
X249000075Y-41453000D01*
X248839925Y-41453000D01*
X248682858Y-41421758D01*
X248534899Y-41360471D01*
X248401745Y-41271501D01*
X248288499Y-41158255D01*
X248199529Y-41025101D01*
X248138242Y-40877142D01*
X248107000Y-40720075D01*
X248107000Y-40559925D01*
X248138242Y-40402858D01*
X248199529Y-40254899D01*
X248288499Y-40121745D01*
X248401745Y-40008499D01*
X248534899Y-39919529D01*
X248682858Y-39858242D01*
X248839925Y-39827000D01*
X249000075Y-39827000D01*
X249157142Y-39858242D01*
G37*
G36*
X233917142Y-39858242D02*
G01*
X234065101Y-39919529D01*
X234198255Y-40008499D01*
X234311501Y-40121745D01*
X234400471Y-40254899D01*
X234461758Y-40402858D01*
X234493000Y-40559925D01*
X234493000Y-40720075D01*
X234461758Y-40877142D01*
X234400471Y-41025101D01*
X234311501Y-41158255D01*
X234198255Y-41271501D01*
X234065101Y-41360471D01*
X233917142Y-41421758D01*
X233760075Y-41453000D01*
X233599925Y-41453000D01*
X233442858Y-41421758D01*
X233294899Y-41360471D01*
X233161745Y-41271501D01*
X233048499Y-41158255D01*
X232959529Y-41025101D01*
X232898242Y-40877142D01*
X232867000Y-40720075D01*
X232867000Y-40559925D01*
X232898242Y-40402858D01*
X232959529Y-40254899D01*
X233048499Y-40121745D01*
X233161745Y-40008499D01*
X233294899Y-39919529D01*
X233442858Y-39858242D01*
X233599925Y-39827000D01*
X233760075Y-39827000D01*
X233917142Y-39858242D01*
G37*
G36*
X245347142Y-39858242D02*
G01*
X245495101Y-39919529D01*
X245628255Y-40008499D01*
X245741501Y-40121745D01*
X245830471Y-40254899D01*
X245891758Y-40402858D01*
X245923000Y-40559925D01*
X245923000Y-40720075D01*
X245891758Y-40877142D01*
X245830471Y-41025101D01*
X245741501Y-41158255D01*
X245628255Y-41271501D01*
X245495101Y-41360471D01*
X245347142Y-41421758D01*
X245190075Y-41453000D01*
X245029925Y-41453000D01*
X244872858Y-41421758D01*
X244724899Y-41360471D01*
X244591745Y-41271501D01*
X244478499Y-41158255D01*
X244389529Y-41025101D01*
X244328242Y-40877142D01*
X244297000Y-40720075D01*
X244297000Y-40559925D01*
X244328242Y-40402858D01*
X244389529Y-40254899D01*
X244478499Y-40121745D01*
X244591745Y-40008499D01*
X244724899Y-39919529D01*
X244872858Y-39858242D01*
X245029925Y-39827000D01*
X245190075Y-39827000D01*
X245347142Y-39858242D01*
G37*
G36*
X237727142Y-39858242D02*
G01*
X237875101Y-39919529D01*
X238008255Y-40008499D01*
X238121501Y-40121745D01*
X238210471Y-40254899D01*
X238271758Y-40402858D01*
X238303000Y-40559925D01*
X238303000Y-40720075D01*
X238271758Y-40877142D01*
X238210471Y-41025101D01*
X238121501Y-41158255D01*
X238008255Y-41271501D01*
X237875101Y-41360471D01*
X237727142Y-41421758D01*
X237570075Y-41453000D01*
X237409925Y-41453000D01*
X237252858Y-41421758D01*
X237104899Y-41360471D01*
X236971745Y-41271501D01*
X236858499Y-41158255D01*
X236769529Y-41025101D01*
X236708242Y-40877142D01*
X236677000Y-40720075D01*
X236677000Y-40559925D01*
X236708242Y-40402858D01*
X236769529Y-40254899D01*
X236858499Y-40121745D01*
X236971745Y-40008499D01*
X237104899Y-39919529D01*
X237252858Y-39858242D01*
X237409925Y-39827000D01*
X237570075Y-39827000D01*
X237727142Y-39858242D01*
G37*
G36*
X275896564Y-38979389D02*
G01*
X276087833Y-39058615D01*
X276087835Y-39058616D01*
X276259973Y-39173635D01*
X276406365Y-39320027D01*
X276521385Y-39492167D01*
X276600611Y-39683436D01*
X276641000Y-39886484D01*
X276641000Y-40093516D01*
X276600611Y-40296564D01*
X276521385Y-40487833D01*
X276521384Y-40487835D01*
X276406365Y-40659973D01*
X276259973Y-40806365D01*
X276087835Y-40921384D01*
X276087834Y-40921385D01*
X276087833Y-40921385D01*
X275896564Y-41000611D01*
X275693516Y-41041000D01*
X275486484Y-41041000D01*
X275283436Y-41000611D01*
X275092167Y-40921385D01*
X275092166Y-40921385D01*
X275092165Y-40921384D01*
X274920027Y-40806365D01*
X274773635Y-40659973D01*
X274658616Y-40487835D01*
X274658615Y-40487833D01*
X274579389Y-40296564D01*
X274539000Y-40093516D01*
X274539000Y-39886484D01*
X274579389Y-39683436D01*
X274658615Y-39492167D01*
X274773635Y-39320027D01*
X274920027Y-39173635D01*
X275092165Y-39058616D01*
X275092167Y-39058615D01*
X275283436Y-38979389D01*
X275486484Y-38939000D01*
X275693516Y-38939000D01*
X275896564Y-38979389D01*
G37*
G36*
X282246564Y-38979389D02*
G01*
X282437833Y-39058615D01*
X282437835Y-39058616D01*
X282609973Y-39173635D01*
X282756365Y-39320027D01*
X282871385Y-39492167D01*
X282950611Y-39683436D01*
X282991000Y-39886484D01*
X282991000Y-40093516D01*
X282950611Y-40296564D01*
X282871385Y-40487833D01*
X282871384Y-40487835D01*
X282756365Y-40659973D01*
X282609973Y-40806365D01*
X282437835Y-40921384D01*
X282437834Y-40921385D01*
X282437833Y-40921385D01*
X282246564Y-41000611D01*
X282043516Y-41041000D01*
X281836484Y-41041000D01*
X281633436Y-41000611D01*
X281442167Y-40921385D01*
X281442166Y-40921385D01*
X281442165Y-40921384D01*
X281270027Y-40806365D01*
X281123635Y-40659973D01*
X281008616Y-40487835D01*
X281008615Y-40487833D01*
X280929389Y-40296564D01*
X280889000Y-40093516D01*
X280889000Y-39886484D01*
X280929389Y-39683436D01*
X281008615Y-39492167D01*
X281123635Y-39320027D01*
X281270027Y-39173635D01*
X281442165Y-39058616D01*
X281442167Y-39058615D01*
X281633436Y-38979389D01*
X281836484Y-38939000D01*
X282043516Y-38939000D01*
X282246564Y-38979389D01*
G37*
G36*
X269546564Y-38979389D02*
G01*
X269737833Y-39058615D01*
X269737835Y-39058616D01*
X269909973Y-39173635D01*
X270056365Y-39320027D01*
X270171385Y-39492167D01*
X270250611Y-39683436D01*
X270291000Y-39886484D01*
X270291000Y-40093516D01*
X270250611Y-40296564D01*
X270171385Y-40487833D01*
X270171384Y-40487835D01*
X270056365Y-40659973D01*
X269909973Y-40806365D01*
X269737835Y-40921384D01*
X269737834Y-40921385D01*
X269737833Y-40921385D01*
X269546564Y-41000611D01*
X269343516Y-41041000D01*
X269136484Y-41041000D01*
X268933436Y-41000611D01*
X268742167Y-40921385D01*
X268742166Y-40921385D01*
X268742165Y-40921384D01*
X268570027Y-40806365D01*
X268423635Y-40659973D01*
X268308616Y-40487835D01*
X268308615Y-40487833D01*
X268229389Y-40296564D01*
X268189000Y-40093516D01*
X268189000Y-39886484D01*
X268229389Y-39683436D01*
X268308615Y-39492167D01*
X268423635Y-39320027D01*
X268570027Y-39173635D01*
X268742165Y-39058616D01*
X268742167Y-39058615D01*
X268933436Y-38979389D01*
X269136484Y-38939000D01*
X269343516Y-38939000D01*
X269546564Y-38979389D01*
G37*
G36*
X245347142Y-37318242D02*
G01*
X245495101Y-37379529D01*
X245628255Y-37468499D01*
X245741501Y-37581745D01*
X245830471Y-37714899D01*
X245891758Y-37862858D01*
X245923000Y-38019925D01*
X245923000Y-38180075D01*
X245891758Y-38337142D01*
X245830471Y-38485101D01*
X245741501Y-38618255D01*
X245628255Y-38731501D01*
X245495101Y-38820471D01*
X245347142Y-38881758D01*
X245190075Y-38913000D01*
X245029925Y-38913000D01*
X244872858Y-38881758D01*
X244724899Y-38820471D01*
X244591745Y-38731501D01*
X244478499Y-38618255D01*
X244389529Y-38485101D01*
X244328242Y-38337142D01*
X244297000Y-38180075D01*
X244297000Y-38019925D01*
X244328242Y-37862858D01*
X244389529Y-37714899D01*
X244478499Y-37581745D01*
X244591745Y-37468499D01*
X244724899Y-37379529D01*
X244872858Y-37318242D01*
X245029925Y-37287000D01*
X245190075Y-37287000D01*
X245347142Y-37318242D01*
G37*
G36*
X237727142Y-37318242D02*
G01*
X237875101Y-37379529D01*
X238008255Y-37468499D01*
X238121501Y-37581745D01*
X238210471Y-37714899D01*
X238271758Y-37862858D01*
X238303000Y-38019925D01*
X238303000Y-38180075D01*
X238271758Y-38337142D01*
X238210471Y-38485101D01*
X238121501Y-38618255D01*
X238008255Y-38731501D01*
X237875101Y-38820471D01*
X237727142Y-38881758D01*
X237570075Y-38913000D01*
X237409925Y-38913000D01*
X237252858Y-38881758D01*
X237104899Y-38820471D01*
X236971745Y-38731501D01*
X236858499Y-38618255D01*
X236769529Y-38485101D01*
X236708242Y-38337142D01*
X236677000Y-38180075D01*
X236677000Y-38019925D01*
X236708242Y-37862858D01*
X236769529Y-37714899D01*
X236858499Y-37581745D01*
X236971745Y-37468499D01*
X237104899Y-37379529D01*
X237252858Y-37318242D01*
X237409925Y-37287000D01*
X237570075Y-37287000D01*
X237727142Y-37318242D01*
G37*
G36*
X233917142Y-37318242D02*
G01*
X234065101Y-37379529D01*
X234198255Y-37468499D01*
X234311501Y-37581745D01*
X234400471Y-37714899D01*
X234461758Y-37862858D01*
X234493000Y-38019925D01*
X234493000Y-38180075D01*
X234461758Y-38337142D01*
X234400471Y-38485101D01*
X234311501Y-38618255D01*
X234198255Y-38731501D01*
X234065101Y-38820471D01*
X233917142Y-38881758D01*
X233760075Y-38913000D01*
X233599925Y-38913000D01*
X233442858Y-38881758D01*
X233294899Y-38820471D01*
X233161745Y-38731501D01*
X233048499Y-38618255D01*
X232959529Y-38485101D01*
X232898242Y-38337142D01*
X232867000Y-38180075D01*
X232867000Y-38019925D01*
X232898242Y-37862858D01*
X232959529Y-37714899D01*
X233048499Y-37581745D01*
X233161745Y-37468499D01*
X233294899Y-37379529D01*
X233442858Y-37318242D01*
X233599925Y-37287000D01*
X233760075Y-37287000D01*
X233917142Y-37318242D01*
G37*
G36*
X249157142Y-37318242D02*
G01*
X249305101Y-37379529D01*
X249438255Y-37468499D01*
X249551501Y-37581745D01*
X249640471Y-37714899D01*
X249701758Y-37862858D01*
X249733000Y-38019925D01*
X249733000Y-38180075D01*
X249701758Y-38337142D01*
X249640471Y-38485101D01*
X249551501Y-38618255D01*
X249438255Y-38731501D01*
X249305101Y-38820471D01*
X249157142Y-38881758D01*
X249000075Y-38913000D01*
X248839925Y-38913000D01*
X248682858Y-38881758D01*
X248534899Y-38820471D01*
X248401745Y-38731501D01*
X248288499Y-38618255D01*
X248199529Y-38485101D01*
X248138242Y-38337142D01*
X248107000Y-38180075D01*
X248107000Y-38019925D01*
X248138242Y-37862858D01*
X248199529Y-37714899D01*
X248288499Y-37581745D01*
X248401745Y-37468499D01*
X248534899Y-37379529D01*
X248682858Y-37318242D01*
X248839925Y-37287000D01*
X249000075Y-37287000D01*
X249157142Y-37318242D01*
G37*
G36*
X233917142Y-34778242D02*
G01*
X234065101Y-34839529D01*
X234198255Y-34928499D01*
X234311501Y-35041745D01*
X234400471Y-35174899D01*
X234461758Y-35322858D01*
X234493000Y-35479925D01*
X234493000Y-35640075D01*
X234461758Y-35797142D01*
X234400471Y-35945101D01*
X234311501Y-36078255D01*
X234198255Y-36191501D01*
X234065101Y-36280471D01*
X233917142Y-36341758D01*
X233760075Y-36373000D01*
X233599925Y-36373000D01*
X233442858Y-36341758D01*
X233294899Y-36280471D01*
X233161745Y-36191501D01*
X233048499Y-36078255D01*
X232959529Y-35945101D01*
X232898242Y-35797142D01*
X232867000Y-35640075D01*
X232867000Y-35479925D01*
X232898242Y-35322858D01*
X232959529Y-35174899D01*
X233048499Y-35041745D01*
X233161745Y-34928499D01*
X233294899Y-34839529D01*
X233442858Y-34778242D01*
X233599925Y-34747000D01*
X233760075Y-34747000D01*
X233917142Y-34778242D01*
G37*
G36*
X245347142Y-34778242D02*
G01*
X245495101Y-34839529D01*
X245628255Y-34928499D01*
X245741501Y-35041745D01*
X245830471Y-35174899D01*
X245891758Y-35322858D01*
X245923000Y-35479925D01*
X245923000Y-35640075D01*
X245891758Y-35797142D01*
X245830471Y-35945101D01*
X245741501Y-36078255D01*
X245628255Y-36191501D01*
X245495101Y-36280471D01*
X245347142Y-36341758D01*
X245190075Y-36373000D01*
X245029925Y-36373000D01*
X244872858Y-36341758D01*
X244724899Y-36280471D01*
X244591745Y-36191501D01*
X244478499Y-36078255D01*
X244389529Y-35945101D01*
X244328242Y-35797142D01*
X244297000Y-35640075D01*
X244297000Y-35479925D01*
X244328242Y-35322858D01*
X244389529Y-35174899D01*
X244478499Y-35041745D01*
X244591745Y-34928499D01*
X244724899Y-34839529D01*
X244872858Y-34778242D01*
X245029925Y-34747000D01*
X245190075Y-34747000D01*
X245347142Y-34778242D01*
G37*
G36*
X249157142Y-34778242D02*
G01*
X249305101Y-34839529D01*
X249438255Y-34928499D01*
X249551501Y-35041745D01*
X249640471Y-35174899D01*
X249701758Y-35322858D01*
X249733000Y-35479925D01*
X249733000Y-35640075D01*
X249701758Y-35797142D01*
X249640471Y-35945101D01*
X249551501Y-36078255D01*
X249438255Y-36191501D01*
X249305101Y-36280471D01*
X249157142Y-36341758D01*
X249000075Y-36373000D01*
X248839925Y-36373000D01*
X248682858Y-36341758D01*
X248534899Y-36280471D01*
X248401745Y-36191501D01*
X248288499Y-36078255D01*
X248199529Y-35945101D01*
X248138242Y-35797142D01*
X248107000Y-35640075D01*
X248107000Y-35479925D01*
X248138242Y-35322858D01*
X248199529Y-35174899D01*
X248288499Y-35041745D01*
X248401745Y-34928499D01*
X248534899Y-34839529D01*
X248682858Y-34778242D01*
X248839925Y-34747000D01*
X249000075Y-34747000D01*
X249157142Y-34778242D01*
G37*
G36*
X237727142Y-34778242D02*
G01*
X237875101Y-34839529D01*
X238008255Y-34928499D01*
X238121501Y-35041745D01*
X238210471Y-35174899D01*
X238271758Y-35322858D01*
X238303000Y-35479925D01*
X238303000Y-35640075D01*
X238271758Y-35797142D01*
X238210471Y-35945101D01*
X238121501Y-36078255D01*
X238008255Y-36191501D01*
X237875101Y-36280471D01*
X237727142Y-36341758D01*
X237570075Y-36373000D01*
X237409925Y-36373000D01*
X237252858Y-36341758D01*
X237104899Y-36280471D01*
X236971745Y-36191501D01*
X236858499Y-36078255D01*
X236769529Y-35945101D01*
X236708242Y-35797142D01*
X236677000Y-35640075D01*
X236677000Y-35479925D01*
X236708242Y-35322858D01*
X236769529Y-35174899D01*
X236858499Y-35041745D01*
X236971745Y-34928499D01*
X237104899Y-34839529D01*
X237252858Y-34778242D01*
X237409925Y-34747000D01*
X237570075Y-34747000D01*
X237727142Y-34778242D01*
G37*
G36*
X233917142Y-32238242D02*
G01*
X234065101Y-32299529D01*
X234198255Y-32388499D01*
X234311501Y-32501745D01*
X234400471Y-32634899D01*
X234461758Y-32782858D01*
X234493000Y-32939925D01*
X234493000Y-33100075D01*
X234461758Y-33257142D01*
X234400471Y-33405101D01*
X234311501Y-33538255D01*
X234198255Y-33651501D01*
X234065101Y-33740471D01*
X233917142Y-33801758D01*
X233760075Y-33833000D01*
X233599925Y-33833000D01*
X233442858Y-33801758D01*
X233294899Y-33740471D01*
X233161745Y-33651501D01*
X233048499Y-33538255D01*
X232959529Y-33405101D01*
X232898242Y-33257142D01*
X232867000Y-33100075D01*
X232867000Y-32939925D01*
X232898242Y-32782858D01*
X232959529Y-32634899D01*
X233048499Y-32501745D01*
X233161745Y-32388499D01*
X233294899Y-32299529D01*
X233442858Y-32238242D01*
X233599925Y-32207000D01*
X233760075Y-32207000D01*
X233917142Y-32238242D01*
G37*
G36*
X249157142Y-32238242D02*
G01*
X249305101Y-32299529D01*
X249438255Y-32388499D01*
X249551501Y-32501745D01*
X249640471Y-32634899D01*
X249701758Y-32782858D01*
X249733000Y-32939925D01*
X249733000Y-33100075D01*
X249701758Y-33257142D01*
X249640471Y-33405101D01*
X249551501Y-33538255D01*
X249438255Y-33651501D01*
X249305101Y-33740471D01*
X249157142Y-33801758D01*
X249000075Y-33833000D01*
X248839925Y-33833000D01*
X248682858Y-33801758D01*
X248534899Y-33740471D01*
X248401745Y-33651501D01*
X248288499Y-33538255D01*
X248199529Y-33405101D01*
X248138242Y-33257142D01*
X248107000Y-33100075D01*
X248107000Y-32939925D01*
X248138242Y-32782858D01*
X248199529Y-32634899D01*
X248288499Y-32501745D01*
X248401745Y-32388499D01*
X248534899Y-32299529D01*
X248682858Y-32238242D01*
X248839925Y-32207000D01*
X249000075Y-32207000D01*
X249157142Y-32238242D01*
G37*
G36*
X233917142Y-29698242D02*
G01*
X234065101Y-29759529D01*
X234198255Y-29848499D01*
X234311501Y-29961745D01*
X234400471Y-30094899D01*
X234461758Y-30242858D01*
X234493000Y-30399925D01*
X234493000Y-30560075D01*
X234461758Y-30717142D01*
X234400471Y-30865101D01*
X234311501Y-30998255D01*
X234198255Y-31111501D01*
X234065101Y-31200471D01*
X233917142Y-31261758D01*
X233760075Y-31293000D01*
X233599925Y-31293000D01*
X233442858Y-31261758D01*
X233294899Y-31200471D01*
X233161745Y-31111501D01*
X233048499Y-30998255D01*
X232959529Y-30865101D01*
X232898242Y-30717142D01*
X232867000Y-30560075D01*
X232867000Y-30399925D01*
X232898242Y-30242858D01*
X232959529Y-30094899D01*
X233048499Y-29961745D01*
X233161745Y-29848499D01*
X233294899Y-29759529D01*
X233442858Y-29698242D01*
X233599925Y-29667000D01*
X233760075Y-29667000D01*
X233917142Y-29698242D01*
G37*
G36*
X249157142Y-29698242D02*
G01*
X249305101Y-29759529D01*
X249438255Y-29848499D01*
X249551501Y-29961745D01*
X249640471Y-30094899D01*
X249701758Y-30242858D01*
X249733000Y-30399925D01*
X249733000Y-30560075D01*
X249701758Y-30717142D01*
X249640471Y-30865101D01*
X249551501Y-30998255D01*
X249438255Y-31111501D01*
X249305101Y-31200471D01*
X249157142Y-31261758D01*
X249000075Y-31293000D01*
X248839925Y-31293000D01*
X248682858Y-31261758D01*
X248534899Y-31200471D01*
X248401745Y-31111501D01*
X248288499Y-30998255D01*
X248199529Y-30865101D01*
X248138242Y-30717142D01*
X248107000Y-30560075D01*
X248107000Y-30399925D01*
X248138242Y-30242858D01*
X248199529Y-30094899D01*
X248288499Y-29961745D01*
X248401745Y-29848499D01*
X248534899Y-29759529D01*
X248682858Y-29698242D01*
X248839925Y-29667000D01*
X249000075Y-29667000D01*
X249157142Y-29698242D01*
G37*
G36*
X269546564Y-27579389D02*
G01*
X269737833Y-27658615D01*
X269737835Y-27658616D01*
X269909973Y-27773635D01*
X270056365Y-27920027D01*
X270171385Y-28092167D01*
X270250611Y-28283436D01*
X270291000Y-28486484D01*
X270291000Y-28693516D01*
X270250611Y-28896564D01*
X270171385Y-29087833D01*
X270171384Y-29087835D01*
X270056365Y-29259973D01*
X269909973Y-29406365D01*
X269737835Y-29521384D01*
X269737834Y-29521385D01*
X269737833Y-29521385D01*
X269546564Y-29600611D01*
X269343516Y-29641000D01*
X269136484Y-29641000D01*
X268933436Y-29600611D01*
X268742167Y-29521385D01*
X268742166Y-29521385D01*
X268742165Y-29521384D01*
X268570027Y-29406365D01*
X268423635Y-29259973D01*
X268308616Y-29087835D01*
X268308615Y-29087833D01*
X268229389Y-28896564D01*
X268189000Y-28693516D01*
X268189000Y-28486484D01*
X268229389Y-28283436D01*
X268308615Y-28092167D01*
X268423635Y-27920027D01*
X268570027Y-27773635D01*
X268742165Y-27658616D01*
X268742167Y-27658615D01*
X268933436Y-27579389D01*
X269136484Y-27539000D01*
X269343516Y-27539000D01*
X269546564Y-27579389D01*
G37*
G36*
X282246564Y-27579389D02*
G01*
X282437833Y-27658615D01*
X282437835Y-27658616D01*
X282609973Y-27773635D01*
X282756365Y-27920027D01*
X282871385Y-28092167D01*
X282950611Y-28283436D01*
X282991000Y-28486484D01*
X282991000Y-28693516D01*
X282950611Y-28896564D01*
X282871385Y-29087833D01*
X282871384Y-29087835D01*
X282756365Y-29259973D01*
X282609973Y-29406365D01*
X282437835Y-29521384D01*
X282437834Y-29521385D01*
X282437833Y-29521385D01*
X282246564Y-29600611D01*
X282043516Y-29641000D01*
X281836484Y-29641000D01*
X281633436Y-29600611D01*
X281442167Y-29521385D01*
X281442166Y-29521385D01*
X281442165Y-29521384D01*
X281270027Y-29406365D01*
X281123635Y-29259973D01*
X281008616Y-29087835D01*
X281008615Y-29087833D01*
X280929389Y-28896564D01*
X280889000Y-28693516D01*
X280889000Y-28486484D01*
X280929389Y-28283436D01*
X281008615Y-28092167D01*
X281123635Y-27920027D01*
X281270027Y-27773635D01*
X281442165Y-27658616D01*
X281442167Y-27658615D01*
X281633436Y-27579389D01*
X281836484Y-27539000D01*
X282043516Y-27539000D01*
X282246564Y-27579389D01*
G37*
G36*
X275896564Y-27579389D02*
G01*
X276087833Y-27658615D01*
X276087835Y-27658616D01*
X276259973Y-27773635D01*
X276406365Y-27920027D01*
X276521385Y-28092167D01*
X276600611Y-28283436D01*
X276641000Y-28486484D01*
X276641000Y-28693516D01*
X276600611Y-28896564D01*
X276521385Y-29087833D01*
X276521384Y-29087835D01*
X276406365Y-29259973D01*
X276259973Y-29406365D01*
X276087835Y-29521384D01*
X276087834Y-29521385D01*
X276087833Y-29521385D01*
X275896564Y-29600611D01*
X275693516Y-29641000D01*
X275486484Y-29641000D01*
X275283436Y-29600611D01*
X275092167Y-29521385D01*
X275092166Y-29521385D01*
X275092165Y-29521384D01*
X274920027Y-29406365D01*
X274773635Y-29259973D01*
X274658616Y-29087835D01*
X274658615Y-29087833D01*
X274579389Y-28896564D01*
X274539000Y-28693516D01*
X274539000Y-28486484D01*
X274579389Y-28283436D01*
X274658615Y-28092167D01*
X274773635Y-27920027D01*
X274920027Y-27773635D01*
X275092165Y-27658616D01*
X275092167Y-27658615D01*
X275283436Y-27579389D01*
X275486484Y-27539000D01*
X275693516Y-27539000D01*
X275896564Y-27579389D01*
G37*
G36*
X249157142Y-27158242D02*
G01*
X249305101Y-27219529D01*
X249438255Y-27308499D01*
X249551501Y-27421745D01*
X249640471Y-27554899D01*
X249701758Y-27702858D01*
X249733000Y-27859925D01*
X249733000Y-28020075D01*
X249701758Y-28177142D01*
X249640471Y-28325101D01*
X249551501Y-28458255D01*
X249438255Y-28571501D01*
X249305101Y-28660471D01*
X249157142Y-28721758D01*
X249000075Y-28753000D01*
X248839925Y-28753000D01*
X248682858Y-28721758D01*
X248534899Y-28660471D01*
X248401745Y-28571501D01*
X248288499Y-28458255D01*
X248199529Y-28325101D01*
X248138242Y-28177142D01*
X248107000Y-28020075D01*
X248107000Y-27859925D01*
X248138242Y-27702858D01*
X248199529Y-27554899D01*
X248288499Y-27421745D01*
X248401745Y-27308499D01*
X248534899Y-27219529D01*
X248682858Y-27158242D01*
X248839925Y-27127000D01*
X249000075Y-27127000D01*
X249157142Y-27158242D01*
G37*
G36*
X233917142Y-27158242D02*
G01*
X234065101Y-27219529D01*
X234198255Y-27308499D01*
X234311501Y-27421745D01*
X234400471Y-27554899D01*
X234461758Y-27702858D01*
X234493000Y-27859925D01*
X234493000Y-28020075D01*
X234461758Y-28177142D01*
X234400471Y-28325101D01*
X234311501Y-28458255D01*
X234198255Y-28571501D01*
X234065101Y-28660471D01*
X233917142Y-28721758D01*
X233760075Y-28753000D01*
X233599925Y-28753000D01*
X233442858Y-28721758D01*
X233294899Y-28660471D01*
X233161745Y-28571501D01*
X233048499Y-28458255D01*
X232959529Y-28325101D01*
X232898242Y-28177142D01*
X232867000Y-28020075D01*
X232867000Y-27859925D01*
X232898242Y-27702858D01*
X232959529Y-27554899D01*
X233048499Y-27421745D01*
X233161745Y-27308499D01*
X233294899Y-27219529D01*
X233442858Y-27158242D01*
X233599925Y-27127000D01*
X233760075Y-27127000D01*
X233917142Y-27158242D01*
G37*
G36*
X249157142Y-24618242D02*
G01*
X249305101Y-24679529D01*
X249438255Y-24768499D01*
X249551501Y-24881745D01*
X249640471Y-25014899D01*
X249701758Y-25162858D01*
X249733000Y-25319925D01*
X249733000Y-25480075D01*
X249701758Y-25637142D01*
X249640471Y-25785101D01*
X249551501Y-25918255D01*
X249438255Y-26031501D01*
X249305101Y-26120471D01*
X249157142Y-26181758D01*
X249000075Y-26213000D01*
X248839925Y-26213000D01*
X248682858Y-26181758D01*
X248534899Y-26120471D01*
X248401745Y-26031501D01*
X248288499Y-25918255D01*
X248199529Y-25785101D01*
X248138242Y-25637142D01*
X248107000Y-25480075D01*
X248107000Y-25319925D01*
X248138242Y-25162858D01*
X248199529Y-25014899D01*
X248288499Y-24881745D01*
X248401745Y-24768499D01*
X248534899Y-24679529D01*
X248682858Y-24618242D01*
X248839925Y-24587000D01*
X249000075Y-24587000D01*
X249157142Y-24618242D01*
G37*
G36*
X233917142Y-24618242D02*
G01*
X234065101Y-24679529D01*
X234198255Y-24768499D01*
X234311501Y-24881745D01*
X234400471Y-25014899D01*
X234461758Y-25162858D01*
X234493000Y-25319925D01*
X234493000Y-25480075D01*
X234461758Y-25637142D01*
X234400471Y-25785101D01*
X234311501Y-25918255D01*
X234198255Y-26031501D01*
X234065101Y-26120471D01*
X233917142Y-26181758D01*
X233760075Y-26213000D01*
X233599925Y-26213000D01*
X233442858Y-26181758D01*
X233294899Y-26120471D01*
X233161745Y-26031501D01*
X233048499Y-25918255D01*
X232959529Y-25785101D01*
X232898242Y-25637142D01*
X232867000Y-25480075D01*
X232867000Y-25319925D01*
X232898242Y-25162858D01*
X232959529Y-25014899D01*
X233048499Y-24881745D01*
X233161745Y-24768499D01*
X233294899Y-24679529D01*
X233442858Y-24618242D01*
X233599925Y-24587000D01*
X233760075Y-24587000D01*
X233917142Y-24618242D01*
G37*
G36*
X233917142Y-22078242D02*
G01*
X234065101Y-22139529D01*
X234198255Y-22228499D01*
X234311501Y-22341745D01*
X234400471Y-22474899D01*
X234461758Y-22622858D01*
X234493000Y-22779925D01*
X234493000Y-22940075D01*
X234461758Y-23097142D01*
X234400471Y-23245101D01*
X234311501Y-23378255D01*
X234198255Y-23491501D01*
X234065101Y-23580471D01*
X233917142Y-23641758D01*
X233760075Y-23673000D01*
X233599925Y-23673000D01*
X233442858Y-23641758D01*
X233294899Y-23580471D01*
X233161745Y-23491501D01*
X233048499Y-23378255D01*
X232959529Y-23245101D01*
X232898242Y-23097142D01*
X232867000Y-22940075D01*
X232867000Y-22779925D01*
X232898242Y-22622858D01*
X232959529Y-22474899D01*
X233048499Y-22341745D01*
X233161745Y-22228499D01*
X233294899Y-22139529D01*
X233442858Y-22078242D01*
X233599925Y-22047000D01*
X233760075Y-22047000D01*
X233917142Y-22078242D01*
G37*
G36*
X249157142Y-22078242D02*
G01*
X249305101Y-22139529D01*
X249438255Y-22228499D01*
X249551501Y-22341745D01*
X249640471Y-22474899D01*
X249701758Y-22622858D01*
X249733000Y-22779925D01*
X249733000Y-22940075D01*
X249701758Y-23097142D01*
X249640471Y-23245101D01*
X249551501Y-23378255D01*
X249438255Y-23491501D01*
X249305101Y-23580471D01*
X249157142Y-23641758D01*
X249000075Y-23673000D01*
X248839925Y-23673000D01*
X248682858Y-23641758D01*
X248534899Y-23580471D01*
X248401745Y-23491501D01*
X248288499Y-23378255D01*
X248199529Y-23245101D01*
X248138242Y-23097142D01*
X248107000Y-22940075D01*
X248107000Y-22779925D01*
X248138242Y-22622858D01*
X248199529Y-22474899D01*
X248288499Y-22341745D01*
X248401745Y-22228499D01*
X248534899Y-22139529D01*
X248682858Y-22078242D01*
X248839925Y-22047000D01*
X249000075Y-22047000D01*
X249157142Y-22078242D01*
G37*
G36*
X233917142Y-19538242D02*
G01*
X234065101Y-19599529D01*
X234198255Y-19688499D01*
X234311501Y-19801745D01*
X234400471Y-19934899D01*
X234461758Y-20082858D01*
X234493000Y-20239925D01*
X234493000Y-20400075D01*
X234461758Y-20557142D01*
X234400471Y-20705101D01*
X234311501Y-20838255D01*
X234198255Y-20951501D01*
X234065101Y-21040471D01*
X233917142Y-21101758D01*
X233760075Y-21133000D01*
X233599925Y-21133000D01*
X233442858Y-21101758D01*
X233294899Y-21040471D01*
X233161745Y-20951501D01*
X233048499Y-20838255D01*
X232959529Y-20705101D01*
X232898242Y-20557142D01*
X232867000Y-20400075D01*
X232867000Y-20239925D01*
X232898242Y-20082858D01*
X232959529Y-19934899D01*
X233048499Y-19801745D01*
X233161745Y-19688499D01*
X233294899Y-19599529D01*
X233442858Y-19538242D01*
X233599925Y-19507000D01*
X233760075Y-19507000D01*
X233917142Y-19538242D01*
G37*
G36*
X249157142Y-19538242D02*
G01*
X249305101Y-19599529D01*
X249438255Y-19688499D01*
X249551501Y-19801745D01*
X249640471Y-19934899D01*
X249701758Y-20082858D01*
X249733000Y-20239925D01*
X249733000Y-20400075D01*
X249701758Y-20557142D01*
X249640471Y-20705101D01*
X249551501Y-20838255D01*
X249438255Y-20951501D01*
X249305101Y-21040471D01*
X249157142Y-21101758D01*
X249000075Y-21133000D01*
X248839925Y-21133000D01*
X248682858Y-21101758D01*
X248534899Y-21040471D01*
X248401745Y-20951501D01*
X248288499Y-20838255D01*
X248199529Y-20705101D01*
X248138242Y-20557142D01*
X248107000Y-20400075D01*
X248107000Y-20239925D01*
X248138242Y-20082858D01*
X248199529Y-19934899D01*
X248288499Y-19801745D01*
X248401745Y-19688499D01*
X248534899Y-19599529D01*
X248682858Y-19538242D01*
X248839925Y-19507000D01*
X249000075Y-19507000D01*
X249157142Y-19538242D01*
G37*
G36*
X233917142Y-16998242D02*
G01*
X234065101Y-17059529D01*
X234198255Y-17148499D01*
X234311501Y-17261745D01*
X234400471Y-17394899D01*
X234461758Y-17542858D01*
X234493000Y-17699925D01*
X234493000Y-17860075D01*
X234461758Y-18017142D01*
X234400471Y-18165101D01*
X234311501Y-18298255D01*
X234198255Y-18411501D01*
X234065101Y-18500471D01*
X233917142Y-18561758D01*
X233760075Y-18593000D01*
X233599925Y-18593000D01*
X233442858Y-18561758D01*
X233294899Y-18500471D01*
X233161745Y-18411501D01*
X233048499Y-18298255D01*
X232959529Y-18165101D01*
X232898242Y-18017142D01*
X232867000Y-17860075D01*
X232867000Y-17699925D01*
X232898242Y-17542858D01*
X232959529Y-17394899D01*
X233048499Y-17261745D01*
X233161745Y-17148499D01*
X233294899Y-17059529D01*
X233442858Y-16998242D01*
X233599925Y-16967000D01*
X233760075Y-16967000D01*
X233917142Y-16998242D01*
G37*
G36*
X249157142Y-16998242D02*
G01*
X249305101Y-17059529D01*
X249438255Y-17148499D01*
X249551501Y-17261745D01*
X249640471Y-17394899D01*
X249701758Y-17542858D01*
X249733000Y-17699925D01*
X249733000Y-17860075D01*
X249701758Y-18017142D01*
X249640471Y-18165101D01*
X249551501Y-18298255D01*
X249438255Y-18411501D01*
X249305101Y-18500471D01*
X249157142Y-18561758D01*
X249000075Y-18593000D01*
X248839925Y-18593000D01*
X248682858Y-18561758D01*
X248534899Y-18500471D01*
X248401745Y-18411501D01*
X248288499Y-18298255D01*
X248199529Y-18165101D01*
X248138242Y-18017142D01*
X248107000Y-17860075D01*
X248107000Y-17699925D01*
X248138242Y-17542858D01*
X248199529Y-17394899D01*
X248288499Y-17261745D01*
X248401745Y-17148499D01*
X248534899Y-17059529D01*
X248682858Y-16998242D01*
X248839925Y-16967000D01*
X249000075Y-16967000D01*
X249157142Y-16998242D01*
G37*
M02*
