G04 #@! TF.GenerationSoftware,KiCad,Pcbnew,5.1.5-52549c5~84~ubuntu18.04.1*
G04 #@! TF.CreationDate,2020-03-07T09:10:50-05:00*
G04 #@! TF.ProjectId,pedal-controller,70656461-6c2d-4636-9f6e-74726f6c6c65,rev?*
G04 #@! TF.SameCoordinates,Original*
G04 #@! TF.FileFunction,Soldermask,Top*
G04 #@! TF.FilePolarity,Negative*
%FSLAX46Y46*%
G04 Gerber Fmt 4.6, Leading zero omitted, Abs format (unit mm)*
G04 Created by KiCad (PCBNEW 5.1.5-52549c5~84~ubuntu18.04.1) date 2020-03-07 09:10:50*
%MOMM*%
%LPD*%
G04 APERTURE LIST*
%ADD10C,0.100000*%
G04 APERTURE END LIST*
D10*
G36*
X145378254Y-104707818D02*
G01*
X145751511Y-104862426D01*
X145751513Y-104862427D01*
X146087436Y-105086884D01*
X146373116Y-105372564D01*
X146479760Y-105532167D01*
X146597574Y-105708489D01*
X146752182Y-106081746D01*
X146831000Y-106477993D01*
X146831000Y-106882007D01*
X146752182Y-107278254D01*
X146597574Y-107651511D01*
X146597573Y-107651513D01*
X146373116Y-107987436D01*
X146087436Y-108273116D01*
X145751513Y-108497573D01*
X145751512Y-108497574D01*
X145751511Y-108497574D01*
X145378254Y-108652182D01*
X144982007Y-108731000D01*
X144577993Y-108731000D01*
X144181746Y-108652182D01*
X143808489Y-108497574D01*
X143808488Y-108497574D01*
X143808487Y-108497573D01*
X143472564Y-108273116D01*
X143186884Y-107987436D01*
X142962427Y-107651513D01*
X142962426Y-107651511D01*
X142807818Y-107278254D01*
X142729000Y-106882007D01*
X142729000Y-106477993D01*
X142807818Y-106081746D01*
X142962426Y-105708489D01*
X143080241Y-105532167D01*
X143186884Y-105372564D01*
X143472564Y-105086884D01*
X143808487Y-104862427D01*
X143808489Y-104862426D01*
X144181746Y-104707818D01*
X144577993Y-104629000D01*
X144982007Y-104629000D01*
X145378254Y-104707818D01*
G37*
G36*
X167946564Y-105019389D02*
G01*
X168137833Y-105098615D01*
X168137835Y-105098616D01*
X168309973Y-105213635D01*
X168456365Y-105360027D01*
X168571385Y-105532167D01*
X168650611Y-105723436D01*
X168691000Y-105926484D01*
X168691000Y-106133516D01*
X168650611Y-106336564D01*
X168592029Y-106477993D01*
X168571384Y-106527835D01*
X168456365Y-106699973D01*
X168309973Y-106846365D01*
X168137835Y-106961384D01*
X168137834Y-106961385D01*
X168137833Y-106961385D01*
X167946564Y-107040611D01*
X167743516Y-107081000D01*
X167536484Y-107081000D01*
X167333436Y-107040611D01*
X167142167Y-106961385D01*
X167142166Y-106961385D01*
X167142165Y-106961384D01*
X166970027Y-106846365D01*
X166823635Y-106699973D01*
X166708616Y-106527835D01*
X166687971Y-106477993D01*
X166629389Y-106336564D01*
X166589000Y-106133516D01*
X166589000Y-105926484D01*
X166629389Y-105723436D01*
X166708615Y-105532167D01*
X166823635Y-105360027D01*
X166970027Y-105213635D01*
X167142165Y-105098616D01*
X167142167Y-105098615D01*
X167333436Y-105019389D01*
X167536484Y-104979000D01*
X167743516Y-104979000D01*
X167946564Y-105019389D01*
G37*
G36*
X155246564Y-105019389D02*
G01*
X155437833Y-105098615D01*
X155437835Y-105098616D01*
X155609973Y-105213635D01*
X155756365Y-105360027D01*
X155871385Y-105532167D01*
X155950611Y-105723436D01*
X155991000Y-105926484D01*
X155991000Y-106133516D01*
X155950611Y-106336564D01*
X155892029Y-106477993D01*
X155871384Y-106527835D01*
X155756365Y-106699973D01*
X155609973Y-106846365D01*
X155437835Y-106961384D01*
X155437834Y-106961385D01*
X155437833Y-106961385D01*
X155246564Y-107040611D01*
X155043516Y-107081000D01*
X154836484Y-107081000D01*
X154633436Y-107040611D01*
X154442167Y-106961385D01*
X154442166Y-106961385D01*
X154442165Y-106961384D01*
X154270027Y-106846365D01*
X154123635Y-106699973D01*
X154008616Y-106527835D01*
X153987971Y-106477993D01*
X153929389Y-106336564D01*
X153889000Y-106133516D01*
X153889000Y-105926484D01*
X153929389Y-105723436D01*
X154008615Y-105532167D01*
X154123635Y-105360027D01*
X154270027Y-105213635D01*
X154442165Y-105098616D01*
X154442167Y-105098615D01*
X154633436Y-105019389D01*
X154836484Y-104979000D01*
X155043516Y-104979000D01*
X155246564Y-105019389D01*
G37*
G36*
X161596564Y-105019389D02*
G01*
X161787833Y-105098615D01*
X161787835Y-105098616D01*
X161959973Y-105213635D01*
X162106365Y-105360027D01*
X162221385Y-105532167D01*
X162300611Y-105723436D01*
X162341000Y-105926484D01*
X162341000Y-106133516D01*
X162300611Y-106336564D01*
X162242029Y-106477993D01*
X162221384Y-106527835D01*
X162106365Y-106699973D01*
X161959973Y-106846365D01*
X161787835Y-106961384D01*
X161787834Y-106961385D01*
X161787833Y-106961385D01*
X161596564Y-107040611D01*
X161393516Y-107081000D01*
X161186484Y-107081000D01*
X160983436Y-107040611D01*
X160792167Y-106961385D01*
X160792166Y-106961385D01*
X160792165Y-106961384D01*
X160620027Y-106846365D01*
X160473635Y-106699973D01*
X160358616Y-106527835D01*
X160337971Y-106477993D01*
X160279389Y-106336564D01*
X160239000Y-106133516D01*
X160239000Y-105926484D01*
X160279389Y-105723436D01*
X160358615Y-105532167D01*
X160473635Y-105360027D01*
X160620027Y-105213635D01*
X160792165Y-105098616D01*
X160792167Y-105098615D01*
X160983436Y-105019389D01*
X161186484Y-104979000D01*
X161393516Y-104979000D01*
X161596564Y-105019389D01*
G37*
G36*
X138667142Y-98278242D02*
G01*
X138815101Y-98339529D01*
X138948255Y-98428499D01*
X139061501Y-98541745D01*
X139150471Y-98674899D01*
X139211758Y-98822858D01*
X139243000Y-98979925D01*
X139243000Y-99140075D01*
X139211758Y-99297142D01*
X139150471Y-99445101D01*
X139061501Y-99578255D01*
X138948255Y-99691501D01*
X138815101Y-99780471D01*
X138667142Y-99841758D01*
X138510075Y-99873000D01*
X138349925Y-99873000D01*
X138192858Y-99841758D01*
X138044899Y-99780471D01*
X137911745Y-99691501D01*
X137798499Y-99578255D01*
X137709529Y-99445101D01*
X137648242Y-99297142D01*
X137617000Y-99140075D01*
X137617000Y-98979925D01*
X137648242Y-98822858D01*
X137709529Y-98674899D01*
X137798499Y-98541745D01*
X137911745Y-98428499D01*
X138044899Y-98339529D01*
X138192858Y-98278242D01*
X138349925Y-98247000D01*
X138510075Y-98247000D01*
X138667142Y-98278242D01*
G37*
G36*
X123427142Y-98278242D02*
G01*
X123575101Y-98339529D01*
X123708255Y-98428499D01*
X123821501Y-98541745D01*
X123910471Y-98674899D01*
X123971758Y-98822858D01*
X124003000Y-98979925D01*
X124003000Y-99140075D01*
X123971758Y-99297142D01*
X123910471Y-99445101D01*
X123821501Y-99578255D01*
X123708255Y-99691501D01*
X123575101Y-99780471D01*
X123427142Y-99841758D01*
X123270075Y-99873000D01*
X123109925Y-99873000D01*
X122952858Y-99841758D01*
X122804899Y-99780471D01*
X122671745Y-99691501D01*
X122558499Y-99578255D01*
X122469529Y-99445101D01*
X122408242Y-99297142D01*
X122377000Y-99140075D01*
X122377000Y-98979925D01*
X122408242Y-98822858D01*
X122469529Y-98674899D01*
X122558499Y-98541745D01*
X122671745Y-98428499D01*
X122804899Y-98339529D01*
X122952858Y-98278242D01*
X123109925Y-98247000D01*
X123270075Y-98247000D01*
X123427142Y-98278242D01*
G37*
G36*
X123427142Y-95738242D02*
G01*
X123575101Y-95799529D01*
X123708255Y-95888499D01*
X123821501Y-96001745D01*
X123910471Y-96134899D01*
X123971758Y-96282858D01*
X124003000Y-96439925D01*
X124003000Y-96600075D01*
X123971758Y-96757142D01*
X123910471Y-96905101D01*
X123821501Y-97038255D01*
X123708255Y-97151501D01*
X123575101Y-97240471D01*
X123427142Y-97301758D01*
X123270075Y-97333000D01*
X123109925Y-97333000D01*
X122952858Y-97301758D01*
X122804899Y-97240471D01*
X122671745Y-97151501D01*
X122558499Y-97038255D01*
X122469529Y-96905101D01*
X122408242Y-96757142D01*
X122377000Y-96600075D01*
X122377000Y-96439925D01*
X122408242Y-96282858D01*
X122469529Y-96134899D01*
X122558499Y-96001745D01*
X122671745Y-95888499D01*
X122804899Y-95799529D01*
X122952858Y-95738242D01*
X123109925Y-95707000D01*
X123270075Y-95707000D01*
X123427142Y-95738242D01*
G37*
G36*
X138667142Y-95738242D02*
G01*
X138815101Y-95799529D01*
X138948255Y-95888499D01*
X139061501Y-96001745D01*
X139150471Y-96134899D01*
X139211758Y-96282858D01*
X139243000Y-96439925D01*
X139243000Y-96600075D01*
X139211758Y-96757142D01*
X139150471Y-96905101D01*
X139061501Y-97038255D01*
X138948255Y-97151501D01*
X138815101Y-97240471D01*
X138667142Y-97301758D01*
X138510075Y-97333000D01*
X138349925Y-97333000D01*
X138192858Y-97301758D01*
X138044899Y-97240471D01*
X137911745Y-97151501D01*
X137798499Y-97038255D01*
X137709529Y-96905101D01*
X137648242Y-96757142D01*
X137617000Y-96600075D01*
X137617000Y-96439925D01*
X137648242Y-96282858D01*
X137709529Y-96134899D01*
X137798499Y-96001745D01*
X137911745Y-95888499D01*
X138044899Y-95799529D01*
X138192858Y-95738242D01*
X138349925Y-95707000D01*
X138510075Y-95707000D01*
X138667142Y-95738242D01*
G37*
G36*
X167946564Y-93619389D02*
G01*
X168137833Y-93698615D01*
X168137835Y-93698616D01*
X168309973Y-93813635D01*
X168456365Y-93960027D01*
X168571385Y-94132167D01*
X168650611Y-94323436D01*
X168691000Y-94526484D01*
X168691000Y-94733516D01*
X168650611Y-94936564D01*
X168571385Y-95127833D01*
X168571384Y-95127835D01*
X168456365Y-95299973D01*
X168309973Y-95446365D01*
X168137835Y-95561384D01*
X168137834Y-95561385D01*
X168137833Y-95561385D01*
X167946564Y-95640611D01*
X167743516Y-95681000D01*
X167536484Y-95681000D01*
X167333436Y-95640611D01*
X167142167Y-95561385D01*
X167142166Y-95561385D01*
X167142165Y-95561384D01*
X166970027Y-95446365D01*
X166823635Y-95299973D01*
X166708616Y-95127835D01*
X166708615Y-95127833D01*
X166629389Y-94936564D01*
X166589000Y-94733516D01*
X166589000Y-94526484D01*
X166629389Y-94323436D01*
X166708615Y-94132167D01*
X166823635Y-93960027D01*
X166970027Y-93813635D01*
X167142165Y-93698616D01*
X167142167Y-93698615D01*
X167333436Y-93619389D01*
X167536484Y-93579000D01*
X167743516Y-93579000D01*
X167946564Y-93619389D01*
G37*
G36*
X161596564Y-93619389D02*
G01*
X161787833Y-93698615D01*
X161787835Y-93698616D01*
X161959973Y-93813635D01*
X162106365Y-93960027D01*
X162221385Y-94132167D01*
X162300611Y-94323436D01*
X162341000Y-94526484D01*
X162341000Y-94733516D01*
X162300611Y-94936564D01*
X162221385Y-95127833D01*
X162221384Y-95127835D01*
X162106365Y-95299973D01*
X161959973Y-95446365D01*
X161787835Y-95561384D01*
X161787834Y-95561385D01*
X161787833Y-95561385D01*
X161596564Y-95640611D01*
X161393516Y-95681000D01*
X161186484Y-95681000D01*
X160983436Y-95640611D01*
X160792167Y-95561385D01*
X160792166Y-95561385D01*
X160792165Y-95561384D01*
X160620027Y-95446365D01*
X160473635Y-95299973D01*
X160358616Y-95127835D01*
X160358615Y-95127833D01*
X160279389Y-94936564D01*
X160239000Y-94733516D01*
X160239000Y-94526484D01*
X160279389Y-94323436D01*
X160358615Y-94132167D01*
X160473635Y-93960027D01*
X160620027Y-93813635D01*
X160792165Y-93698616D01*
X160792167Y-93698615D01*
X160983436Y-93619389D01*
X161186484Y-93579000D01*
X161393516Y-93579000D01*
X161596564Y-93619389D01*
G37*
G36*
X155246564Y-93619389D02*
G01*
X155437833Y-93698615D01*
X155437835Y-93698616D01*
X155609973Y-93813635D01*
X155756365Y-93960027D01*
X155871385Y-94132167D01*
X155950611Y-94323436D01*
X155991000Y-94526484D01*
X155991000Y-94733516D01*
X155950611Y-94936564D01*
X155871385Y-95127833D01*
X155871384Y-95127835D01*
X155756365Y-95299973D01*
X155609973Y-95446365D01*
X155437835Y-95561384D01*
X155437834Y-95561385D01*
X155437833Y-95561385D01*
X155246564Y-95640611D01*
X155043516Y-95681000D01*
X154836484Y-95681000D01*
X154633436Y-95640611D01*
X154442167Y-95561385D01*
X154442166Y-95561385D01*
X154442165Y-95561384D01*
X154270027Y-95446365D01*
X154123635Y-95299973D01*
X154008616Y-95127835D01*
X154008615Y-95127833D01*
X153929389Y-94936564D01*
X153889000Y-94733516D01*
X153889000Y-94526484D01*
X153929389Y-94323436D01*
X154008615Y-94132167D01*
X154123635Y-93960027D01*
X154270027Y-93813635D01*
X154442165Y-93698616D01*
X154442167Y-93698615D01*
X154633436Y-93619389D01*
X154836484Y-93579000D01*
X155043516Y-93579000D01*
X155246564Y-93619389D01*
G37*
G36*
X123427142Y-93198242D02*
G01*
X123575101Y-93259529D01*
X123708255Y-93348499D01*
X123821501Y-93461745D01*
X123910471Y-93594899D01*
X123971758Y-93742858D01*
X124003000Y-93899925D01*
X124003000Y-94060075D01*
X123971758Y-94217142D01*
X123910471Y-94365101D01*
X123821501Y-94498255D01*
X123708255Y-94611501D01*
X123575101Y-94700471D01*
X123427142Y-94761758D01*
X123270075Y-94793000D01*
X123109925Y-94793000D01*
X122952858Y-94761758D01*
X122804899Y-94700471D01*
X122671745Y-94611501D01*
X122558499Y-94498255D01*
X122469529Y-94365101D01*
X122408242Y-94217142D01*
X122377000Y-94060075D01*
X122377000Y-93899925D01*
X122408242Y-93742858D01*
X122469529Y-93594899D01*
X122558499Y-93461745D01*
X122671745Y-93348499D01*
X122804899Y-93259529D01*
X122952858Y-93198242D01*
X123109925Y-93167000D01*
X123270075Y-93167000D01*
X123427142Y-93198242D01*
G37*
G36*
X138667142Y-93198242D02*
G01*
X138815101Y-93259529D01*
X138948255Y-93348499D01*
X139061501Y-93461745D01*
X139150471Y-93594899D01*
X139211758Y-93742858D01*
X139243000Y-93899925D01*
X139243000Y-94060075D01*
X139211758Y-94217142D01*
X139150471Y-94365101D01*
X139061501Y-94498255D01*
X138948255Y-94611501D01*
X138815101Y-94700471D01*
X138667142Y-94761758D01*
X138510075Y-94793000D01*
X138349925Y-94793000D01*
X138192858Y-94761758D01*
X138044899Y-94700471D01*
X137911745Y-94611501D01*
X137798499Y-94498255D01*
X137709529Y-94365101D01*
X137648242Y-94217142D01*
X137617000Y-94060075D01*
X137617000Y-93899925D01*
X137648242Y-93742858D01*
X137709529Y-93594899D01*
X137798499Y-93461745D01*
X137911745Y-93348499D01*
X138044899Y-93259529D01*
X138192858Y-93198242D01*
X138349925Y-93167000D01*
X138510075Y-93167000D01*
X138667142Y-93198242D01*
G37*
G36*
X123427142Y-90658242D02*
G01*
X123575101Y-90719529D01*
X123708255Y-90808499D01*
X123821501Y-90921745D01*
X123910471Y-91054899D01*
X123971758Y-91202858D01*
X124003000Y-91359925D01*
X124003000Y-91520075D01*
X123971758Y-91677142D01*
X123910471Y-91825101D01*
X123821501Y-91958255D01*
X123708255Y-92071501D01*
X123575101Y-92160471D01*
X123427142Y-92221758D01*
X123270075Y-92253000D01*
X123109925Y-92253000D01*
X122952858Y-92221758D01*
X122804899Y-92160471D01*
X122671745Y-92071501D01*
X122558499Y-91958255D01*
X122469529Y-91825101D01*
X122408242Y-91677142D01*
X122377000Y-91520075D01*
X122377000Y-91359925D01*
X122408242Y-91202858D01*
X122469529Y-91054899D01*
X122558499Y-90921745D01*
X122671745Y-90808499D01*
X122804899Y-90719529D01*
X122952858Y-90658242D01*
X123109925Y-90627000D01*
X123270075Y-90627000D01*
X123427142Y-90658242D01*
G37*
G36*
X138667142Y-90658242D02*
G01*
X138815101Y-90719529D01*
X138948255Y-90808499D01*
X139061501Y-90921745D01*
X139150471Y-91054899D01*
X139211758Y-91202858D01*
X139243000Y-91359925D01*
X139243000Y-91520075D01*
X139211758Y-91677142D01*
X139150471Y-91825101D01*
X139061501Y-91958255D01*
X138948255Y-92071501D01*
X138815101Y-92160471D01*
X138667142Y-92221758D01*
X138510075Y-92253000D01*
X138349925Y-92253000D01*
X138192858Y-92221758D01*
X138044899Y-92160471D01*
X137911745Y-92071501D01*
X137798499Y-91958255D01*
X137709529Y-91825101D01*
X137648242Y-91677142D01*
X137617000Y-91520075D01*
X137617000Y-91359925D01*
X137648242Y-91202858D01*
X137709529Y-91054899D01*
X137798499Y-90921745D01*
X137911745Y-90808499D01*
X138044899Y-90719529D01*
X138192858Y-90658242D01*
X138349925Y-90627000D01*
X138510075Y-90627000D01*
X138667142Y-90658242D01*
G37*
G36*
X138667142Y-88118242D02*
G01*
X138815101Y-88179529D01*
X138948255Y-88268499D01*
X139061501Y-88381745D01*
X139150471Y-88514899D01*
X139211758Y-88662858D01*
X139243000Y-88819925D01*
X139243000Y-88980075D01*
X139211758Y-89137142D01*
X139150471Y-89285101D01*
X139061501Y-89418255D01*
X138948255Y-89531501D01*
X138815101Y-89620471D01*
X138667142Y-89681758D01*
X138510075Y-89713000D01*
X138349925Y-89713000D01*
X138192858Y-89681758D01*
X138044899Y-89620471D01*
X137911745Y-89531501D01*
X137798499Y-89418255D01*
X137709529Y-89285101D01*
X137648242Y-89137142D01*
X137617000Y-88980075D01*
X137617000Y-88819925D01*
X137648242Y-88662858D01*
X137709529Y-88514899D01*
X137798499Y-88381745D01*
X137911745Y-88268499D01*
X138044899Y-88179529D01*
X138192858Y-88118242D01*
X138349925Y-88087000D01*
X138510075Y-88087000D01*
X138667142Y-88118242D01*
G37*
G36*
X123427142Y-88118242D02*
G01*
X123575101Y-88179529D01*
X123708255Y-88268499D01*
X123821501Y-88381745D01*
X123910471Y-88514899D01*
X123971758Y-88662858D01*
X124003000Y-88819925D01*
X124003000Y-88980075D01*
X123971758Y-89137142D01*
X123910471Y-89285101D01*
X123821501Y-89418255D01*
X123708255Y-89531501D01*
X123575101Y-89620471D01*
X123427142Y-89681758D01*
X123270075Y-89713000D01*
X123109925Y-89713000D01*
X122952858Y-89681758D01*
X122804899Y-89620471D01*
X122671745Y-89531501D01*
X122558499Y-89418255D01*
X122469529Y-89285101D01*
X122408242Y-89137142D01*
X122377000Y-88980075D01*
X122377000Y-88819925D01*
X122408242Y-88662858D01*
X122469529Y-88514899D01*
X122558499Y-88381745D01*
X122671745Y-88268499D01*
X122804899Y-88179529D01*
X122952858Y-88118242D01*
X123109925Y-88087000D01*
X123270075Y-88087000D01*
X123427142Y-88118242D01*
G37*
G36*
X161596564Y-87239389D02*
G01*
X161787833Y-87318615D01*
X161787835Y-87318616D01*
X161959973Y-87433635D01*
X162106365Y-87580027D01*
X162221385Y-87752167D01*
X162300611Y-87943436D01*
X162341000Y-88146484D01*
X162341000Y-88353516D01*
X162300611Y-88556564D01*
X162221385Y-88747833D01*
X162221384Y-88747835D01*
X162106365Y-88919973D01*
X161959973Y-89066365D01*
X161787835Y-89181384D01*
X161787834Y-89181385D01*
X161787833Y-89181385D01*
X161596564Y-89260611D01*
X161393516Y-89301000D01*
X161186484Y-89301000D01*
X160983436Y-89260611D01*
X160792167Y-89181385D01*
X160792166Y-89181385D01*
X160792165Y-89181384D01*
X160620027Y-89066365D01*
X160473635Y-88919973D01*
X160358616Y-88747835D01*
X160358615Y-88747833D01*
X160279389Y-88556564D01*
X160239000Y-88353516D01*
X160239000Y-88146484D01*
X160279389Y-87943436D01*
X160358615Y-87752167D01*
X160473635Y-87580027D01*
X160620027Y-87433635D01*
X160792165Y-87318616D01*
X160792167Y-87318615D01*
X160983436Y-87239389D01*
X161186484Y-87199000D01*
X161393516Y-87199000D01*
X161596564Y-87239389D01*
G37*
G36*
X167946564Y-87239389D02*
G01*
X168137833Y-87318615D01*
X168137835Y-87318616D01*
X168309973Y-87433635D01*
X168456365Y-87580027D01*
X168571385Y-87752167D01*
X168650611Y-87943436D01*
X168691000Y-88146484D01*
X168691000Y-88353516D01*
X168650611Y-88556564D01*
X168571385Y-88747833D01*
X168571384Y-88747835D01*
X168456365Y-88919973D01*
X168309973Y-89066365D01*
X168137835Y-89181384D01*
X168137834Y-89181385D01*
X168137833Y-89181385D01*
X167946564Y-89260611D01*
X167743516Y-89301000D01*
X167536484Y-89301000D01*
X167333436Y-89260611D01*
X167142167Y-89181385D01*
X167142166Y-89181385D01*
X167142165Y-89181384D01*
X166970027Y-89066365D01*
X166823635Y-88919973D01*
X166708616Y-88747835D01*
X166708615Y-88747833D01*
X166629389Y-88556564D01*
X166589000Y-88353516D01*
X166589000Y-88146484D01*
X166629389Y-87943436D01*
X166708615Y-87752167D01*
X166823635Y-87580027D01*
X166970027Y-87433635D01*
X167142165Y-87318616D01*
X167142167Y-87318615D01*
X167333436Y-87239389D01*
X167536484Y-87199000D01*
X167743516Y-87199000D01*
X167946564Y-87239389D01*
G37*
G36*
X155246564Y-87239389D02*
G01*
X155437833Y-87318615D01*
X155437835Y-87318616D01*
X155609973Y-87433635D01*
X155756365Y-87580027D01*
X155871385Y-87752167D01*
X155950611Y-87943436D01*
X155991000Y-88146484D01*
X155991000Y-88353516D01*
X155950611Y-88556564D01*
X155871385Y-88747833D01*
X155871384Y-88747835D01*
X155756365Y-88919973D01*
X155609973Y-89066365D01*
X155437835Y-89181384D01*
X155437834Y-89181385D01*
X155437833Y-89181385D01*
X155246564Y-89260611D01*
X155043516Y-89301000D01*
X154836484Y-89301000D01*
X154633436Y-89260611D01*
X154442167Y-89181385D01*
X154442166Y-89181385D01*
X154442165Y-89181384D01*
X154270027Y-89066365D01*
X154123635Y-88919973D01*
X154008616Y-88747835D01*
X154008615Y-88747833D01*
X153929389Y-88556564D01*
X153889000Y-88353516D01*
X153889000Y-88146484D01*
X153929389Y-87943436D01*
X154008615Y-87752167D01*
X154123635Y-87580027D01*
X154270027Y-87433635D01*
X154442165Y-87318616D01*
X154442167Y-87318615D01*
X154633436Y-87239389D01*
X154836484Y-87199000D01*
X155043516Y-87199000D01*
X155246564Y-87239389D01*
G37*
G36*
X138667142Y-85578242D02*
G01*
X138815101Y-85639529D01*
X138948255Y-85728499D01*
X139061501Y-85841745D01*
X139150471Y-85974899D01*
X139211758Y-86122858D01*
X139243000Y-86279925D01*
X139243000Y-86440075D01*
X139211758Y-86597142D01*
X139150471Y-86745101D01*
X139061501Y-86878255D01*
X138948255Y-86991501D01*
X138815101Y-87080471D01*
X138667142Y-87141758D01*
X138510075Y-87173000D01*
X138349925Y-87173000D01*
X138192858Y-87141758D01*
X138044899Y-87080471D01*
X137911745Y-86991501D01*
X137798499Y-86878255D01*
X137709529Y-86745101D01*
X137648242Y-86597142D01*
X137617000Y-86440075D01*
X137617000Y-86279925D01*
X137648242Y-86122858D01*
X137709529Y-85974899D01*
X137798499Y-85841745D01*
X137911745Y-85728499D01*
X138044899Y-85639529D01*
X138192858Y-85578242D01*
X138349925Y-85547000D01*
X138510075Y-85547000D01*
X138667142Y-85578242D01*
G37*
G36*
X123427142Y-85578242D02*
G01*
X123575101Y-85639529D01*
X123708255Y-85728499D01*
X123821501Y-85841745D01*
X123910471Y-85974899D01*
X123971758Y-86122858D01*
X124003000Y-86279925D01*
X124003000Y-86440075D01*
X123971758Y-86597142D01*
X123910471Y-86745101D01*
X123821501Y-86878255D01*
X123708255Y-86991501D01*
X123575101Y-87080471D01*
X123427142Y-87141758D01*
X123270075Y-87173000D01*
X123109925Y-87173000D01*
X122952858Y-87141758D01*
X122804899Y-87080471D01*
X122671745Y-86991501D01*
X122558499Y-86878255D01*
X122469529Y-86745101D01*
X122408242Y-86597142D01*
X122377000Y-86440075D01*
X122377000Y-86279925D01*
X122408242Y-86122858D01*
X122469529Y-85974899D01*
X122558499Y-85841745D01*
X122671745Y-85728499D01*
X122804899Y-85639529D01*
X122952858Y-85578242D01*
X123109925Y-85547000D01*
X123270075Y-85547000D01*
X123427142Y-85578242D01*
G37*
G36*
X123427142Y-83038242D02*
G01*
X123575101Y-83099529D01*
X123708255Y-83188499D01*
X123821501Y-83301745D01*
X123910471Y-83434899D01*
X123971758Y-83582858D01*
X124003000Y-83739925D01*
X124003000Y-83900075D01*
X123971758Y-84057142D01*
X123910471Y-84205101D01*
X123821501Y-84338255D01*
X123708255Y-84451501D01*
X123575101Y-84540471D01*
X123427142Y-84601758D01*
X123270075Y-84633000D01*
X123109925Y-84633000D01*
X122952858Y-84601758D01*
X122804899Y-84540471D01*
X122671745Y-84451501D01*
X122558499Y-84338255D01*
X122469529Y-84205101D01*
X122408242Y-84057142D01*
X122377000Y-83900075D01*
X122377000Y-83739925D01*
X122408242Y-83582858D01*
X122469529Y-83434899D01*
X122558499Y-83301745D01*
X122671745Y-83188499D01*
X122804899Y-83099529D01*
X122952858Y-83038242D01*
X123109925Y-83007000D01*
X123270075Y-83007000D01*
X123427142Y-83038242D01*
G37*
G36*
X138667142Y-83038242D02*
G01*
X138815101Y-83099529D01*
X138948255Y-83188499D01*
X139061501Y-83301745D01*
X139150471Y-83434899D01*
X139211758Y-83582858D01*
X139243000Y-83739925D01*
X139243000Y-83900075D01*
X139211758Y-84057142D01*
X139150471Y-84205101D01*
X139061501Y-84338255D01*
X138948255Y-84451501D01*
X138815101Y-84540471D01*
X138667142Y-84601758D01*
X138510075Y-84633000D01*
X138349925Y-84633000D01*
X138192858Y-84601758D01*
X138044899Y-84540471D01*
X137911745Y-84451501D01*
X137798499Y-84338255D01*
X137709529Y-84205101D01*
X137648242Y-84057142D01*
X137617000Y-83900075D01*
X137617000Y-83739925D01*
X137648242Y-83582858D01*
X137709529Y-83434899D01*
X137798499Y-83301745D01*
X137911745Y-83188499D01*
X138044899Y-83099529D01*
X138192858Y-83038242D01*
X138349925Y-83007000D01*
X138510075Y-83007000D01*
X138667142Y-83038242D01*
G37*
G36*
X127237142Y-80498242D02*
G01*
X127385101Y-80559529D01*
X127518255Y-80648499D01*
X127631501Y-80761745D01*
X127720471Y-80894899D01*
X127781758Y-81042858D01*
X127813000Y-81199925D01*
X127813000Y-81360075D01*
X127781758Y-81517142D01*
X127720471Y-81665101D01*
X127631501Y-81798255D01*
X127518255Y-81911501D01*
X127385101Y-82000471D01*
X127237142Y-82061758D01*
X127080075Y-82093000D01*
X126919925Y-82093000D01*
X126762858Y-82061758D01*
X126614899Y-82000471D01*
X126481745Y-81911501D01*
X126368499Y-81798255D01*
X126279529Y-81665101D01*
X126218242Y-81517142D01*
X126187000Y-81360075D01*
X126187000Y-81199925D01*
X126218242Y-81042858D01*
X126279529Y-80894899D01*
X126368499Y-80761745D01*
X126481745Y-80648499D01*
X126614899Y-80559529D01*
X126762858Y-80498242D01*
X126919925Y-80467000D01*
X127080075Y-80467000D01*
X127237142Y-80498242D01*
G37*
G36*
X123427142Y-80498242D02*
G01*
X123575101Y-80559529D01*
X123708255Y-80648499D01*
X123821501Y-80761745D01*
X123910471Y-80894899D01*
X123971758Y-81042858D01*
X124003000Y-81199925D01*
X124003000Y-81360075D01*
X123971758Y-81517142D01*
X123910471Y-81665101D01*
X123821501Y-81798255D01*
X123708255Y-81911501D01*
X123575101Y-82000471D01*
X123427142Y-82061758D01*
X123270075Y-82093000D01*
X123109925Y-82093000D01*
X122952858Y-82061758D01*
X122804899Y-82000471D01*
X122671745Y-81911501D01*
X122558499Y-81798255D01*
X122469529Y-81665101D01*
X122408242Y-81517142D01*
X122377000Y-81360075D01*
X122377000Y-81199925D01*
X122408242Y-81042858D01*
X122469529Y-80894899D01*
X122558499Y-80761745D01*
X122671745Y-80648499D01*
X122804899Y-80559529D01*
X122952858Y-80498242D01*
X123109925Y-80467000D01*
X123270075Y-80467000D01*
X123427142Y-80498242D01*
G37*
G36*
X134857142Y-80498242D02*
G01*
X135005101Y-80559529D01*
X135138255Y-80648499D01*
X135251501Y-80761745D01*
X135340471Y-80894899D01*
X135401758Y-81042858D01*
X135433000Y-81199925D01*
X135433000Y-81360075D01*
X135401758Y-81517142D01*
X135340471Y-81665101D01*
X135251501Y-81798255D01*
X135138255Y-81911501D01*
X135005101Y-82000471D01*
X134857142Y-82061758D01*
X134700075Y-82093000D01*
X134539925Y-82093000D01*
X134382858Y-82061758D01*
X134234899Y-82000471D01*
X134101745Y-81911501D01*
X133988499Y-81798255D01*
X133899529Y-81665101D01*
X133838242Y-81517142D01*
X133807000Y-81360075D01*
X133807000Y-81199925D01*
X133838242Y-81042858D01*
X133899529Y-80894899D01*
X133988499Y-80761745D01*
X134101745Y-80648499D01*
X134234899Y-80559529D01*
X134382858Y-80498242D01*
X134539925Y-80467000D01*
X134700075Y-80467000D01*
X134857142Y-80498242D01*
G37*
G36*
X138667142Y-80498242D02*
G01*
X138815101Y-80559529D01*
X138948255Y-80648499D01*
X139061501Y-80761745D01*
X139150471Y-80894899D01*
X139211758Y-81042858D01*
X139243000Y-81199925D01*
X139243000Y-81360075D01*
X139211758Y-81517142D01*
X139150471Y-81665101D01*
X139061501Y-81798255D01*
X138948255Y-81911501D01*
X138815101Y-82000471D01*
X138667142Y-82061758D01*
X138510075Y-82093000D01*
X138349925Y-82093000D01*
X138192858Y-82061758D01*
X138044899Y-82000471D01*
X137911745Y-81911501D01*
X137798499Y-81798255D01*
X137709529Y-81665101D01*
X137648242Y-81517142D01*
X137617000Y-81360075D01*
X137617000Y-81199925D01*
X137648242Y-81042858D01*
X137709529Y-80894899D01*
X137798499Y-80761745D01*
X137911745Y-80648499D01*
X138044899Y-80559529D01*
X138192858Y-80498242D01*
X138349925Y-80467000D01*
X138510075Y-80467000D01*
X138667142Y-80498242D01*
G37*
G36*
X123427142Y-77958242D02*
G01*
X123575101Y-78019529D01*
X123708255Y-78108499D01*
X123821501Y-78221745D01*
X123910471Y-78354899D01*
X123971758Y-78502858D01*
X124003000Y-78659925D01*
X124003000Y-78820075D01*
X123971758Y-78977142D01*
X123910471Y-79125101D01*
X123821501Y-79258255D01*
X123708255Y-79371501D01*
X123575101Y-79460471D01*
X123427142Y-79521758D01*
X123270075Y-79553000D01*
X123109925Y-79553000D01*
X122952858Y-79521758D01*
X122804899Y-79460471D01*
X122671745Y-79371501D01*
X122558499Y-79258255D01*
X122469529Y-79125101D01*
X122408242Y-78977142D01*
X122377000Y-78820075D01*
X122377000Y-78659925D01*
X122408242Y-78502858D01*
X122469529Y-78354899D01*
X122558499Y-78221745D01*
X122671745Y-78108499D01*
X122804899Y-78019529D01*
X122952858Y-77958242D01*
X123109925Y-77927000D01*
X123270075Y-77927000D01*
X123427142Y-77958242D01*
G37*
G36*
X127237142Y-77958242D02*
G01*
X127385101Y-78019529D01*
X127518255Y-78108499D01*
X127631501Y-78221745D01*
X127720471Y-78354899D01*
X127781758Y-78502858D01*
X127813000Y-78659925D01*
X127813000Y-78820075D01*
X127781758Y-78977142D01*
X127720471Y-79125101D01*
X127631501Y-79258255D01*
X127518255Y-79371501D01*
X127385101Y-79460471D01*
X127237142Y-79521758D01*
X127080075Y-79553000D01*
X126919925Y-79553000D01*
X126762858Y-79521758D01*
X126614899Y-79460471D01*
X126481745Y-79371501D01*
X126368499Y-79258255D01*
X126279529Y-79125101D01*
X126218242Y-78977142D01*
X126187000Y-78820075D01*
X126187000Y-78659925D01*
X126218242Y-78502858D01*
X126279529Y-78354899D01*
X126368499Y-78221745D01*
X126481745Y-78108499D01*
X126614899Y-78019529D01*
X126762858Y-77958242D01*
X126919925Y-77927000D01*
X127080075Y-77927000D01*
X127237142Y-77958242D01*
G37*
G36*
X138667142Y-77958242D02*
G01*
X138815101Y-78019529D01*
X138948255Y-78108499D01*
X139061501Y-78221745D01*
X139150471Y-78354899D01*
X139211758Y-78502858D01*
X139243000Y-78659925D01*
X139243000Y-78820075D01*
X139211758Y-78977142D01*
X139150471Y-79125101D01*
X139061501Y-79258255D01*
X138948255Y-79371501D01*
X138815101Y-79460471D01*
X138667142Y-79521758D01*
X138510075Y-79553000D01*
X138349925Y-79553000D01*
X138192858Y-79521758D01*
X138044899Y-79460471D01*
X137911745Y-79371501D01*
X137798499Y-79258255D01*
X137709529Y-79125101D01*
X137648242Y-78977142D01*
X137617000Y-78820075D01*
X137617000Y-78659925D01*
X137648242Y-78502858D01*
X137709529Y-78354899D01*
X137798499Y-78221745D01*
X137911745Y-78108499D01*
X138044899Y-78019529D01*
X138192858Y-77958242D01*
X138349925Y-77927000D01*
X138510075Y-77927000D01*
X138667142Y-77958242D01*
G37*
G36*
X134857142Y-77958242D02*
G01*
X135005101Y-78019529D01*
X135138255Y-78108499D01*
X135251501Y-78221745D01*
X135340471Y-78354899D01*
X135401758Y-78502858D01*
X135433000Y-78659925D01*
X135433000Y-78820075D01*
X135401758Y-78977142D01*
X135340471Y-79125101D01*
X135251501Y-79258255D01*
X135138255Y-79371501D01*
X135005101Y-79460471D01*
X134857142Y-79521758D01*
X134700075Y-79553000D01*
X134539925Y-79553000D01*
X134382858Y-79521758D01*
X134234899Y-79460471D01*
X134101745Y-79371501D01*
X133988499Y-79258255D01*
X133899529Y-79125101D01*
X133838242Y-78977142D01*
X133807000Y-78820075D01*
X133807000Y-78659925D01*
X133838242Y-78502858D01*
X133899529Y-78354899D01*
X133988499Y-78221745D01*
X134101745Y-78108499D01*
X134234899Y-78019529D01*
X134382858Y-77958242D01*
X134539925Y-77927000D01*
X134700075Y-77927000D01*
X134857142Y-77958242D01*
G37*
G36*
X155246564Y-75839389D02*
G01*
X155437833Y-75918615D01*
X155437835Y-75918616D01*
X155609973Y-76033635D01*
X155756365Y-76180027D01*
X155871385Y-76352167D01*
X155950611Y-76543436D01*
X155991000Y-76746484D01*
X155991000Y-76953516D01*
X155950611Y-77156564D01*
X155871385Y-77347833D01*
X155871384Y-77347835D01*
X155756365Y-77519973D01*
X155609973Y-77666365D01*
X155437835Y-77781384D01*
X155437834Y-77781385D01*
X155437833Y-77781385D01*
X155246564Y-77860611D01*
X155043516Y-77901000D01*
X154836484Y-77901000D01*
X154633436Y-77860611D01*
X154442167Y-77781385D01*
X154442166Y-77781385D01*
X154442165Y-77781384D01*
X154270027Y-77666365D01*
X154123635Y-77519973D01*
X154008616Y-77347835D01*
X154008615Y-77347833D01*
X153929389Y-77156564D01*
X153889000Y-76953516D01*
X153889000Y-76746484D01*
X153929389Y-76543436D01*
X154008615Y-76352167D01*
X154123635Y-76180027D01*
X154270027Y-76033635D01*
X154442165Y-75918616D01*
X154442167Y-75918615D01*
X154633436Y-75839389D01*
X154836484Y-75799000D01*
X155043516Y-75799000D01*
X155246564Y-75839389D01*
G37*
G36*
X161596564Y-75839389D02*
G01*
X161787833Y-75918615D01*
X161787835Y-75918616D01*
X161959973Y-76033635D01*
X162106365Y-76180027D01*
X162221385Y-76352167D01*
X162300611Y-76543436D01*
X162341000Y-76746484D01*
X162341000Y-76953516D01*
X162300611Y-77156564D01*
X162221385Y-77347833D01*
X162221384Y-77347835D01*
X162106365Y-77519973D01*
X161959973Y-77666365D01*
X161787835Y-77781384D01*
X161787834Y-77781385D01*
X161787833Y-77781385D01*
X161596564Y-77860611D01*
X161393516Y-77901000D01*
X161186484Y-77901000D01*
X160983436Y-77860611D01*
X160792167Y-77781385D01*
X160792166Y-77781385D01*
X160792165Y-77781384D01*
X160620027Y-77666365D01*
X160473635Y-77519973D01*
X160358616Y-77347835D01*
X160358615Y-77347833D01*
X160279389Y-77156564D01*
X160239000Y-76953516D01*
X160239000Y-76746484D01*
X160279389Y-76543436D01*
X160358615Y-76352167D01*
X160473635Y-76180027D01*
X160620027Y-76033635D01*
X160792165Y-75918616D01*
X160792167Y-75918615D01*
X160983436Y-75839389D01*
X161186484Y-75799000D01*
X161393516Y-75799000D01*
X161596564Y-75839389D01*
G37*
G36*
X167946564Y-75839389D02*
G01*
X168137833Y-75918615D01*
X168137835Y-75918616D01*
X168309973Y-76033635D01*
X168456365Y-76180027D01*
X168571385Y-76352167D01*
X168650611Y-76543436D01*
X168691000Y-76746484D01*
X168691000Y-76953516D01*
X168650611Y-77156564D01*
X168571385Y-77347833D01*
X168571384Y-77347835D01*
X168456365Y-77519973D01*
X168309973Y-77666365D01*
X168137835Y-77781384D01*
X168137834Y-77781385D01*
X168137833Y-77781385D01*
X167946564Y-77860611D01*
X167743516Y-77901000D01*
X167536484Y-77901000D01*
X167333436Y-77860611D01*
X167142167Y-77781385D01*
X167142166Y-77781385D01*
X167142165Y-77781384D01*
X166970027Y-77666365D01*
X166823635Y-77519973D01*
X166708616Y-77347835D01*
X166708615Y-77347833D01*
X166629389Y-77156564D01*
X166589000Y-76953516D01*
X166589000Y-76746484D01*
X166629389Y-76543436D01*
X166708615Y-76352167D01*
X166823635Y-76180027D01*
X166970027Y-76033635D01*
X167142165Y-75918616D01*
X167142167Y-75918615D01*
X167333436Y-75839389D01*
X167536484Y-75799000D01*
X167743516Y-75799000D01*
X167946564Y-75839389D01*
G37*
G36*
X138667142Y-75418242D02*
G01*
X138815101Y-75479529D01*
X138948255Y-75568499D01*
X139061501Y-75681745D01*
X139150471Y-75814899D01*
X139211758Y-75962858D01*
X139243000Y-76119925D01*
X139243000Y-76280075D01*
X139211758Y-76437142D01*
X139150471Y-76585101D01*
X139061501Y-76718255D01*
X138948255Y-76831501D01*
X138815101Y-76920471D01*
X138667142Y-76981758D01*
X138510075Y-77013000D01*
X138349925Y-77013000D01*
X138192858Y-76981758D01*
X138044899Y-76920471D01*
X137911745Y-76831501D01*
X137798499Y-76718255D01*
X137709529Y-76585101D01*
X137648242Y-76437142D01*
X137617000Y-76280075D01*
X137617000Y-76119925D01*
X137648242Y-75962858D01*
X137709529Y-75814899D01*
X137798499Y-75681745D01*
X137911745Y-75568499D01*
X138044899Y-75479529D01*
X138192858Y-75418242D01*
X138349925Y-75387000D01*
X138510075Y-75387000D01*
X138667142Y-75418242D01*
G37*
G36*
X127237142Y-75418242D02*
G01*
X127385101Y-75479529D01*
X127518255Y-75568499D01*
X127631501Y-75681745D01*
X127720471Y-75814899D01*
X127781758Y-75962858D01*
X127813000Y-76119925D01*
X127813000Y-76280075D01*
X127781758Y-76437142D01*
X127720471Y-76585101D01*
X127631501Y-76718255D01*
X127518255Y-76831501D01*
X127385101Y-76920471D01*
X127237142Y-76981758D01*
X127080075Y-77013000D01*
X126919925Y-77013000D01*
X126762858Y-76981758D01*
X126614899Y-76920471D01*
X126481745Y-76831501D01*
X126368499Y-76718255D01*
X126279529Y-76585101D01*
X126218242Y-76437142D01*
X126187000Y-76280075D01*
X126187000Y-76119925D01*
X126218242Y-75962858D01*
X126279529Y-75814899D01*
X126368499Y-75681745D01*
X126481745Y-75568499D01*
X126614899Y-75479529D01*
X126762858Y-75418242D01*
X126919925Y-75387000D01*
X127080075Y-75387000D01*
X127237142Y-75418242D01*
G37*
G36*
X134857142Y-75418242D02*
G01*
X135005101Y-75479529D01*
X135138255Y-75568499D01*
X135251501Y-75681745D01*
X135340471Y-75814899D01*
X135401758Y-75962858D01*
X135433000Y-76119925D01*
X135433000Y-76280075D01*
X135401758Y-76437142D01*
X135340471Y-76585101D01*
X135251501Y-76718255D01*
X135138255Y-76831501D01*
X135005101Y-76920471D01*
X134857142Y-76981758D01*
X134700075Y-77013000D01*
X134539925Y-77013000D01*
X134382858Y-76981758D01*
X134234899Y-76920471D01*
X134101745Y-76831501D01*
X133988499Y-76718255D01*
X133899529Y-76585101D01*
X133838242Y-76437142D01*
X133807000Y-76280075D01*
X133807000Y-76119925D01*
X133838242Y-75962858D01*
X133899529Y-75814899D01*
X133988499Y-75681745D01*
X134101745Y-75568499D01*
X134234899Y-75479529D01*
X134382858Y-75418242D01*
X134539925Y-75387000D01*
X134700075Y-75387000D01*
X134857142Y-75418242D01*
G37*
G36*
X123427142Y-75418242D02*
G01*
X123575101Y-75479529D01*
X123708255Y-75568499D01*
X123821501Y-75681745D01*
X123910471Y-75814899D01*
X123971758Y-75962858D01*
X124003000Y-76119925D01*
X124003000Y-76280075D01*
X123971758Y-76437142D01*
X123910471Y-76585101D01*
X123821501Y-76718255D01*
X123708255Y-76831501D01*
X123575101Y-76920471D01*
X123427142Y-76981758D01*
X123270075Y-77013000D01*
X123109925Y-77013000D01*
X122952858Y-76981758D01*
X122804899Y-76920471D01*
X122671745Y-76831501D01*
X122558499Y-76718255D01*
X122469529Y-76585101D01*
X122408242Y-76437142D01*
X122377000Y-76280075D01*
X122377000Y-76119925D01*
X122408242Y-75962858D01*
X122469529Y-75814899D01*
X122558499Y-75681745D01*
X122671745Y-75568499D01*
X122804899Y-75479529D01*
X122952858Y-75418242D01*
X123109925Y-75387000D01*
X123270075Y-75387000D01*
X123427142Y-75418242D01*
G37*
G36*
X138667142Y-72878242D02*
G01*
X138815101Y-72939529D01*
X138948255Y-73028499D01*
X139061501Y-73141745D01*
X139150471Y-73274899D01*
X139211758Y-73422858D01*
X139243000Y-73579925D01*
X139243000Y-73740075D01*
X139211758Y-73897142D01*
X139150471Y-74045101D01*
X139061501Y-74178255D01*
X138948255Y-74291501D01*
X138815101Y-74380471D01*
X138667142Y-74441758D01*
X138510075Y-74473000D01*
X138349925Y-74473000D01*
X138192858Y-74441758D01*
X138044899Y-74380471D01*
X137911745Y-74291501D01*
X137798499Y-74178255D01*
X137709529Y-74045101D01*
X137648242Y-73897142D01*
X137617000Y-73740075D01*
X137617000Y-73579925D01*
X137648242Y-73422858D01*
X137709529Y-73274899D01*
X137798499Y-73141745D01*
X137911745Y-73028499D01*
X138044899Y-72939529D01*
X138192858Y-72878242D01*
X138349925Y-72847000D01*
X138510075Y-72847000D01*
X138667142Y-72878242D01*
G37*
G36*
X123427142Y-72878242D02*
G01*
X123575101Y-72939529D01*
X123708255Y-73028499D01*
X123821501Y-73141745D01*
X123910471Y-73274899D01*
X123971758Y-73422858D01*
X124003000Y-73579925D01*
X124003000Y-73740075D01*
X123971758Y-73897142D01*
X123910471Y-74045101D01*
X123821501Y-74178255D01*
X123708255Y-74291501D01*
X123575101Y-74380471D01*
X123427142Y-74441758D01*
X123270075Y-74473000D01*
X123109925Y-74473000D01*
X122952858Y-74441758D01*
X122804899Y-74380471D01*
X122671745Y-74291501D01*
X122558499Y-74178255D01*
X122469529Y-74045101D01*
X122408242Y-73897142D01*
X122377000Y-73740075D01*
X122377000Y-73579925D01*
X122408242Y-73422858D01*
X122469529Y-73274899D01*
X122558499Y-73141745D01*
X122671745Y-73028499D01*
X122804899Y-72939529D01*
X122952858Y-72878242D01*
X123109925Y-72847000D01*
X123270075Y-72847000D01*
X123427142Y-72878242D01*
G37*
G36*
X138667142Y-70338242D02*
G01*
X138815101Y-70399529D01*
X138948255Y-70488499D01*
X139061501Y-70601745D01*
X139150471Y-70734899D01*
X139211758Y-70882858D01*
X139243000Y-71039925D01*
X139243000Y-71200075D01*
X139211758Y-71357142D01*
X139150471Y-71505101D01*
X139061501Y-71638255D01*
X138948255Y-71751501D01*
X138815101Y-71840471D01*
X138667142Y-71901758D01*
X138510075Y-71933000D01*
X138349925Y-71933000D01*
X138192858Y-71901758D01*
X138044899Y-71840471D01*
X137911745Y-71751501D01*
X137798499Y-71638255D01*
X137709529Y-71505101D01*
X137648242Y-71357142D01*
X137617000Y-71200075D01*
X137617000Y-71039925D01*
X137648242Y-70882858D01*
X137709529Y-70734899D01*
X137798499Y-70601745D01*
X137911745Y-70488499D01*
X138044899Y-70399529D01*
X138192858Y-70338242D01*
X138349925Y-70307000D01*
X138510075Y-70307000D01*
X138667142Y-70338242D01*
G37*
G36*
X123427142Y-70338242D02*
G01*
X123575101Y-70399529D01*
X123708255Y-70488499D01*
X123821501Y-70601745D01*
X123910471Y-70734899D01*
X123971758Y-70882858D01*
X124003000Y-71039925D01*
X124003000Y-71200075D01*
X123971758Y-71357142D01*
X123910471Y-71505101D01*
X123821501Y-71638255D01*
X123708255Y-71751501D01*
X123575101Y-71840471D01*
X123427142Y-71901758D01*
X123270075Y-71933000D01*
X123109925Y-71933000D01*
X122952858Y-71901758D01*
X122804899Y-71840471D01*
X122671745Y-71751501D01*
X122558499Y-71638255D01*
X122469529Y-71505101D01*
X122408242Y-71357142D01*
X122377000Y-71200075D01*
X122377000Y-71039925D01*
X122408242Y-70882858D01*
X122469529Y-70734899D01*
X122558499Y-70601745D01*
X122671745Y-70488499D01*
X122804899Y-70399529D01*
X122952858Y-70338242D01*
X123109925Y-70307000D01*
X123270075Y-70307000D01*
X123427142Y-70338242D01*
G37*
G36*
X167946564Y-69459389D02*
G01*
X168137833Y-69538615D01*
X168137835Y-69538616D01*
X168309973Y-69653635D01*
X168456365Y-69800027D01*
X168571385Y-69972167D01*
X168650611Y-70163436D01*
X168691000Y-70366484D01*
X168691000Y-70573516D01*
X168650611Y-70776564D01*
X168571385Y-70967833D01*
X168571384Y-70967835D01*
X168456365Y-71139973D01*
X168309973Y-71286365D01*
X168137835Y-71401384D01*
X168137834Y-71401385D01*
X168137833Y-71401385D01*
X167946564Y-71480611D01*
X167743516Y-71521000D01*
X167536484Y-71521000D01*
X167333436Y-71480611D01*
X167142167Y-71401385D01*
X167142166Y-71401385D01*
X167142165Y-71401384D01*
X166970027Y-71286365D01*
X166823635Y-71139973D01*
X166708616Y-70967835D01*
X166708615Y-70967833D01*
X166629389Y-70776564D01*
X166589000Y-70573516D01*
X166589000Y-70366484D01*
X166629389Y-70163436D01*
X166708615Y-69972167D01*
X166823635Y-69800027D01*
X166970027Y-69653635D01*
X167142165Y-69538616D01*
X167142167Y-69538615D01*
X167333436Y-69459389D01*
X167536484Y-69419000D01*
X167743516Y-69419000D01*
X167946564Y-69459389D01*
G37*
G36*
X155246564Y-69459389D02*
G01*
X155437833Y-69538615D01*
X155437835Y-69538616D01*
X155609973Y-69653635D01*
X155756365Y-69800027D01*
X155871385Y-69972167D01*
X155950611Y-70163436D01*
X155991000Y-70366484D01*
X155991000Y-70573516D01*
X155950611Y-70776564D01*
X155871385Y-70967833D01*
X155871384Y-70967835D01*
X155756365Y-71139973D01*
X155609973Y-71286365D01*
X155437835Y-71401384D01*
X155437834Y-71401385D01*
X155437833Y-71401385D01*
X155246564Y-71480611D01*
X155043516Y-71521000D01*
X154836484Y-71521000D01*
X154633436Y-71480611D01*
X154442167Y-71401385D01*
X154442166Y-71401385D01*
X154442165Y-71401384D01*
X154270027Y-71286365D01*
X154123635Y-71139973D01*
X154008616Y-70967835D01*
X154008615Y-70967833D01*
X153929389Y-70776564D01*
X153889000Y-70573516D01*
X153889000Y-70366484D01*
X153929389Y-70163436D01*
X154008615Y-69972167D01*
X154123635Y-69800027D01*
X154270027Y-69653635D01*
X154442165Y-69538616D01*
X154442167Y-69538615D01*
X154633436Y-69459389D01*
X154836484Y-69419000D01*
X155043516Y-69419000D01*
X155246564Y-69459389D01*
G37*
G36*
X161596564Y-69459389D02*
G01*
X161787833Y-69538615D01*
X161787835Y-69538616D01*
X161959973Y-69653635D01*
X162106365Y-69800027D01*
X162221385Y-69972167D01*
X162300611Y-70163436D01*
X162341000Y-70366484D01*
X162341000Y-70573516D01*
X162300611Y-70776564D01*
X162221385Y-70967833D01*
X162221384Y-70967835D01*
X162106365Y-71139973D01*
X161959973Y-71286365D01*
X161787835Y-71401384D01*
X161787834Y-71401385D01*
X161787833Y-71401385D01*
X161596564Y-71480611D01*
X161393516Y-71521000D01*
X161186484Y-71521000D01*
X160983436Y-71480611D01*
X160792167Y-71401385D01*
X160792166Y-71401385D01*
X160792165Y-71401384D01*
X160620027Y-71286365D01*
X160473635Y-71139973D01*
X160358616Y-70967835D01*
X160358615Y-70967833D01*
X160279389Y-70776564D01*
X160239000Y-70573516D01*
X160239000Y-70366484D01*
X160279389Y-70163436D01*
X160358615Y-69972167D01*
X160473635Y-69800027D01*
X160620027Y-69653635D01*
X160792165Y-69538616D01*
X160792167Y-69538615D01*
X160983436Y-69459389D01*
X161186484Y-69419000D01*
X161393516Y-69419000D01*
X161596564Y-69459389D01*
G37*
G36*
X123427142Y-67798242D02*
G01*
X123575101Y-67859529D01*
X123708255Y-67948499D01*
X123821501Y-68061745D01*
X123910471Y-68194899D01*
X123971758Y-68342858D01*
X124003000Y-68499925D01*
X124003000Y-68660075D01*
X123971758Y-68817142D01*
X123910471Y-68965101D01*
X123821501Y-69098255D01*
X123708255Y-69211501D01*
X123575101Y-69300471D01*
X123427142Y-69361758D01*
X123270075Y-69393000D01*
X123109925Y-69393000D01*
X122952858Y-69361758D01*
X122804899Y-69300471D01*
X122671745Y-69211501D01*
X122558499Y-69098255D01*
X122469529Y-68965101D01*
X122408242Y-68817142D01*
X122377000Y-68660075D01*
X122377000Y-68499925D01*
X122408242Y-68342858D01*
X122469529Y-68194899D01*
X122558499Y-68061745D01*
X122671745Y-67948499D01*
X122804899Y-67859529D01*
X122952858Y-67798242D01*
X123109925Y-67767000D01*
X123270075Y-67767000D01*
X123427142Y-67798242D01*
G37*
G36*
X138667142Y-67798242D02*
G01*
X138815101Y-67859529D01*
X138948255Y-67948499D01*
X139061501Y-68061745D01*
X139150471Y-68194899D01*
X139211758Y-68342858D01*
X139243000Y-68499925D01*
X139243000Y-68660075D01*
X139211758Y-68817142D01*
X139150471Y-68965101D01*
X139061501Y-69098255D01*
X138948255Y-69211501D01*
X138815101Y-69300471D01*
X138667142Y-69361758D01*
X138510075Y-69393000D01*
X138349925Y-69393000D01*
X138192858Y-69361758D01*
X138044899Y-69300471D01*
X137911745Y-69211501D01*
X137798499Y-69098255D01*
X137709529Y-68965101D01*
X137648242Y-68817142D01*
X137617000Y-68660075D01*
X137617000Y-68499925D01*
X137648242Y-68342858D01*
X137709529Y-68194899D01*
X137798499Y-68061745D01*
X137911745Y-67948499D01*
X138044899Y-67859529D01*
X138192858Y-67798242D01*
X138349925Y-67767000D01*
X138510075Y-67767000D01*
X138667142Y-67798242D01*
G37*
G36*
X123427142Y-65258242D02*
G01*
X123575101Y-65319529D01*
X123708255Y-65408499D01*
X123821501Y-65521745D01*
X123910471Y-65654899D01*
X123971758Y-65802858D01*
X124003000Y-65959925D01*
X124003000Y-66120075D01*
X123971758Y-66277142D01*
X123910471Y-66425101D01*
X123821501Y-66558255D01*
X123708255Y-66671501D01*
X123575101Y-66760471D01*
X123427142Y-66821758D01*
X123270075Y-66853000D01*
X123109925Y-66853000D01*
X122952858Y-66821758D01*
X122804899Y-66760471D01*
X122671745Y-66671501D01*
X122558499Y-66558255D01*
X122469529Y-66425101D01*
X122408242Y-66277142D01*
X122377000Y-66120075D01*
X122377000Y-65959925D01*
X122408242Y-65802858D01*
X122469529Y-65654899D01*
X122558499Y-65521745D01*
X122671745Y-65408499D01*
X122804899Y-65319529D01*
X122952858Y-65258242D01*
X123109925Y-65227000D01*
X123270075Y-65227000D01*
X123427142Y-65258242D01*
G37*
G36*
X138667142Y-65258242D02*
G01*
X138815101Y-65319529D01*
X138948255Y-65408499D01*
X139061501Y-65521745D01*
X139150471Y-65654899D01*
X139211758Y-65802858D01*
X139243000Y-65959925D01*
X139243000Y-66120075D01*
X139211758Y-66277142D01*
X139150471Y-66425101D01*
X139061501Y-66558255D01*
X138948255Y-66671501D01*
X138815101Y-66760471D01*
X138667142Y-66821758D01*
X138510075Y-66853000D01*
X138349925Y-66853000D01*
X138192858Y-66821758D01*
X138044899Y-66760471D01*
X137911745Y-66671501D01*
X137798499Y-66558255D01*
X137709529Y-66425101D01*
X137648242Y-66277142D01*
X137617000Y-66120075D01*
X137617000Y-65959925D01*
X137648242Y-65802858D01*
X137709529Y-65654899D01*
X137798499Y-65521745D01*
X137911745Y-65408499D01*
X138044899Y-65319529D01*
X138192858Y-65258242D01*
X138349925Y-65227000D01*
X138510075Y-65227000D01*
X138667142Y-65258242D01*
G37*
G36*
X123427142Y-62718242D02*
G01*
X123575101Y-62779529D01*
X123708255Y-62868499D01*
X123821501Y-62981745D01*
X123910471Y-63114899D01*
X123971758Y-63262858D01*
X124003000Y-63419925D01*
X124003000Y-63580075D01*
X123971758Y-63737142D01*
X123910471Y-63885101D01*
X123821501Y-64018255D01*
X123708255Y-64131501D01*
X123575101Y-64220471D01*
X123427142Y-64281758D01*
X123270075Y-64313000D01*
X123109925Y-64313000D01*
X122952858Y-64281758D01*
X122804899Y-64220471D01*
X122671745Y-64131501D01*
X122558499Y-64018255D01*
X122469529Y-63885101D01*
X122408242Y-63737142D01*
X122377000Y-63580075D01*
X122377000Y-63419925D01*
X122408242Y-63262858D01*
X122469529Y-63114899D01*
X122558499Y-62981745D01*
X122671745Y-62868499D01*
X122804899Y-62779529D01*
X122952858Y-62718242D01*
X123109925Y-62687000D01*
X123270075Y-62687000D01*
X123427142Y-62718242D01*
G37*
G36*
X138667142Y-62718242D02*
G01*
X138815101Y-62779529D01*
X138948255Y-62868499D01*
X139061501Y-62981745D01*
X139150471Y-63114899D01*
X139211758Y-63262858D01*
X139243000Y-63419925D01*
X139243000Y-63580075D01*
X139211758Y-63737142D01*
X139150471Y-63885101D01*
X139061501Y-64018255D01*
X138948255Y-64131501D01*
X138815101Y-64220471D01*
X138667142Y-64281758D01*
X138510075Y-64313000D01*
X138349925Y-64313000D01*
X138192858Y-64281758D01*
X138044899Y-64220471D01*
X137911745Y-64131501D01*
X137798499Y-64018255D01*
X137709529Y-63885101D01*
X137648242Y-63737142D01*
X137617000Y-63580075D01*
X137617000Y-63419925D01*
X137648242Y-63262858D01*
X137709529Y-63114899D01*
X137798499Y-62981745D01*
X137911745Y-62868499D01*
X138044899Y-62779529D01*
X138192858Y-62718242D01*
X138349925Y-62687000D01*
X138510075Y-62687000D01*
X138667142Y-62718242D01*
G37*
G36*
X138667142Y-60178242D02*
G01*
X138815101Y-60239529D01*
X138948255Y-60328499D01*
X139061501Y-60441745D01*
X139150471Y-60574899D01*
X139211758Y-60722858D01*
X139243000Y-60879925D01*
X139243000Y-61040075D01*
X139211758Y-61197142D01*
X139150471Y-61345101D01*
X139061501Y-61478255D01*
X138948255Y-61591501D01*
X138815101Y-61680471D01*
X138667142Y-61741758D01*
X138510075Y-61773000D01*
X138349925Y-61773000D01*
X138192858Y-61741758D01*
X138044899Y-61680471D01*
X137911745Y-61591501D01*
X137798499Y-61478255D01*
X137709529Y-61345101D01*
X137648242Y-61197142D01*
X137617000Y-61040075D01*
X137617000Y-60879925D01*
X137648242Y-60722858D01*
X137709529Y-60574899D01*
X137798499Y-60441745D01*
X137911745Y-60328499D01*
X138044899Y-60239529D01*
X138192858Y-60178242D01*
X138349925Y-60147000D01*
X138510075Y-60147000D01*
X138667142Y-60178242D01*
G37*
G36*
X123427142Y-60178242D02*
G01*
X123575101Y-60239529D01*
X123708255Y-60328499D01*
X123821501Y-60441745D01*
X123910471Y-60574899D01*
X123971758Y-60722858D01*
X124003000Y-60879925D01*
X124003000Y-61040075D01*
X123971758Y-61197142D01*
X123910471Y-61345101D01*
X123821501Y-61478255D01*
X123708255Y-61591501D01*
X123575101Y-61680471D01*
X123427142Y-61741758D01*
X123270075Y-61773000D01*
X123109925Y-61773000D01*
X122952858Y-61741758D01*
X122804899Y-61680471D01*
X122671745Y-61591501D01*
X122558499Y-61478255D01*
X122469529Y-61345101D01*
X122408242Y-61197142D01*
X122377000Y-61040075D01*
X122377000Y-60879925D01*
X122408242Y-60722858D01*
X122469529Y-60574899D01*
X122558499Y-60441745D01*
X122671745Y-60328499D01*
X122804899Y-60239529D01*
X122952858Y-60178242D01*
X123109925Y-60147000D01*
X123270075Y-60147000D01*
X123427142Y-60178242D01*
G37*
G36*
X145378254Y-57717818D02*
G01*
X145751511Y-57872426D01*
X145751513Y-57872427D01*
X146087436Y-58096884D01*
X146373116Y-58382564D01*
X146556584Y-58657142D01*
X146597574Y-58718489D01*
X146752182Y-59091746D01*
X146831000Y-59487993D01*
X146831000Y-59892007D01*
X146752182Y-60288254D01*
X146688604Y-60441745D01*
X146597573Y-60661513D01*
X146373116Y-60997436D01*
X146087436Y-61283116D01*
X145751513Y-61507573D01*
X145751512Y-61507574D01*
X145751511Y-61507574D01*
X145378254Y-61662182D01*
X144982007Y-61741000D01*
X144577993Y-61741000D01*
X144181746Y-61662182D01*
X143808489Y-61507574D01*
X143808488Y-61507574D01*
X143808487Y-61507573D01*
X143472564Y-61283116D01*
X143186884Y-60997436D01*
X142962427Y-60661513D01*
X142871396Y-60441745D01*
X142807818Y-60288254D01*
X142729000Y-59892007D01*
X142729000Y-59487993D01*
X142807818Y-59091746D01*
X142962426Y-58718489D01*
X143003417Y-58657142D01*
X143186884Y-58382564D01*
X143472564Y-58096884D01*
X143808487Y-57872427D01*
X143808489Y-57872426D01*
X144181746Y-57717818D01*
X144577993Y-57639000D01*
X144982007Y-57639000D01*
X145378254Y-57717818D01*
G37*
G36*
X155246564Y-58059389D02*
G01*
X155437833Y-58138615D01*
X155437835Y-58138616D01*
X155609973Y-58253635D01*
X155756365Y-58400027D01*
X155871385Y-58572167D01*
X155950611Y-58763436D01*
X155991000Y-58966484D01*
X155991000Y-59173516D01*
X155950611Y-59376564D01*
X155904455Y-59487994D01*
X155871384Y-59567835D01*
X155756365Y-59739973D01*
X155609973Y-59886365D01*
X155437835Y-60001384D01*
X155437834Y-60001385D01*
X155437833Y-60001385D01*
X155246564Y-60080611D01*
X155043516Y-60121000D01*
X154836484Y-60121000D01*
X154633436Y-60080611D01*
X154442167Y-60001385D01*
X154442166Y-60001385D01*
X154442165Y-60001384D01*
X154270027Y-59886365D01*
X154123635Y-59739973D01*
X154008616Y-59567835D01*
X153975545Y-59487994D01*
X153929389Y-59376564D01*
X153889000Y-59173516D01*
X153889000Y-58966484D01*
X153929389Y-58763436D01*
X154008615Y-58572167D01*
X154123635Y-58400027D01*
X154270027Y-58253635D01*
X154442165Y-58138616D01*
X154442167Y-58138615D01*
X154633436Y-58059389D01*
X154836484Y-58019000D01*
X155043516Y-58019000D01*
X155246564Y-58059389D01*
G37*
G36*
X161596564Y-58059389D02*
G01*
X161787833Y-58138615D01*
X161787835Y-58138616D01*
X161959973Y-58253635D01*
X162106365Y-58400027D01*
X162221385Y-58572167D01*
X162300611Y-58763436D01*
X162341000Y-58966484D01*
X162341000Y-59173516D01*
X162300611Y-59376564D01*
X162254455Y-59487994D01*
X162221384Y-59567835D01*
X162106365Y-59739973D01*
X161959973Y-59886365D01*
X161787835Y-60001384D01*
X161787834Y-60001385D01*
X161787833Y-60001385D01*
X161596564Y-60080611D01*
X161393516Y-60121000D01*
X161186484Y-60121000D01*
X160983436Y-60080611D01*
X160792167Y-60001385D01*
X160792166Y-60001385D01*
X160792165Y-60001384D01*
X160620027Y-59886365D01*
X160473635Y-59739973D01*
X160358616Y-59567835D01*
X160325545Y-59487994D01*
X160279389Y-59376564D01*
X160239000Y-59173516D01*
X160239000Y-58966484D01*
X160279389Y-58763436D01*
X160358615Y-58572167D01*
X160473635Y-58400027D01*
X160620027Y-58253635D01*
X160792165Y-58138616D01*
X160792167Y-58138615D01*
X160983436Y-58059389D01*
X161186484Y-58019000D01*
X161393516Y-58019000D01*
X161596564Y-58059389D01*
G37*
G36*
X167946564Y-58059389D02*
G01*
X168137833Y-58138615D01*
X168137835Y-58138616D01*
X168309973Y-58253635D01*
X168456365Y-58400027D01*
X168571385Y-58572167D01*
X168650611Y-58763436D01*
X168691000Y-58966484D01*
X168691000Y-59173516D01*
X168650611Y-59376564D01*
X168604455Y-59487994D01*
X168571384Y-59567835D01*
X168456365Y-59739973D01*
X168309973Y-59886365D01*
X168137835Y-60001384D01*
X168137834Y-60001385D01*
X168137833Y-60001385D01*
X167946564Y-60080611D01*
X167743516Y-60121000D01*
X167536484Y-60121000D01*
X167333436Y-60080611D01*
X167142167Y-60001385D01*
X167142166Y-60001385D01*
X167142165Y-60001384D01*
X166970027Y-59886365D01*
X166823635Y-59739973D01*
X166708616Y-59567835D01*
X166675545Y-59487994D01*
X166629389Y-59376564D01*
X166589000Y-59173516D01*
X166589000Y-58966484D01*
X166629389Y-58763436D01*
X166708615Y-58572167D01*
X166823635Y-58400027D01*
X166970027Y-58253635D01*
X167142165Y-58138616D01*
X167142167Y-58138615D01*
X167333436Y-58059389D01*
X167536484Y-58019000D01*
X167743516Y-58019000D01*
X167946564Y-58059389D01*
G37*
G36*
X123427142Y-57638242D02*
G01*
X123575101Y-57699529D01*
X123708255Y-57788499D01*
X123821501Y-57901745D01*
X123910471Y-58034899D01*
X123971758Y-58182858D01*
X124003000Y-58339925D01*
X124003000Y-58500075D01*
X123971758Y-58657142D01*
X123910471Y-58805101D01*
X123821501Y-58938255D01*
X123708255Y-59051501D01*
X123575101Y-59140471D01*
X123427142Y-59201758D01*
X123270075Y-59233000D01*
X123109925Y-59233000D01*
X122952858Y-59201758D01*
X122804899Y-59140471D01*
X122671745Y-59051501D01*
X122558499Y-58938255D01*
X122469529Y-58805101D01*
X122408242Y-58657142D01*
X122377000Y-58500075D01*
X122377000Y-58339925D01*
X122408242Y-58182858D01*
X122469529Y-58034899D01*
X122558499Y-57901745D01*
X122671745Y-57788499D01*
X122804899Y-57699529D01*
X122952858Y-57638242D01*
X123109925Y-57607000D01*
X123270075Y-57607000D01*
X123427142Y-57638242D01*
G37*
G36*
X138667142Y-57638242D02*
G01*
X138815101Y-57699529D01*
X138948255Y-57788499D01*
X139061501Y-57901745D01*
X139150471Y-58034899D01*
X139211758Y-58182858D01*
X139243000Y-58339925D01*
X139243000Y-58500075D01*
X139211758Y-58657142D01*
X139150471Y-58805101D01*
X139061501Y-58938255D01*
X138948255Y-59051501D01*
X138815101Y-59140471D01*
X138667142Y-59201758D01*
X138510075Y-59233000D01*
X138349925Y-59233000D01*
X138192858Y-59201758D01*
X138044899Y-59140471D01*
X137911745Y-59051501D01*
X137798499Y-58938255D01*
X137709529Y-58805101D01*
X137648242Y-58657142D01*
X137617000Y-58500075D01*
X137617000Y-58339925D01*
X137648242Y-58182858D01*
X137709529Y-58034899D01*
X137798499Y-57901745D01*
X137911745Y-57788499D01*
X138044899Y-57699529D01*
X138192858Y-57638242D01*
X138349925Y-57607000D01*
X138510075Y-57607000D01*
X138667142Y-57638242D01*
G37*
M02*
