M48
; DRILL file {KiCad 5.1.5-52549c5~84~ubuntu18.04.1} date Mon 02 Dec 2019 06:11:44 AM EST
; FORMAT={-:-/ absolute / inch / decimal}
; #@! TF.CreationDate,2019-12-02T06:11:44-05:00
; #@! TF.GenerationSoftware,Kicad,Pcbnew,5.1.5-52549c5~84~ubuntu18.04.1
; #@! TF.FileFunction,Plated,1,2,PTH
FMAT,2
INCH
T1C0.0157
T2C0.0300
T3C0.0551
T4C0.1382
%
G90
G05
T1
X6.25Y-3.2
T2
X5.0Y-3.2
X5.3Y-3.2
X5.0Y-3.0
X5.3Y-3.0
X5.0Y-3.1
X5.3Y-3.1
X4.85Y-2.3
X4.85Y-2.4
X4.85Y-2.5
X4.85Y-2.6
X4.85Y-2.7
X4.85Y-2.8
X4.85Y-2.9
X4.85Y-3.0
X4.85Y-3.1
X4.85Y-3.2
X4.85Y-3.3
X4.85Y-3.4
X4.85Y-3.5
X4.85Y-3.6
X4.85Y-3.7
X4.85Y-3.8
X4.85Y-3.9
X5.45Y-2.3
X5.45Y-2.4
X5.45Y-2.5
X5.45Y-2.6
X5.45Y-2.7
X5.45Y-2.8
X5.45Y-2.9
X5.45Y-3.0
X5.45Y-3.1
X5.45Y-3.2
X5.45Y-3.3
X5.45Y-3.4
X5.45Y-3.5
X5.45Y-3.6
X5.45Y-3.7
X5.45Y-3.8
X5.45Y-3.9
T3
X6.25Y-3.6256
X6.25Y-4.0744
X6.5Y-3.6256
X6.5Y-4.0744
X6.75Y-3.6256
X6.75Y-4.0744
X6.25Y-2.7256
X6.25Y-3.1744
X6.5Y-2.7256
X6.5Y-3.1744
X6.75Y-2.7256
X6.75Y-3.1744
X6.25Y-4.4756
X6.25Y-4.9244
X6.5Y-4.4756
X6.5Y-4.9244
X6.75Y-4.4756
X6.75Y-4.9244
T4
X5.7Y-2.35
X5.7Y-5.05
T0
M30
