G04 #@! TF.GenerationSoftware,KiCad,Pcbnew,5.1.5-52549c5~84~ubuntu18.04.1*
G04 #@! TF.CreationDate,2020-03-07T09:10:50-05:00*
G04 #@! TF.ProjectId,pedal-controller,70656461-6c2d-4636-9f6e-74726f6c6c65,rev?*
G04 #@! TF.SameCoordinates,Original*
G04 #@! TF.FileFunction,Copper,L1,Top*
G04 #@! TF.FilePolarity,Positive*
%FSLAX46Y46*%
G04 Gerber Fmt 4.6, Leading zero omitted, Abs format (unit mm)*
G04 Created by KiCad (PCBNEW 5.1.5-52549c5~84~ubuntu18.04.1) date 2020-03-07 09:10:50*
%MOMM*%
%LPD*%
G04 APERTURE LIST*
%ADD10C,4.000000*%
%ADD11C,1.524000*%
%ADD12C,2.000000*%
%ADD13C,0.250000*%
%ADD14C,0.500000*%
G04 APERTURE END LIST*
D10*
X144780000Y-59690000D03*
X144780000Y-106680000D03*
D11*
X138430000Y-96520000D03*
X138430000Y-99060000D03*
X138430000Y-93980000D03*
X138430000Y-91440000D03*
X138430000Y-88900000D03*
X138430000Y-86360000D03*
X138430000Y-83820000D03*
X138430000Y-81280000D03*
X138430000Y-78740000D03*
X138430000Y-76200000D03*
X138430000Y-73660000D03*
X138430000Y-71120000D03*
X138430000Y-68580000D03*
X138430000Y-66040000D03*
X138430000Y-63500000D03*
X138430000Y-60960000D03*
X138430000Y-58420000D03*
X123190000Y-99060000D03*
X123190000Y-96520000D03*
X123190000Y-93980000D03*
X123190000Y-91440000D03*
X123190000Y-88900000D03*
X123190000Y-86360000D03*
X123190000Y-83820000D03*
X123190000Y-81280000D03*
X123190000Y-78740000D03*
X123190000Y-76200000D03*
X123190000Y-73660000D03*
X123190000Y-71120000D03*
X123190000Y-68580000D03*
X123190000Y-66040000D03*
X123190000Y-63500000D03*
X123190000Y-60960000D03*
X123190000Y-58420000D03*
X134620000Y-76200000D03*
X127000000Y-76200000D03*
X134620000Y-81280000D03*
X127000000Y-81280000D03*
X134620000Y-78740000D03*
X127000000Y-78740000D03*
D12*
X167640000Y-106030000D03*
X167640000Y-94630000D03*
X161290000Y-106030000D03*
X161290000Y-94630000D03*
X154940000Y-106030000D03*
X154940000Y-94630000D03*
X167640000Y-88250000D03*
X167640000Y-76850000D03*
X161290000Y-88250000D03*
X161290000Y-76850000D03*
X154940000Y-88250000D03*
X154940000Y-76850000D03*
X167640000Y-70470000D03*
X167640000Y-59070000D03*
X161290000Y-70470000D03*
X161290000Y-59070000D03*
X154940000Y-70470000D03*
X154940000Y-59070000D03*
D13*
X138430000Y-76200000D02*
X134620000Y-76200000D01*
X138430000Y-78740000D02*
X134620000Y-78740000D01*
X138430000Y-81280000D02*
X134620000Y-81280000D01*
D14*
X127000000Y-76200000D02*
X127000000Y-87630000D01*
X127000000Y-87630000D02*
X123190000Y-91440000D01*
D13*
X139700000Y-76200000D02*
X138430000Y-76200000D01*
X138430000Y-81280000D02*
X138430000Y-81280000D01*
X138430000Y-81280000D02*
X142240000Y-81280000D01*
X138430000Y-76200000D02*
X140970000Y-76200000D01*
X140970000Y-76200000D02*
X154940000Y-62230000D01*
X138430000Y-81280000D02*
X143510000Y-81280000D01*
X143510000Y-81280000D02*
X153670000Y-91440000D01*
X164450000Y-91440000D02*
X167640000Y-94630000D01*
X164480000Y-62230000D02*
X167640000Y-59070000D01*
X154940000Y-62230000D02*
X164480000Y-62230000D01*
X165750000Y-78740000D02*
X167640000Y-76850000D01*
X138430000Y-78740000D02*
X165750000Y-78740000D01*
X153670000Y-91440000D02*
X164450000Y-91440000D01*
M02*
