G04 #@! TF.GenerationSoftware,KiCad,Pcbnew,5.1.5-52549c5~84~ubuntu18.04.1*
G04 #@! TF.CreationDate,2020-03-07T09:10:50-05:00*
G04 #@! TF.ProjectId,pedal-controller,70656461-6c2d-4636-9f6e-74726f6c6c65,rev?*
G04 #@! TF.SameCoordinates,Original*
G04 #@! TF.FileFunction,Legend,Top*
G04 #@! TF.FilePolarity,Positive*
%FSLAX46Y46*%
G04 Gerber Fmt 4.6, Leading zero omitted, Abs format (unit mm)*
G04 Created by KiCad (PCBNEW 5.1.5-52549c5~84~ubuntu18.04.1) date 2020-03-07 09:10:50*
%MOMM*%
%LPD*%
G04 APERTURE LIST*
%ADD10C,0.150000*%
%ADD11C,0.120000*%
G04 APERTURE END LIST*
D10*
X146454761Y-66627142D02*
X146502380Y-66484285D01*
X146502380Y-66246190D01*
X146454761Y-66150952D01*
X146407142Y-66103333D01*
X146311904Y-66055714D01*
X146216666Y-66055714D01*
X146121428Y-66103333D01*
X146073809Y-66150952D01*
X146026190Y-66246190D01*
X145978571Y-66436666D01*
X145930952Y-66531904D01*
X145883333Y-66579523D01*
X145788095Y-66627142D01*
X145692857Y-66627142D01*
X145597619Y-66579523D01*
X145550000Y-66531904D01*
X145502380Y-66436666D01*
X145502380Y-66198571D01*
X145550000Y-66055714D01*
X146502380Y-65627142D02*
X145502380Y-65627142D01*
X145978571Y-65627142D02*
X145978571Y-65055714D01*
X146502380Y-65055714D02*
X145502380Y-65055714D01*
X146502380Y-64579523D02*
X145502380Y-64579523D01*
X145978571Y-63770000D02*
X145978571Y-64103333D01*
X146502380Y-64103333D02*
X145502380Y-64103333D01*
X145502380Y-63627142D01*
X145502380Y-63389047D02*
X145502380Y-62817619D01*
X146502380Y-63103333D02*
X145502380Y-63103333D01*
X146216666Y-83573809D02*
X146216666Y-83097619D01*
X146502380Y-83669047D02*
X145502380Y-83335714D01*
X146502380Y-83002380D01*
X146502380Y-82192857D02*
X146502380Y-82669047D01*
X145502380Y-82669047D01*
X145502380Y-82002380D02*
X145502380Y-81430952D01*
X146502380Y-81716666D02*
X145502380Y-81716666D01*
X146407142Y-101306190D02*
X146454761Y-101353809D01*
X146502380Y-101496666D01*
X146502380Y-101591904D01*
X146454761Y-101734761D01*
X146359523Y-101830000D01*
X146264285Y-101877619D01*
X146073809Y-101925238D01*
X145930952Y-101925238D01*
X145740476Y-101877619D01*
X145645238Y-101830000D01*
X145550000Y-101734761D01*
X145502380Y-101591904D01*
X145502380Y-101496666D01*
X145550000Y-101353809D01*
X145597619Y-101306190D01*
X145502380Y-101020476D02*
X145502380Y-100449047D01*
X146502380Y-100734761D02*
X145502380Y-100734761D01*
X146502380Y-99544285D02*
X146026190Y-99877619D01*
X146502380Y-100115714D02*
X145502380Y-100115714D01*
X145502380Y-99734761D01*
X145550000Y-99639523D01*
X145597619Y-99591904D01*
X145692857Y-99544285D01*
X145835714Y-99544285D01*
X145930952Y-99591904D01*
X145978571Y-99639523D01*
X146026190Y-99734761D01*
X146026190Y-100115714D01*
X146502380Y-98639523D02*
X146502380Y-99115714D01*
X145502380Y-99115714D01*
X119887261Y-104592380D02*
X119887261Y-103592380D01*
X120268214Y-103592380D01*
X120363452Y-103640000D01*
X120411071Y-103687619D01*
X120458690Y-103782857D01*
X120458690Y-103925714D01*
X120411071Y-104020952D01*
X120363452Y-104068571D01*
X120268214Y-104116190D01*
X119887261Y-104116190D01*
X121268214Y-104544761D02*
X121172976Y-104592380D01*
X120982499Y-104592380D01*
X120887261Y-104544761D01*
X120839642Y-104449523D01*
X120839642Y-104068571D01*
X120887261Y-103973333D01*
X120982499Y-103925714D01*
X121172976Y-103925714D01*
X121268214Y-103973333D01*
X121315833Y-104068571D01*
X121315833Y-104163809D01*
X120839642Y-104259047D01*
X122172976Y-104592380D02*
X122172976Y-103592380D01*
X122172976Y-104544761D02*
X122077738Y-104592380D01*
X121887261Y-104592380D01*
X121792023Y-104544761D01*
X121744404Y-104497142D01*
X121696785Y-104401904D01*
X121696785Y-104116190D01*
X121744404Y-104020952D01*
X121792023Y-103973333D01*
X121887261Y-103925714D01*
X122077738Y-103925714D01*
X122172976Y-103973333D01*
X123077738Y-104592380D02*
X123077738Y-104068571D01*
X123030119Y-103973333D01*
X122934880Y-103925714D01*
X122744404Y-103925714D01*
X122649166Y-103973333D01*
X123077738Y-104544761D02*
X122982499Y-104592380D01*
X122744404Y-104592380D01*
X122649166Y-104544761D01*
X122601547Y-104449523D01*
X122601547Y-104354285D01*
X122649166Y-104259047D01*
X122744404Y-104211428D01*
X122982499Y-104211428D01*
X123077738Y-104163809D01*
X123696785Y-104592380D02*
X123601547Y-104544761D01*
X123553928Y-104449523D01*
X123553928Y-103592380D01*
X124839642Y-104592380D02*
X124839642Y-103592380D01*
X125172976Y-104306666D01*
X125506309Y-103592380D01*
X125506309Y-104592380D01*
X126411071Y-104592380D02*
X126411071Y-104068571D01*
X126363452Y-103973333D01*
X126268214Y-103925714D01*
X126077738Y-103925714D01*
X125982499Y-103973333D01*
X126411071Y-104544761D02*
X126315833Y-104592380D01*
X126077738Y-104592380D01*
X125982499Y-104544761D01*
X125934880Y-104449523D01*
X125934880Y-104354285D01*
X125982499Y-104259047D01*
X126077738Y-104211428D01*
X126315833Y-104211428D01*
X126411071Y-104163809D01*
X126839642Y-104544761D02*
X126934880Y-104592380D01*
X127125357Y-104592380D01*
X127220595Y-104544761D01*
X127268214Y-104449523D01*
X127268214Y-104401904D01*
X127220595Y-104306666D01*
X127125357Y-104259047D01*
X126982499Y-104259047D01*
X126887261Y-104211428D01*
X126839642Y-104116190D01*
X126839642Y-104068571D01*
X126887261Y-103973333D01*
X126982499Y-103925714D01*
X127125357Y-103925714D01*
X127220595Y-103973333D01*
X127553928Y-103925714D02*
X127934880Y-103925714D01*
X127696785Y-103592380D02*
X127696785Y-104449523D01*
X127744404Y-104544761D01*
X127839642Y-104592380D01*
X127934880Y-104592380D01*
X128649166Y-104544761D02*
X128553928Y-104592380D01*
X128363452Y-104592380D01*
X128268214Y-104544761D01*
X128220595Y-104449523D01*
X128220595Y-104068571D01*
X128268214Y-103973333D01*
X128363452Y-103925714D01*
X128553928Y-103925714D01*
X128649166Y-103973333D01*
X128696785Y-104068571D01*
X128696785Y-104163809D01*
X128220595Y-104259047D01*
X129125357Y-104592380D02*
X129125357Y-103925714D01*
X129125357Y-104116190D02*
X129172976Y-104020952D01*
X129220595Y-103973333D01*
X129315833Y-103925714D01*
X129411071Y-103925714D01*
X130411071Y-103925714D02*
X130649166Y-104592380D01*
X130887261Y-103925714D01*
X131220595Y-103687619D02*
X131268214Y-103640000D01*
X131363452Y-103592380D01*
X131601547Y-103592380D01*
X131696785Y-103640000D01*
X131744404Y-103687619D01*
X131792023Y-103782857D01*
X131792023Y-103878095D01*
X131744404Y-104020952D01*
X131172976Y-104592380D01*
X131792023Y-104592380D01*
X124363452Y-105862380D02*
X124268214Y-105814761D01*
X124220595Y-105719523D01*
X124220595Y-104862380D01*
X124744404Y-105862380D02*
X124744404Y-105195714D01*
X124744404Y-104862380D02*
X124696785Y-104910000D01*
X124744404Y-104957619D01*
X124792023Y-104910000D01*
X124744404Y-104862380D01*
X124744404Y-104957619D01*
X125649166Y-105195714D02*
X125649166Y-106005238D01*
X125601547Y-106100476D01*
X125553928Y-106148095D01*
X125458690Y-106195714D01*
X125315833Y-106195714D01*
X125220595Y-106148095D01*
X125649166Y-105814761D02*
X125553928Y-105862380D01*
X125363452Y-105862380D01*
X125268214Y-105814761D01*
X125220595Y-105767142D01*
X125172976Y-105671904D01*
X125172976Y-105386190D01*
X125220595Y-105290952D01*
X125268214Y-105243333D01*
X125363452Y-105195714D01*
X125553928Y-105195714D01*
X125649166Y-105243333D01*
X126553928Y-105862380D02*
X126553928Y-105338571D01*
X126506309Y-105243333D01*
X126411071Y-105195714D01*
X126220595Y-105195714D01*
X126125357Y-105243333D01*
X126553928Y-105814761D02*
X126458690Y-105862380D01*
X126220595Y-105862380D01*
X126125357Y-105814761D01*
X126077738Y-105719523D01*
X126077738Y-105624285D01*
X126125357Y-105529047D01*
X126220595Y-105481428D01*
X126458690Y-105481428D01*
X126553928Y-105433809D01*
X126887261Y-105195714D02*
X127268214Y-105195714D01*
X127030119Y-104862380D02*
X127030119Y-105719523D01*
X127077738Y-105814761D01*
X127172976Y-105862380D01*
X127268214Y-105862380D01*
X128030119Y-105195714D02*
X128030119Y-105862380D01*
X127601547Y-105195714D02*
X127601547Y-105719523D01*
X127649166Y-105814761D01*
X127744404Y-105862380D01*
X127887261Y-105862380D01*
X127982500Y-105814761D01*
X128030119Y-105767142D01*
X128506309Y-105862380D02*
X128506309Y-105195714D01*
X128506309Y-105386190D02*
X128553928Y-105290952D01*
X128601547Y-105243333D01*
X128696785Y-105195714D01*
X128792023Y-105195714D01*
X129506309Y-105814761D02*
X129411071Y-105862380D01*
X129220595Y-105862380D01*
X129125357Y-105814761D01*
X129077738Y-105719523D01*
X129077738Y-105338571D01*
X129125357Y-105243333D01*
X129220595Y-105195714D01*
X129411071Y-105195714D01*
X129506309Y-105243333D01*
X129553928Y-105338571D01*
X129553928Y-105433809D01*
X129077738Y-105529047D01*
X129982500Y-105767142D02*
X130030119Y-105814761D01*
X129982500Y-105862380D01*
X129934880Y-105814761D01*
X129982500Y-105767142D01*
X129982500Y-105862380D01*
X130887261Y-105814761D02*
X130792023Y-105862380D01*
X130601547Y-105862380D01*
X130506309Y-105814761D01*
X130458690Y-105767142D01*
X130411071Y-105671904D01*
X130411071Y-105386190D01*
X130458690Y-105290952D01*
X130506309Y-105243333D01*
X130601547Y-105195714D01*
X130792023Y-105195714D01*
X130887261Y-105243333D01*
X131744404Y-105862380D02*
X131744404Y-105338571D01*
X131696785Y-105243333D01*
X131601547Y-105195714D01*
X131411071Y-105195714D01*
X131315833Y-105243333D01*
X131744404Y-105814761D02*
X131649166Y-105862380D01*
X131411071Y-105862380D01*
X131315833Y-105814761D01*
X131268214Y-105719523D01*
X131268214Y-105624285D01*
X131315833Y-105529047D01*
X131411071Y-105481428D01*
X131649166Y-105481428D01*
X131744404Y-105433809D01*
D11*
X137160000Y-58420000D02*
X124460000Y-58420000D01*
X137160000Y-99060000D02*
X137160000Y-58420000D01*
X124460000Y-99060000D02*
X137160000Y-99060000D01*
X124460000Y-58420000D02*
X124460000Y-99060000D01*
X128270000Y-82550000D02*
X128270000Y-80010000D01*
X133350000Y-82550000D02*
X128270000Y-82550000D01*
X128270000Y-80010000D02*
X133350000Y-80010000D01*
X128270000Y-80010000D02*
X128270000Y-77470000D01*
X133350000Y-80010000D02*
X128270000Y-80010000D01*
X133350000Y-77470000D02*
X133350000Y-80010000D01*
X128270000Y-77470000D02*
X133350000Y-77470000D01*
X128270000Y-77470000D02*
X128270000Y-74930000D01*
X133350000Y-77470000D02*
X128270000Y-77470000D01*
X133350000Y-74930000D02*
X133350000Y-77470000D01*
X128270000Y-74930000D02*
X133350000Y-74930000D01*
D10*
X128270000Y-55880000D02*
X133350000Y-55880000D01*
X128270000Y-60960000D02*
X128270000Y-55880000D01*
X133350000Y-60960000D02*
X128270000Y-60960000D01*
X133350000Y-55880000D02*
X133350000Y-60960000D01*
X123190000Y-58420000D02*
X138430000Y-58420000D01*
X123190000Y-99060000D02*
X123190000Y-58420000D01*
X138430000Y-99060000D02*
X123190000Y-99060000D01*
X138430000Y-58420000D02*
X138430000Y-99060000D01*
X128270000Y-74930000D02*
X129540000Y-74930000D01*
X133350000Y-74930000D02*
X128270000Y-74930000D01*
X133350000Y-77470000D02*
X133350000Y-74930000D01*
X128270000Y-77470000D02*
X133350000Y-77470000D01*
X128270000Y-74930000D02*
X128270000Y-77470000D01*
X128270000Y-80010000D02*
X129540000Y-80010000D01*
X133350000Y-80010000D02*
X128270000Y-80010000D01*
X133350000Y-82550000D02*
X133350000Y-80010000D01*
X128270000Y-82550000D02*
X133350000Y-82550000D01*
X128270000Y-80010000D02*
X128270000Y-82550000D01*
X128270000Y-77470000D02*
X129540000Y-77470000D01*
X133350000Y-77470000D02*
X128270000Y-77470000D01*
X133350000Y-80010000D02*
X133350000Y-77470000D01*
X128270000Y-80010000D02*
X133350000Y-80010000D01*
X128270000Y-77470000D02*
X128270000Y-80010000D01*
D11*
X153440000Y-102729999D02*
X153440000Y-107529999D01*
X153800000Y-102729999D02*
X153440000Y-102729999D01*
X153800000Y-97930000D02*
X153800000Y-102729999D01*
X153440000Y-97930000D02*
X153800000Y-97930000D01*
X153440000Y-93130000D02*
X153440000Y-97930000D01*
X169140000Y-93130001D02*
X153440000Y-93130000D01*
X169140000Y-107530000D02*
X169140000Y-93130001D01*
X153440000Y-107529999D02*
X169140000Y-107530000D01*
X153440000Y-84949999D02*
X153440000Y-89749999D01*
X153800000Y-84949999D02*
X153440000Y-84949999D01*
X153800000Y-80150000D02*
X153800000Y-84949999D01*
X153440000Y-80150000D02*
X153800000Y-80150000D01*
X153440000Y-75350000D02*
X153440000Y-80150000D01*
X169140000Y-75350001D02*
X153440000Y-75350000D01*
X169140000Y-89750000D02*
X169140000Y-75350001D01*
X153440000Y-89749999D02*
X169140000Y-89750000D01*
X153440000Y-67169999D02*
X153440000Y-71969999D01*
X153800000Y-67169999D02*
X153440000Y-67169999D01*
X153800000Y-62370000D02*
X153800000Y-67169999D01*
X153440000Y-62370000D02*
X153800000Y-62370000D01*
X153440000Y-57570000D02*
X153440000Y-62370000D01*
X169140000Y-57570001D02*
X153440000Y-57570000D01*
X169140000Y-71970000D02*
X169140000Y-57570001D01*
X153440000Y-71969999D02*
X169140000Y-71970000D01*
D10*
X143446666Y-60142380D02*
X143113333Y-59666190D01*
X142875238Y-60142380D02*
X142875238Y-59142380D01*
X143256190Y-59142380D01*
X143351428Y-59190000D01*
X143399047Y-59237619D01*
X143446666Y-59332857D01*
X143446666Y-59475714D01*
X143399047Y-59570952D01*
X143351428Y-59618571D01*
X143256190Y-59666190D01*
X142875238Y-59666190D01*
X143875238Y-59618571D02*
X144208571Y-59618571D01*
X144351428Y-60142380D02*
X143875238Y-60142380D01*
X143875238Y-59142380D01*
X144351428Y-59142380D01*
X145113333Y-59618571D02*
X144780000Y-59618571D01*
X144780000Y-60142380D02*
X144780000Y-59142380D01*
X145256190Y-59142380D01*
X145780000Y-59142380D02*
X145780000Y-59380476D01*
X145541904Y-59285238D02*
X145780000Y-59380476D01*
X146018095Y-59285238D01*
X145637142Y-59570952D02*
X145780000Y-59380476D01*
X145922857Y-59570952D01*
X146541904Y-59142380D02*
X146541904Y-59380476D01*
X146303809Y-59285238D02*
X146541904Y-59380476D01*
X146780000Y-59285238D01*
X146399047Y-59570952D02*
X146541904Y-59380476D01*
X146684761Y-59570952D01*
X143446666Y-107132380D02*
X143113333Y-106656190D01*
X142875238Y-107132380D02*
X142875238Y-106132380D01*
X143256190Y-106132380D01*
X143351428Y-106180000D01*
X143399047Y-106227619D01*
X143446666Y-106322857D01*
X143446666Y-106465714D01*
X143399047Y-106560952D01*
X143351428Y-106608571D01*
X143256190Y-106656190D01*
X142875238Y-106656190D01*
X143875238Y-106608571D02*
X144208571Y-106608571D01*
X144351428Y-107132380D02*
X143875238Y-107132380D01*
X143875238Y-106132380D01*
X144351428Y-106132380D01*
X145113333Y-106608571D02*
X144780000Y-106608571D01*
X144780000Y-107132380D02*
X144780000Y-106132380D01*
X145256190Y-106132380D01*
X145780000Y-106132380D02*
X145780000Y-106370476D01*
X145541904Y-106275238D02*
X145780000Y-106370476D01*
X146018095Y-106275238D01*
X145637142Y-106560952D02*
X145780000Y-106370476D01*
X145922857Y-106560952D01*
X146541904Y-106132380D02*
X146541904Y-106370476D01*
X146303809Y-106275238D02*
X146541904Y-106370476D01*
X146780000Y-106275238D01*
X146399047Y-106560952D02*
X146541904Y-106370476D01*
X146684761Y-106560952D01*
X123642380Y-59753333D02*
X123166190Y-60086666D01*
X123642380Y-60324761D02*
X122642380Y-60324761D01*
X122642380Y-59943809D01*
X122690000Y-59848571D01*
X122737619Y-59800952D01*
X122832857Y-59753333D01*
X122975714Y-59753333D01*
X123070952Y-59800952D01*
X123118571Y-59848571D01*
X123166190Y-59943809D01*
X123166190Y-60324761D01*
X123118571Y-59324761D02*
X123118571Y-58991428D01*
X123642380Y-58848571D02*
X123642380Y-59324761D01*
X122642380Y-59324761D01*
X122642380Y-58848571D01*
X123118571Y-58086666D02*
X123118571Y-58420000D01*
X123642380Y-58420000D02*
X122642380Y-58420000D01*
X122642380Y-57943809D01*
X122642380Y-57420000D02*
X122880476Y-57420000D01*
X122785238Y-57658095D02*
X122880476Y-57420000D01*
X122785238Y-57181904D01*
X123070952Y-57562857D02*
X122880476Y-57420000D01*
X123070952Y-57277142D01*
X122642380Y-56658095D02*
X122880476Y-56658095D01*
X122785238Y-56896190D02*
X122880476Y-56658095D01*
X122785238Y-56420000D01*
X123070952Y-56800952D02*
X122880476Y-56658095D01*
X123070952Y-56515238D01*
X121054761Y-100345714D02*
X121102380Y-100202857D01*
X121102380Y-99964761D01*
X121054761Y-99869523D01*
X121007142Y-99821904D01*
X120911904Y-99774285D01*
X120816666Y-99774285D01*
X120721428Y-99821904D01*
X120673809Y-99869523D01*
X120626190Y-99964761D01*
X120578571Y-100155238D01*
X120530952Y-100250476D01*
X120483333Y-100298095D01*
X120388095Y-100345714D01*
X120292857Y-100345714D01*
X120197619Y-100298095D01*
X120150000Y-100250476D01*
X120102380Y-100155238D01*
X120102380Y-99917142D01*
X120150000Y-99774285D01*
X121007142Y-98774285D02*
X121054761Y-98821904D01*
X121102380Y-98964761D01*
X121102380Y-99060000D01*
X121054761Y-99202857D01*
X120959523Y-99298095D01*
X120864285Y-99345714D01*
X120673809Y-99393333D01*
X120530952Y-99393333D01*
X120340476Y-99345714D01*
X120245238Y-99298095D01*
X120150000Y-99202857D01*
X120102380Y-99060000D01*
X120102380Y-98964761D01*
X120150000Y-98821904D01*
X120197619Y-98774285D01*
X121102380Y-98345714D02*
X120102380Y-98345714D01*
X121102380Y-97774285D02*
X120530952Y-98202857D01*
X120102380Y-97774285D02*
X120673809Y-98345714D01*
X121102380Y-97091428D02*
X120102380Y-97091428D01*
X120816666Y-96758095D01*
X120102380Y-96424761D01*
X121102380Y-96424761D01*
X121102380Y-95948571D02*
X120102380Y-95948571D01*
X120102380Y-94551428D02*
X121102380Y-94218095D01*
X120102380Y-93884761D01*
X121102380Y-93551428D02*
X120102380Y-93551428D01*
X120150000Y-92201904D02*
X120102380Y-92297142D01*
X120102380Y-92440000D01*
X120150000Y-92582857D01*
X120245238Y-92678095D01*
X120340476Y-92725714D01*
X120530952Y-92773333D01*
X120673809Y-92773333D01*
X120864285Y-92725714D01*
X120959523Y-92678095D01*
X121054761Y-92582857D01*
X121102380Y-92440000D01*
X121102380Y-92344761D01*
X121054761Y-92201904D01*
X121007142Y-92154285D01*
X120673809Y-92154285D01*
X120673809Y-92344761D01*
X121102380Y-91725714D02*
X120102380Y-91725714D01*
X121102380Y-91154285D01*
X120102380Y-91154285D01*
X121102380Y-90678095D02*
X120102380Y-90678095D01*
X120102380Y-90440000D01*
X120150000Y-90297142D01*
X120245238Y-90201904D01*
X120340476Y-90154285D01*
X120530952Y-90106666D01*
X120673809Y-90106666D01*
X120864285Y-90154285D01*
X120959523Y-90201904D01*
X121054761Y-90297142D01*
X121102380Y-90440000D01*
X121102380Y-90678095D01*
X121102380Y-89066666D02*
X120626190Y-89400000D01*
X121102380Y-89638095D02*
X120102380Y-89638095D01*
X120102380Y-89257142D01*
X120150000Y-89161904D01*
X120197619Y-89114285D01*
X120292857Y-89066666D01*
X120435714Y-89066666D01*
X120530952Y-89114285D01*
X120578571Y-89161904D01*
X120626190Y-89257142D01*
X120626190Y-89638095D01*
X121054761Y-88685714D02*
X121102380Y-88542857D01*
X121102380Y-88304761D01*
X121054761Y-88209523D01*
X121007142Y-88161904D01*
X120911904Y-88114285D01*
X120816666Y-88114285D01*
X120721428Y-88161904D01*
X120673809Y-88209523D01*
X120626190Y-88304761D01*
X120578571Y-88495238D01*
X120530952Y-88590476D01*
X120483333Y-88638095D01*
X120388095Y-88685714D01*
X120292857Y-88685714D01*
X120197619Y-88638095D01*
X120150000Y-88590476D01*
X120102380Y-88495238D01*
X120102380Y-88257142D01*
X120150000Y-88114285D01*
X120102380Y-86550476D02*
X120102380Y-87026666D01*
X120578571Y-87074285D01*
X120530952Y-87026666D01*
X120483333Y-86931428D01*
X120483333Y-86693333D01*
X120530952Y-86598095D01*
X120578571Y-86550476D01*
X120673809Y-86502857D01*
X120911904Y-86502857D01*
X121007142Y-86550476D01*
X121054761Y-86598095D01*
X121102380Y-86693333D01*
X121102380Y-86931428D01*
X121054761Y-87026666D01*
X121007142Y-87074285D01*
X120102380Y-86217142D02*
X121102380Y-85883809D01*
X120102380Y-85550476D01*
X120816666Y-79454285D02*
X120816666Y-78978095D01*
X121102380Y-79549523D02*
X120102380Y-79216190D01*
X121102380Y-78882857D01*
X120102380Y-78073333D02*
X120102380Y-78549523D01*
X120578571Y-78597142D01*
X120530952Y-78549523D01*
X120483333Y-78454285D01*
X120483333Y-78216190D01*
X120530952Y-78120952D01*
X120578571Y-78073333D01*
X120673809Y-78025714D01*
X120911904Y-78025714D01*
X121007142Y-78073333D01*
X121054761Y-78120952D01*
X121102380Y-78216190D01*
X121102380Y-78454285D01*
X121054761Y-78549523D01*
X121007142Y-78597142D01*
X120816666Y-76914285D02*
X120816666Y-76438095D01*
X121102380Y-77009523D02*
X120102380Y-76676190D01*
X121102380Y-76342857D01*
X120435714Y-75580952D02*
X121102380Y-75580952D01*
X120054761Y-75819047D02*
X120769047Y-76057142D01*
X120769047Y-75438095D01*
X120816666Y-74374285D02*
X120816666Y-73898095D01*
X121102380Y-74469523D02*
X120102380Y-74136190D01*
X121102380Y-73802857D01*
X120102380Y-73564761D02*
X120102380Y-72945714D01*
X120483333Y-73279047D01*
X120483333Y-73136190D01*
X120530952Y-73040952D01*
X120578571Y-72993333D01*
X120673809Y-72945714D01*
X120911904Y-72945714D01*
X121007142Y-72993333D01*
X121054761Y-73040952D01*
X121102380Y-73136190D01*
X121102380Y-73421904D01*
X121054761Y-73517142D01*
X121007142Y-73564761D01*
X120816666Y-71834285D02*
X120816666Y-71358095D01*
X121102380Y-71929523D02*
X120102380Y-71596190D01*
X121102380Y-71262857D01*
X120197619Y-70977142D02*
X120150000Y-70929523D01*
X120102380Y-70834285D01*
X120102380Y-70596190D01*
X120150000Y-70500952D01*
X120197619Y-70453333D01*
X120292857Y-70405714D01*
X120388095Y-70405714D01*
X120530952Y-70453333D01*
X121102380Y-71024761D01*
X121102380Y-70405714D01*
X120816666Y-69294285D02*
X120816666Y-68818095D01*
X121102380Y-69389523D02*
X120102380Y-69056190D01*
X121102380Y-68722857D01*
X121102380Y-67865714D02*
X121102380Y-68437142D01*
X121102380Y-68151428D02*
X120102380Y-68151428D01*
X120245238Y-68246666D01*
X120340476Y-68341904D01*
X120388095Y-68437142D01*
X120816666Y-66754285D02*
X120816666Y-66278095D01*
X121102380Y-66849523D02*
X120102380Y-66516190D01*
X121102380Y-66182857D01*
X120102380Y-65659047D02*
X120102380Y-65563809D01*
X120150000Y-65468571D01*
X120197619Y-65420952D01*
X120292857Y-65373333D01*
X120483333Y-65325714D01*
X120721428Y-65325714D01*
X120911904Y-65373333D01*
X121007142Y-65420952D01*
X121054761Y-65468571D01*
X121102380Y-65563809D01*
X121102380Y-65659047D01*
X121054761Y-65754285D01*
X121007142Y-65801904D01*
X120911904Y-65849523D01*
X120721428Y-65897142D01*
X120483333Y-65897142D01*
X120292857Y-65849523D01*
X120197619Y-65801904D01*
X120150000Y-65754285D01*
X120102380Y-65659047D01*
X121102380Y-64071428D02*
X120626190Y-64404761D01*
X121102380Y-64642857D02*
X120102380Y-64642857D01*
X120102380Y-64261904D01*
X120150000Y-64166666D01*
X120197619Y-64119047D01*
X120292857Y-64071428D01*
X120435714Y-64071428D01*
X120530952Y-64119047D01*
X120578571Y-64166666D01*
X120626190Y-64261904D01*
X120626190Y-64642857D01*
X120578571Y-63642857D02*
X120578571Y-63309523D01*
X121102380Y-63166666D02*
X121102380Y-63642857D01*
X120102380Y-63642857D01*
X120102380Y-63166666D01*
X120578571Y-62404761D02*
X120578571Y-62738095D01*
X121102380Y-62738095D02*
X120102380Y-62738095D01*
X120102380Y-62261904D01*
X120102380Y-61721904D02*
X120102380Y-61102857D01*
X120483333Y-61436190D01*
X120483333Y-61293333D01*
X120530952Y-61198095D01*
X120578571Y-61150476D01*
X120673809Y-61102857D01*
X120911904Y-61102857D01*
X121007142Y-61150476D01*
X121054761Y-61198095D01*
X121102380Y-61293333D01*
X121102380Y-61579047D01*
X121054761Y-61674285D01*
X121007142Y-61721904D01*
X120102380Y-60817142D02*
X121102380Y-60483809D01*
X120102380Y-60150476D01*
X121102380Y-58610476D02*
X121102380Y-59181904D01*
X121102380Y-58896190D02*
X120102380Y-58896190D01*
X120245238Y-58991428D01*
X120340476Y-59086666D01*
X120388095Y-59181904D01*
X120102380Y-58277142D02*
X120102380Y-57658095D01*
X120483333Y-57991428D01*
X120483333Y-57848571D01*
X120530952Y-57753333D01*
X120578571Y-57705714D01*
X120673809Y-57658095D01*
X120911904Y-57658095D01*
X121007142Y-57705714D01*
X121054761Y-57753333D01*
X121102380Y-57848571D01*
X121102380Y-58134285D01*
X121054761Y-58229523D01*
X121007142Y-58277142D01*
X141422380Y-99893333D02*
X140422380Y-99893333D01*
X141136666Y-99560000D01*
X140422380Y-99226666D01*
X141422380Y-99226666D01*
X141422380Y-98750476D02*
X140422380Y-98750476D01*
X140422380Y-98512380D01*
X140470000Y-98369523D01*
X140565238Y-98274285D01*
X140660476Y-98226666D01*
X140850952Y-98179047D01*
X140993809Y-98179047D01*
X141184285Y-98226666D01*
X141279523Y-98274285D01*
X141374761Y-98369523D01*
X141422380Y-98512380D01*
X141422380Y-98750476D01*
X141374761Y-97281904D02*
X141422380Y-97139047D01*
X141422380Y-96900952D01*
X141374761Y-96805714D01*
X141327142Y-96758095D01*
X141231904Y-96710476D01*
X141136666Y-96710476D01*
X141041428Y-96758095D01*
X140993809Y-96805714D01*
X140946190Y-96900952D01*
X140898571Y-97091428D01*
X140850952Y-97186666D01*
X140803333Y-97234285D01*
X140708095Y-97281904D01*
X140612857Y-97281904D01*
X140517619Y-97234285D01*
X140470000Y-97186666D01*
X140422380Y-97091428D01*
X140422380Y-96853333D01*
X140470000Y-96710476D01*
X141374761Y-96329523D02*
X141422380Y-96186666D01*
X141422380Y-95948571D01*
X141374761Y-95853333D01*
X141327142Y-95805714D01*
X141231904Y-95758095D01*
X141136666Y-95758095D01*
X141041428Y-95805714D01*
X140993809Y-95853333D01*
X140946190Y-95948571D01*
X140898571Y-96139047D01*
X140850952Y-96234285D01*
X140803333Y-96281904D01*
X140708095Y-96329523D01*
X140612857Y-96329523D01*
X140517619Y-96281904D01*
X140470000Y-96234285D01*
X140422380Y-96139047D01*
X140422380Y-95900952D01*
X140470000Y-95758095D01*
X140422380Y-94741904D02*
X140422380Y-94170476D01*
X141422380Y-94456190D02*
X140422380Y-94456190D01*
X140422380Y-93932380D02*
X141422380Y-93265714D01*
X140422380Y-93265714D02*
X141422380Y-93932380D01*
X141422380Y-91606666D02*
X140946190Y-91940000D01*
X141422380Y-92178095D02*
X140422380Y-92178095D01*
X140422380Y-91797142D01*
X140470000Y-91701904D01*
X140517619Y-91654285D01*
X140612857Y-91606666D01*
X140755714Y-91606666D01*
X140850952Y-91654285D01*
X140898571Y-91701904D01*
X140946190Y-91797142D01*
X140946190Y-92178095D01*
X140422380Y-91273333D02*
X141422380Y-90606666D01*
X140422380Y-90606666D02*
X141422380Y-91273333D01*
X141422380Y-89066666D02*
X140946190Y-89400000D01*
X141422380Y-89638095D02*
X140422380Y-89638095D01*
X140422380Y-89257142D01*
X140470000Y-89161904D01*
X140517619Y-89114285D01*
X140612857Y-89066666D01*
X140755714Y-89066666D01*
X140850952Y-89114285D01*
X140898571Y-89161904D01*
X140946190Y-89257142D01*
X140946190Y-89638095D01*
X141374761Y-88685714D02*
X141422380Y-88542857D01*
X141422380Y-88304761D01*
X141374761Y-88209523D01*
X141327142Y-88161904D01*
X141231904Y-88114285D01*
X141136666Y-88114285D01*
X141041428Y-88161904D01*
X140993809Y-88209523D01*
X140946190Y-88304761D01*
X140898571Y-88495238D01*
X140850952Y-88590476D01*
X140803333Y-88638095D01*
X140708095Y-88685714D01*
X140612857Y-88685714D01*
X140517619Y-88638095D01*
X140470000Y-88590476D01*
X140422380Y-88495238D01*
X140422380Y-88257142D01*
X140470000Y-88114285D01*
X140470000Y-87121904D02*
X140422380Y-87217142D01*
X140422380Y-87360000D01*
X140470000Y-87502857D01*
X140565238Y-87598095D01*
X140660476Y-87645714D01*
X140850952Y-87693333D01*
X140993809Y-87693333D01*
X141184285Y-87645714D01*
X141279523Y-87598095D01*
X141374761Y-87502857D01*
X141422380Y-87360000D01*
X141422380Y-87264761D01*
X141374761Y-87121904D01*
X141327142Y-87074285D01*
X140993809Y-87074285D01*
X140993809Y-87264761D01*
X141422380Y-86645714D02*
X140422380Y-86645714D01*
X141422380Y-86074285D01*
X140422380Y-86074285D01*
X141422380Y-85598095D02*
X140422380Y-85598095D01*
X140422380Y-85360000D01*
X140470000Y-85217142D01*
X140565238Y-85121904D01*
X140660476Y-85074285D01*
X140850952Y-85026666D01*
X140993809Y-85026666D01*
X141184285Y-85074285D01*
X141279523Y-85121904D01*
X141374761Y-85217142D01*
X141422380Y-85360000D01*
X141422380Y-85598095D01*
X140517619Y-84105714D02*
X140470000Y-84058095D01*
X140422380Y-83962857D01*
X140422380Y-83724761D01*
X140470000Y-83629523D01*
X140517619Y-83581904D01*
X140612857Y-83534285D01*
X140708095Y-83534285D01*
X140850952Y-83581904D01*
X141422380Y-84153333D01*
X141422380Y-83534285D01*
X140422380Y-81613333D02*
X140422380Y-80994285D01*
X140803333Y-81327619D01*
X140803333Y-81184761D01*
X140850952Y-81089523D01*
X140898571Y-81041904D01*
X140993809Y-80994285D01*
X141231904Y-80994285D01*
X141327142Y-81041904D01*
X141374761Y-81089523D01*
X141422380Y-81184761D01*
X141422380Y-81470476D01*
X141374761Y-81565714D01*
X141327142Y-81613333D01*
X140755714Y-78549523D02*
X141422380Y-78549523D01*
X140374761Y-78787619D02*
X141089047Y-79025714D01*
X141089047Y-78406666D01*
X140422380Y-75961904D02*
X140422380Y-76438095D01*
X140898571Y-76485714D01*
X140850952Y-76438095D01*
X140803333Y-76342857D01*
X140803333Y-76104761D01*
X140850952Y-76009523D01*
X140898571Y-75961904D01*
X140993809Y-75914285D01*
X141231904Y-75914285D01*
X141327142Y-75961904D01*
X141374761Y-76009523D01*
X141422380Y-76104761D01*
X141422380Y-76342857D01*
X141374761Y-76438095D01*
X141327142Y-76485714D01*
X140422380Y-73469523D02*
X140422380Y-73660000D01*
X140470000Y-73755238D01*
X140517619Y-73802857D01*
X140660476Y-73898095D01*
X140850952Y-73945714D01*
X141231904Y-73945714D01*
X141327142Y-73898095D01*
X141374761Y-73850476D01*
X141422380Y-73755238D01*
X141422380Y-73564761D01*
X141374761Y-73469523D01*
X141327142Y-73421904D01*
X141231904Y-73374285D01*
X140993809Y-73374285D01*
X140898571Y-73421904D01*
X140850952Y-73469523D01*
X140803333Y-73564761D01*
X140803333Y-73755238D01*
X140850952Y-73850476D01*
X140898571Y-73898095D01*
X140993809Y-73945714D01*
X140422380Y-71453333D02*
X140422380Y-70786666D01*
X141422380Y-71215238D01*
X140850952Y-68675238D02*
X140803333Y-68770476D01*
X140755714Y-68818095D01*
X140660476Y-68865714D01*
X140612857Y-68865714D01*
X140517619Y-68818095D01*
X140470000Y-68770476D01*
X140422380Y-68675238D01*
X140422380Y-68484761D01*
X140470000Y-68389523D01*
X140517619Y-68341904D01*
X140612857Y-68294285D01*
X140660476Y-68294285D01*
X140755714Y-68341904D01*
X140803333Y-68389523D01*
X140850952Y-68484761D01*
X140850952Y-68675238D01*
X140898571Y-68770476D01*
X140946190Y-68818095D01*
X141041428Y-68865714D01*
X141231904Y-68865714D01*
X141327142Y-68818095D01*
X141374761Y-68770476D01*
X141422380Y-68675238D01*
X141422380Y-68484761D01*
X141374761Y-68389523D01*
X141327142Y-68341904D01*
X141231904Y-68294285D01*
X141041428Y-68294285D01*
X140946190Y-68341904D01*
X140898571Y-68389523D01*
X140850952Y-68484761D01*
X141422380Y-66230476D02*
X141422380Y-66040000D01*
X141374761Y-65944761D01*
X141327142Y-65897142D01*
X141184285Y-65801904D01*
X140993809Y-65754285D01*
X140612857Y-65754285D01*
X140517619Y-65801904D01*
X140470000Y-65849523D01*
X140422380Y-65944761D01*
X140422380Y-66135238D01*
X140470000Y-66230476D01*
X140517619Y-66278095D01*
X140612857Y-66325714D01*
X140850952Y-66325714D01*
X140946190Y-66278095D01*
X140993809Y-66230476D01*
X141041428Y-66135238D01*
X141041428Y-65944761D01*
X140993809Y-65849523D01*
X140946190Y-65801904D01*
X140850952Y-65754285D01*
X141422380Y-63690476D02*
X141422380Y-64261904D01*
X141422380Y-63976190D02*
X140422380Y-63976190D01*
X140565238Y-64071428D01*
X140660476Y-64166666D01*
X140708095Y-64261904D01*
X140422380Y-63071428D02*
X140422380Y-62976190D01*
X140470000Y-62880952D01*
X140517619Y-62833333D01*
X140612857Y-62785714D01*
X140803333Y-62738095D01*
X141041428Y-62738095D01*
X141231904Y-62785714D01*
X141327142Y-62833333D01*
X141374761Y-62880952D01*
X141422380Y-62976190D01*
X141422380Y-63071428D01*
X141374761Y-63166666D01*
X141327142Y-63214285D01*
X141231904Y-63261904D01*
X141041428Y-63309523D01*
X140803333Y-63309523D01*
X140612857Y-63261904D01*
X140517619Y-63214285D01*
X140470000Y-63166666D01*
X140422380Y-63071428D01*
X141422380Y-61150476D02*
X141422380Y-61721904D01*
X141422380Y-61436190D02*
X140422380Y-61436190D01*
X140565238Y-61531428D01*
X140660476Y-61626666D01*
X140708095Y-61721904D01*
X141422380Y-60198095D02*
X141422380Y-60769523D01*
X141422380Y-60483809D02*
X140422380Y-60483809D01*
X140565238Y-60579047D01*
X140660476Y-60674285D01*
X140708095Y-60769523D01*
X141422380Y-58610476D02*
X141422380Y-59181904D01*
X141422380Y-58896190D02*
X140422380Y-58896190D01*
X140565238Y-58991428D01*
X140660476Y-59086666D01*
X140708095Y-59181904D01*
X140517619Y-58229523D02*
X140470000Y-58181904D01*
X140422380Y-58086666D01*
X140422380Y-57848571D01*
X140470000Y-57753333D01*
X140517619Y-57705714D01*
X140612857Y-57658095D01*
X140708095Y-57658095D01*
X140850952Y-57705714D01*
X141422380Y-58277142D01*
X141422380Y-57658095D01*
X130262380Y-59681904D02*
X131071904Y-59681904D01*
X131167142Y-59634285D01*
X131214761Y-59586666D01*
X131262380Y-59491428D01*
X131262380Y-59300952D01*
X131214761Y-59205714D01*
X131167142Y-59158095D01*
X131071904Y-59110476D01*
X130262380Y-59110476D01*
X131214761Y-58681904D02*
X131262380Y-58539047D01*
X131262380Y-58300952D01*
X131214761Y-58205714D01*
X131167142Y-58158095D01*
X131071904Y-58110476D01*
X130976666Y-58110476D01*
X130881428Y-58158095D01*
X130833809Y-58205714D01*
X130786190Y-58300952D01*
X130738571Y-58491428D01*
X130690952Y-58586666D01*
X130643333Y-58634285D01*
X130548095Y-58681904D01*
X130452857Y-58681904D01*
X130357619Y-58634285D01*
X130310000Y-58586666D01*
X130262380Y-58491428D01*
X130262380Y-58253333D01*
X130310000Y-58110476D01*
X130738571Y-57348571D02*
X130786190Y-57205714D01*
X130833809Y-57158095D01*
X130929047Y-57110476D01*
X131071904Y-57110476D01*
X131167142Y-57158095D01*
X131214761Y-57205714D01*
X131262380Y-57300952D01*
X131262380Y-57681904D01*
X130262380Y-57681904D01*
X130262380Y-57348571D01*
X130310000Y-57253333D01*
X130357619Y-57205714D01*
X130452857Y-57158095D01*
X130548095Y-57158095D01*
X130643333Y-57205714D01*
X130690952Y-57253333D01*
X130738571Y-57348571D01*
X130738571Y-57681904D01*
X125666666Y-76652380D02*
X125333333Y-76176190D01*
X125095238Y-76652380D02*
X125095238Y-75652380D01*
X125476190Y-75652380D01*
X125571428Y-75700000D01*
X125619047Y-75747619D01*
X125666666Y-75842857D01*
X125666666Y-75985714D01*
X125619047Y-76080952D01*
X125571428Y-76128571D01*
X125476190Y-76176190D01*
X125095238Y-76176190D01*
X126095238Y-76128571D02*
X126428571Y-76128571D01*
X126571428Y-76652380D02*
X126095238Y-76652380D01*
X126095238Y-75652380D01*
X126571428Y-75652380D01*
X127333333Y-76128571D02*
X127000000Y-76128571D01*
X127000000Y-76652380D02*
X127000000Y-75652380D01*
X127476190Y-75652380D01*
X128000000Y-75652380D02*
X128000000Y-75890476D01*
X127761904Y-75795238D02*
X128000000Y-75890476D01*
X128238095Y-75795238D01*
X127857142Y-76080952D02*
X128000000Y-75890476D01*
X128142857Y-76080952D01*
X128761904Y-75652380D02*
X128761904Y-75890476D01*
X128523809Y-75795238D02*
X128761904Y-75890476D01*
X129000000Y-75795238D01*
X128619047Y-76080952D02*
X128761904Y-75890476D01*
X128904761Y-76080952D01*
X125666666Y-81732380D02*
X125333333Y-81256190D01*
X125095238Y-81732380D02*
X125095238Y-80732380D01*
X125476190Y-80732380D01*
X125571428Y-80780000D01*
X125619047Y-80827619D01*
X125666666Y-80922857D01*
X125666666Y-81065714D01*
X125619047Y-81160952D01*
X125571428Y-81208571D01*
X125476190Y-81256190D01*
X125095238Y-81256190D01*
X126095238Y-81208571D02*
X126428571Y-81208571D01*
X126571428Y-81732380D02*
X126095238Y-81732380D01*
X126095238Y-80732380D01*
X126571428Y-80732380D01*
X127333333Y-81208571D02*
X127000000Y-81208571D01*
X127000000Y-81732380D02*
X127000000Y-80732380D01*
X127476190Y-80732380D01*
X128000000Y-80732380D02*
X128000000Y-80970476D01*
X127761904Y-80875238D02*
X128000000Y-80970476D01*
X128238095Y-80875238D01*
X127857142Y-81160952D02*
X128000000Y-80970476D01*
X128142857Y-81160952D01*
X128761904Y-80732380D02*
X128761904Y-80970476D01*
X128523809Y-80875238D02*
X128761904Y-80970476D01*
X129000000Y-80875238D01*
X128619047Y-81160952D02*
X128761904Y-80970476D01*
X128904761Y-81160952D01*
X125666666Y-79192380D02*
X125333333Y-78716190D01*
X125095238Y-79192380D02*
X125095238Y-78192380D01*
X125476190Y-78192380D01*
X125571428Y-78240000D01*
X125619047Y-78287619D01*
X125666666Y-78382857D01*
X125666666Y-78525714D01*
X125619047Y-78620952D01*
X125571428Y-78668571D01*
X125476190Y-78716190D01*
X125095238Y-78716190D01*
X126095238Y-78668571D02*
X126428571Y-78668571D01*
X126571428Y-79192380D02*
X126095238Y-79192380D01*
X126095238Y-78192380D01*
X126571428Y-78192380D01*
X127333333Y-78668571D02*
X127000000Y-78668571D01*
X127000000Y-79192380D02*
X127000000Y-78192380D01*
X127476190Y-78192380D01*
X128000000Y-78192380D02*
X128000000Y-78430476D01*
X127761904Y-78335238D02*
X128000000Y-78430476D01*
X128238095Y-78335238D01*
X127857142Y-78620952D02*
X128000000Y-78430476D01*
X128142857Y-78620952D01*
X128761904Y-78192380D02*
X128761904Y-78430476D01*
X128523809Y-78335238D02*
X128761904Y-78430476D01*
X129000000Y-78335238D01*
X128619047Y-78620952D02*
X128761904Y-78430476D01*
X128904761Y-78620952D01*
X160472380Y-101663333D02*
X159996190Y-101996666D01*
X160472380Y-102234761D02*
X159472380Y-102234761D01*
X159472380Y-101853809D01*
X159520000Y-101758571D01*
X159567619Y-101710952D01*
X159662857Y-101663333D01*
X159805714Y-101663333D01*
X159900952Y-101710952D01*
X159948571Y-101758571D01*
X159996190Y-101853809D01*
X159996190Y-102234761D01*
X159948571Y-101234761D02*
X159948571Y-100901428D01*
X160472380Y-100758571D02*
X160472380Y-101234761D01*
X159472380Y-101234761D01*
X159472380Y-100758571D01*
X159948571Y-99996666D02*
X159948571Y-100330000D01*
X160472380Y-100330000D02*
X159472380Y-100330000D01*
X159472380Y-99853809D01*
X159472380Y-99330000D02*
X159710476Y-99330000D01*
X159615238Y-99568095D02*
X159710476Y-99330000D01*
X159615238Y-99091904D01*
X159900952Y-99472857D02*
X159710476Y-99330000D01*
X159900952Y-99187142D01*
X159472380Y-98568095D02*
X159710476Y-98568095D01*
X159615238Y-98806190D02*
X159710476Y-98568095D01*
X159615238Y-98330000D01*
X159900952Y-98710952D02*
X159710476Y-98568095D01*
X159900952Y-98425238D01*
X160472380Y-83883333D02*
X159996190Y-84216666D01*
X160472380Y-84454761D02*
X159472380Y-84454761D01*
X159472380Y-84073809D01*
X159520000Y-83978571D01*
X159567619Y-83930952D01*
X159662857Y-83883333D01*
X159805714Y-83883333D01*
X159900952Y-83930952D01*
X159948571Y-83978571D01*
X159996190Y-84073809D01*
X159996190Y-84454761D01*
X159948571Y-83454761D02*
X159948571Y-83121428D01*
X160472380Y-82978571D02*
X160472380Y-83454761D01*
X159472380Y-83454761D01*
X159472380Y-82978571D01*
X159948571Y-82216666D02*
X159948571Y-82550000D01*
X160472380Y-82550000D02*
X159472380Y-82550000D01*
X159472380Y-82073809D01*
X159472380Y-81550000D02*
X159710476Y-81550000D01*
X159615238Y-81788095D02*
X159710476Y-81550000D01*
X159615238Y-81311904D01*
X159900952Y-81692857D02*
X159710476Y-81550000D01*
X159900952Y-81407142D01*
X159472380Y-80788095D02*
X159710476Y-80788095D01*
X159615238Y-81026190D02*
X159710476Y-80788095D01*
X159615238Y-80550000D01*
X159900952Y-80930952D02*
X159710476Y-80788095D01*
X159900952Y-80645238D01*
X160472380Y-66103333D02*
X159996190Y-66436666D01*
X160472380Y-66674761D02*
X159472380Y-66674761D01*
X159472380Y-66293809D01*
X159520000Y-66198571D01*
X159567619Y-66150952D01*
X159662857Y-66103333D01*
X159805714Y-66103333D01*
X159900952Y-66150952D01*
X159948571Y-66198571D01*
X159996190Y-66293809D01*
X159996190Y-66674761D01*
X159948571Y-65674761D02*
X159948571Y-65341428D01*
X160472380Y-65198571D02*
X160472380Y-65674761D01*
X159472380Y-65674761D01*
X159472380Y-65198571D01*
X159948571Y-64436666D02*
X159948571Y-64770000D01*
X160472380Y-64770000D02*
X159472380Y-64770000D01*
X159472380Y-64293809D01*
X159472380Y-63770000D02*
X159710476Y-63770000D01*
X159615238Y-64008095D02*
X159710476Y-63770000D01*
X159615238Y-63531904D01*
X159900952Y-63912857D02*
X159710476Y-63770000D01*
X159900952Y-63627142D01*
X159472380Y-63008095D02*
X159710476Y-63008095D01*
X159615238Y-63246190D02*
X159710476Y-63008095D01*
X159615238Y-62770000D01*
X159900952Y-63150952D02*
X159710476Y-63008095D01*
X159900952Y-62865238D01*
M02*
